<?xml version="1.0" encoding="utf-8" standalone="no"?>
<!DOCTYPE svg PUBLIC "-//W3C//DTD SVG 1.1//EN"
  "http://www.w3.org/Graphics/SVG/1.1/DTD/svg11.dtd">
<svg xmlns:xlink="http://www.w3.org/1999/xlink" width="712.541563pt" height="424.236562pt" viewBox="0 0 712.541563 424.236562" xmlns="http://www.w3.org/2000/svg" version="1.1">
 <metadata>
  <rdf:RDF xmlns:dc="http://purl.org/dc/elements/1.1/" xmlns:cc="http://creativecommons.org/ns#" xmlns:rdf="http://www.w3.org/1999/02/22-rdf-syntax-ns#">
   <cc:Work>
    <dc:type rdf:resource="http://purl.org/dc/dcmitype/StillImage"/>
    <dc:date>2026-07-07T14:49:48.137285</dc:date>
    <dc:format>image/svg+xml</dc:format>
    <dc:creator>
     <cc:Agent>
      <dc:title>Matplotlib v3.11.0, https://matplotlib.org/</dc:title>
     </cc:Agent>
    </dc:creator>
   </cc:Work>
  </rdf:RDF>
 </metadata>
 <defs>
  <style type="text/css">*{stroke-linejoin: round; stroke-linecap: butt}</style>
 </defs>
 <g id="figure_1">
  <g id="patch_1">
   <path d="M 0 424.236562 
L 712.541563 424.236562 
L 712.541563 0 
L 0 0 
z
" style="fill: #ffffff"/>
  </g>
  <g id="axes_1">
   <g id="patch_2">
    <path d="M 44.103906 386.035781 
L 705.341563 386.035781 
L 705.341563 22.318125 
L 44.103906 22.318125 
z
" style="fill: #ffffff"/>
   </g>
   <g id="FillBetweenPolyCollection_1">
    <defs>
     <path id="m0ea195dc07" d="M 74.160163 -401.918437 
L 74.160163 -401.918437 
L 82.509124 -401.918437 
L 82.509124 -380.247547 
L 90.858084 -380.247547 
L 90.858084 -373.36878 
L 99.207044 -373.36878 
L 99.207044 -368.040715 
L 107.556005 -368.040715 
L 107.556005 -363.267379 
L 115.904965 -363.267379 
L 115.904965 -359.535594 
L 124.253925 -359.535594 
L 124.253925 -357.177899 
L 132.602885 -357.177899 
L 132.602885 -354.136949 
L 140.951846 -354.136949 
L 140.951846 -351.597925 
L 149.300806 -351.597925 
L 149.300806 -348.776681 
L 157.649766 -348.776681 
L 157.649766 -345.980106 
L 165.998727 -345.980106 
L 165.998727 -344.027653 
L 174.347687 -344.027653 
L 174.347687 -341.602661 
L 182.696647 -341.602661 
L 182.696647 -339.139269 
L 191.045608 -339.139269 
L 191.045608 -337.560613 
L 199.394568 -337.560613 
L 199.394568 -335.100758 
L 207.743528 -335.100758 
L 207.743528 -333.214684 
L 216.092489 -333.214684 
L 216.092489 -331.443562 
L 224.441449 -331.443562 
L 224.441449 -329.786286 
L 232.790409 -329.786286 
L 232.790409 -328.451969 
L 241.139369 -328.451969 
L 241.139369 -327.171795 
L 249.48833 -327.171795 
L 249.48833 -325.947359 
L 257.83729 -325.947359 
L 257.83729 -323.981226 
L 266.18625 -323.981226 
L 266.18625 -323.019668 
L 274.535211 -323.019668 
L 274.535211 -321.286945 
L 282.884171 -321.286945 
L 282.884171 -319.522064 
L 291.233131 -319.522064 
L 291.233131 -318.353873 
L 299.582092 -318.353873 
L 299.582092 -317.323551 
L 307.931052 -317.323551 
L 307.931052 -316.356669 
L 316.280012 -316.356669 
L 316.280012 -315.132648 
L 324.628973 -315.132648 
L 324.628973 -313.805414 
L 332.977933 -313.805414 
L 332.977933 -312.45617 
L 341.326893 -312.45617 
L 341.326893 -310.830433 
L 349.675853 -310.830433 
L 349.675853 -309.61414 
L 358.024814 -309.61414 
L 358.024814 -308.55515 
L 366.373774 -308.55515 
L 366.373774 -307.208794 
L 374.722734 -307.208794 
L 374.722734 -306.289268 
L 383.071695 -306.289268 
L 383.071695 -304.891501 
L 391.420655 -304.891501 
L 391.420655 -303.659278 
L 399.769615 -303.659278 
L 399.769615 -302.310882 
L 408.118576 -302.310882 
L 408.118576 -301.040068 
L 416.467536 -301.040068 
L 416.467536 -299.645879 
L 424.816496 -299.645879 
L 424.816496 -298.222227 
L 433.165457 -298.222227 
L 433.165457 -296.66692 
L 441.514417 -296.66692 
L 441.514417 -296.032393 
L 449.863377 -296.032393 
L 449.863377 -295.386138 
L 458.212337 -295.386138 
L 458.212337 -294.063811 
L 466.561298 -294.063811 
L 466.561298 -292.479954 
L 474.910258 -292.479954 
L 474.910258 -291.437411 
L 483.259218 -291.437411 
L 483.259218 -289.656345 
L 491.608179 -289.656345 
L 491.608179 -288.440655 
L 499.957139 -288.440655 
L 499.957139 -287.440535 
L 508.306099 -287.440535 
L 508.306099 -286.410006 
L 516.65506 -286.410006 
L 516.65506 -284.538262 
L 525.00402 -284.538262 
L 525.00402 -282.747772 
L 533.35298 -282.747772 
L 533.35298 -281.469837 
L 541.70194 -281.469837 
L 541.70194 -280.004158 
L 550.050901 -280.004158 
L 550.050901 -278.780839 
L 558.399861 -278.780839 
L 558.399861 -277.037445 
L 566.748821 -277.037445 
L 566.748821 -275.722115 
L 575.097782 -275.722115 
L 575.097782 -274.699746 
L 583.446742 -274.699746 
L 583.446742 -273.265755 
L 591.795702 -273.265755 
L 591.795702 -272.32157 
L 600.144663 -272.32157 
L 600.144663 -271.525186 
L 608.493623 -271.525186 
L 608.493623 -270.680599 
L 616.842583 -270.680599 
L 616.842583 -268.643118 
L 625.191544 -268.643118 
L 625.191544 -265.502876 
L 633.540504 -265.502876 
L 633.540504 -262.885186 
L 641.889464 -262.885186 
L 641.889464 -260.270819 
L 650.238424 -260.270819 
L 650.238424 -257.645601 
L 658.587385 -257.645601 
L 658.587385 -253.524902 
L 666.936345 -253.524902 
L 666.936345 -250.783056 
L 675.285305 -250.783056 
L 675.285305 -246.633873 
L 675.285305 -260.772785 
L 675.285305 -260.772785 
L 675.285305 -263.911051 
L 666.936345 -263.911051 
L 666.936345 -266.178364 
L 658.587385 -266.178364 
L 658.587385 -269.688657 
L 650.238424 -269.688657 
L 650.238424 -271.958259 
L 641.889464 -271.958259 
L 641.889464 -274.25106 
L 633.540504 -274.25106 
L 633.540504 -276.571486 
L 625.191544 -276.571486 
L 625.191544 -279.372179 
L 616.842583 -279.372179 
L 616.842583 -281.197026 
L 608.493623 -281.197026 
L 608.493623 -281.958797 
L 600.144663 -281.958797 
L 600.144663 -282.681738 
L 591.795702 -282.681738 
L 591.795702 -283.543485 
L 583.446742 -283.543485 
L 583.446742 -284.858376 
L 575.097782 -284.858376 
L 575.097782 -285.799855 
L 566.748821 -285.799855 
L 566.748821 -287.014213 
L 558.399861 -287.014213 
L 558.399861 -288.627252 
L 550.050901 -288.627252 
L 550.050901 -289.761459 
L 541.70194 -289.761459 
L 541.70194 -291.124373 
L 533.35298 -291.124373 
L 533.35298 -292.314769 
L 525.00402 -292.314769 
L 525.00402 -293.984964 
L 516.65506 -293.984964 
L 516.65506 -295.732679 
L 508.306099 -295.732679 
L 508.306099 -296.696967 
L 499.957139 -296.696967 
L 499.957139 -297.634539 
L 491.608179 -297.634539 
L 491.608179 -298.775968 
L 483.259218 -298.775968 
L 483.259218 -300.44948 
L 474.910258 -300.44948 
L 474.910258 -301.42997 
L 466.561298 -301.42997 
L 466.561298 -302.92092 
L 458.212337 -302.92092 
L 458.212337 -304.16695 
L 449.863377 -304.16695 
L 449.863377 -304.7766 
L 441.514417 -304.7766 
L 441.514417 -305.375805 
L 433.165457 -305.375805 
L 433.165457 -306.84564 
L 424.816496 -306.84564 
L 424.816496 -308.191573 
L 416.467536 -308.191573 
L 416.467536 -309.510405 
L 408.118576 -309.510405 
L 408.118576 -310.713055 
L 399.769615 -310.713055 
L 399.769615 -311.989309 
L 391.420655 -311.989309 
L 391.420655 -313.155899 
L 383.071695 -313.155899 
L 383.071695 -314.479633 
L 374.722734 -314.479633 
L 374.722734 -315.350573 
L 366.373774 -315.350573 
L 366.373774 -316.627107 
L 358.024814 -316.627107 
L 358.024814 -317.631572 
L 349.675853 -317.631572 
L 349.675853 -318.785636 
L 341.326893 -318.785636 
L 341.326893 -320.328326 
L 332.977933 -320.328326 
L 332.977933 -321.608616 
L 324.628973 -321.608616 
L 324.628973 -322.868315 
L 316.280012 -322.868315 
L 316.280012 -324.030375 
L 307.931052 -324.030375 
L 307.931052 -324.948428 
L 299.582092 -324.948428 
L 299.582092 -325.927195 
L 291.233131 -325.927195 
L 291.233131 -327.037473 
L 282.884171 -327.037473 
L 282.884171 -328.714877 
L 274.535211 -328.714877 
L 274.535211 -330.361809 
L 266.18625 -330.361809 
L 266.18625 -331.276074 
L 257.83729 -331.276074 
L 257.83729 -333.145617 
L 249.48833 -333.145617 
L 249.48833 -334.309452 
L 241.139369 -334.309452 
L 241.139369 -335.526245 
L 232.790409 -335.526245 
L 232.790409 -336.794422 
L 224.441449 -336.794422 
L 224.441449 -338.369702 
L 216.092489 -338.369702 
L 216.092489 -340.052673 
L 207.743528 -340.052673 
L 207.743528 -341.843829 
L 199.394568 -341.843829 
L 199.394568 -344.178163 
L 191.045608 -344.178163 
L 191.045608 -345.675021 
L 182.696647 -345.675021 
L 182.696647 -348.009414 
L 174.347687 -348.009414 
L 174.347687 -350.305387 
L 165.998727 -350.305387 
L 165.998727 -352.152287 
L 157.649766 -352.152287 
L 157.649766 -354.794746 
L 149.300806 -354.794746 
L 149.300806 -357.456259 
L 140.951846 -357.456259 
L 140.951846 -359.847946 
L 132.602885 -359.847946 
L 132.602885 -362.707329 
L 124.253925 -362.707329 
L 124.253925 -364.919803 
L 115.904965 -364.919803 
L 115.904965 -368.412382 
L 107.556005 -368.412382 
L 107.556005 -372.860371 
L 99.207044 -372.860371 
L 99.207044 -377.793816 
L 90.858084 -377.793816 
L 90.858084 -384.097044 
L 82.509124 -384.097044 
L 82.509124 -401.918437 
L 74.160163 -401.918437 
z
" style="stroke: #2e86c1; stroke-opacity: 0.25"/>
    </defs>
    <g clip-path="url(#pc64b055047)">
     <use xlink:href="#m0ea195dc07" x="0" y="424.236562" style="fill: #2e86c1; fill-opacity: 0.25; stroke: #2e86c1; stroke-opacity: 0.25"/>
    </g>
   </g>
   <g id="matplotlib.axis_1">
    <g id="xtick_1">
     <g id="line2d_1">
      <path d="M 74.160163 386.035781 
L 74.160163 22.318125 
" clip-path="url(#pc64b055047)" style="fill: none; stroke: #b0b0b0; stroke-opacity: 0.3; stroke-width: 0.8; stroke-linecap: square"/>
     </g>
     <g id="line2d_2">
      <defs>
       <path id="mbb54441c86" d="M 0 0 
L 0 3.5 
" style="stroke: #000000; stroke-width: 0.8"/>
      </defs>
      <g>
       <use xlink:href="#mbb54441c86" x="74.160163" y="386.035781" style="stroke: #000000; stroke-width: 0.8"/>
      </g>
     </g>
     <g id="text_1">
      <!-- 0 -->
      <g transform="translate(70.978913 400.633438) scale(0.1 -0.1)">
       <defs>
        <path id="DejaVuSans-13" d="M 2034 4250 
Q 1547 4250 1301 3770 
Q 1056 3291 1056 2328 
Q 1056 1369 1301 889 
Q 1547 409 2034 409 
Q 2525 409 2770 889 
Q 3016 1369 3016 2328 
Q 3016 3291 2770 3770 
Q 2525 4250 2034 4250 
z
M 2034 4750 
Q 2819 4750 3233 4129 
Q 3647 3509 3647 2328 
Q 3647 1150 3233 529 
Q 2819 -91 2034 -91 
Q 1250 -91 836 529 
Q 422 1150 422 2328 
Q 422 3509 836 4129 
Q 1250 4750 2034 4750 
z
" transform="scale(0.015625)"/>
       </defs>
       <use xlink:href="#DejaVuSans-13"/>
      </g>
     </g>
    </g>
    <g id="xtick_2">
     <g id="line2d_3">
      <path d="M 157.649766 386.035781 
L 157.649766 22.318125 
" clip-path="url(#pc64b055047)" style="fill: none; stroke: #b0b0b0; stroke-opacity: 0.3; stroke-width: 0.8; stroke-linecap: square"/>
     </g>
     <g id="line2d_4">
      <g>
       <use xlink:href="#mbb54441c86" x="157.649766" y="386.035781" style="stroke: #000000; stroke-width: 0.8"/>
      </g>
     </g>
     <g id="text_2">
      <!-- 10 -->
      <g transform="translate(151.287266 400.633438) scale(0.1 -0.1)">
       <defs>
        <path id="DejaVuSans-14" d="M 794 531 
L 1825 531 
L 1825 4091 
L 703 3866 
L 703 4441 
L 1819 4666 
L 2450 4666 
L 2450 531 
L 3481 531 
L 3481 0 
L 794 0 
L 794 531 
z
" transform="scale(0.015625)"/>
       </defs>
       <use xlink:href="#DejaVuSans-14"/>
       <use xlink:href="#DejaVuSans-13" transform="translate(63.625 0)"/>
      </g>
     </g>
    </g>
    <g id="xtick_3">
     <g id="line2d_5">
      <path d="M 241.139369 386.035781 
L 241.139369 22.318125 
" clip-path="url(#pc64b055047)" style="fill: none; stroke: #b0b0b0; stroke-opacity: 0.3; stroke-width: 0.8; stroke-linecap: square"/>
     </g>
     <g id="line2d_6">
      <g>
       <use xlink:href="#mbb54441c86" x="241.139369" y="386.035781" style="stroke: #000000; stroke-width: 0.8"/>
      </g>
     </g>
     <g id="text_3">
      <!-- 20 -->
      <g transform="translate(234.776869 400.633438) scale(0.1 -0.1)">
       <defs>
        <path id="DejaVuSans-15" d="M 1228 531 
L 3431 531 
L 3431 0 
L 469 0 
L 469 531 
Q 828 903 1448 1529 
Q 2069 2156 2228 2338 
Q 2531 2678 2651 2914 
Q 2772 3150 2772 3378 
Q 2772 3750 2511 3984 
Q 2250 4219 1831 4219 
Q 1534 4219 1204 4116 
Q 875 4013 500 3803 
L 500 4441 
Q 881 4594 1212 4672 
Q 1544 4750 1819 4750 
Q 2544 4750 2975 4387 
Q 3406 4025 3406 3419 
Q 3406 3131 3298 2873 
Q 3191 2616 2906 2266 
Q 2828 2175 2409 1742 
Q 1991 1309 1228 531 
z
" transform="scale(0.015625)"/>
       </defs>
       <use xlink:href="#DejaVuSans-15"/>
       <use xlink:href="#DejaVuSans-13" transform="translate(63.625 0)"/>
      </g>
     </g>
    </g>
    <g id="xtick_4">
     <g id="line2d_7">
      <path d="M 324.628973 386.035781 
L 324.628973 22.318125 
" clip-path="url(#pc64b055047)" style="fill: none; stroke: #b0b0b0; stroke-opacity: 0.3; stroke-width: 0.8; stroke-linecap: square"/>
     </g>
     <g id="line2d_8">
      <g>
       <use xlink:href="#mbb54441c86" x="324.628973" y="386.035781" style="stroke: #000000; stroke-width: 0.8"/>
      </g>
     </g>
     <g id="text_4">
      <!-- 30 -->
      <g transform="translate(318.266473 400.633438) scale(0.1 -0.1)">
       <defs>
        <path id="DejaVuSans-16" d="M 2597 2516 
Q 3050 2419 3304 2112 
Q 3559 1806 3559 1356 
Q 3559 666 3084 287 
Q 2609 -91 1734 -91 
Q 1441 -91 1130 -33 
Q 819 25 488 141 
L 488 750 
Q 750 597 1062 519 
Q 1375 441 1716 441 
Q 2309 441 2620 675 
Q 2931 909 2931 1356 
Q 2931 1769 2642 2001 
Q 2353 2234 1838 2234 
L 1294 2234 
L 1294 2753 
L 1863 2753 
Q 2328 2753 2575 2939 
Q 2822 3125 2822 3475 
Q 2822 3834 2567 4026 
Q 2313 4219 1838 4219 
Q 1578 4219 1281 4162 
Q 984 4106 628 3988 
L 628 4550 
Q 988 4650 1302 4700 
Q 1616 4750 1894 4750 
Q 2613 4750 3031 4423 
Q 3450 4097 3450 3541 
Q 3450 3153 3228 2886 
Q 3006 2619 2597 2516 
z
" transform="scale(0.015625)"/>
       </defs>
       <use xlink:href="#DejaVuSans-16"/>
       <use xlink:href="#DejaVuSans-13" transform="translate(63.625 0)"/>
      </g>
     </g>
    </g>
    <g id="xtick_5">
     <g id="line2d_9">
      <path d="M 408.118576 386.035781 
L 408.118576 22.318125 
" clip-path="url(#pc64b055047)" style="fill: none; stroke: #b0b0b0; stroke-opacity: 0.3; stroke-width: 0.8; stroke-linecap: square"/>
     </g>
     <g id="line2d_10">
      <g>
       <use xlink:href="#mbb54441c86" x="408.118576" y="386.035781" style="stroke: #000000; stroke-width: 0.8"/>
      </g>
     </g>
     <g id="text_5">
      <!-- 40 -->
      <g transform="translate(401.756076 400.633438) scale(0.1 -0.1)">
       <defs>
        <path id="DejaVuSans-17" d="M 2419 4116 
L 825 1625 
L 2419 1625 
L 2419 4116 
z
M 2253 4666 
L 3047 4666 
L 3047 1625 
L 3713 1625 
L 3713 1100 
L 3047 1100 
L 3047 0 
L 2419 0 
L 2419 1100 
L 313 1100 
L 313 1709 
L 2253 4666 
z
" transform="scale(0.015625)"/>
       </defs>
       <use xlink:href="#DejaVuSans-17"/>
       <use xlink:href="#DejaVuSans-13" transform="translate(63.625 0)"/>
      </g>
     </g>
    </g>
    <g id="xtick_6">
     <g id="line2d_11">
      <path d="M 491.608179 386.035781 
L 491.608179 22.318125 
" clip-path="url(#pc64b055047)" style="fill: none; stroke: #b0b0b0; stroke-opacity: 0.3; stroke-width: 0.8; stroke-linecap: square"/>
     </g>
     <g id="line2d_12">
      <g>
       <use xlink:href="#mbb54441c86" x="491.608179" y="386.035781" style="stroke: #000000; stroke-width: 0.8"/>
      </g>
     </g>
     <g id="text_6">
      <!-- 50 -->
      <g transform="translate(485.245679 400.633438) scale(0.1 -0.1)">
       <defs>
        <path id="DejaVuSans-18" d="M 691 4666 
L 3169 4666 
L 3169 4134 
L 1269 4134 
L 1269 2991 
Q 1406 3038 1543 3061 
Q 1681 3084 1819 3084 
Q 2600 3084 3056 2656 
Q 3513 2228 3513 1497 
Q 3513 744 3044 326 
Q 2575 -91 1722 -91 
Q 1428 -91 1123 -41 
Q 819 9 494 109 
L 494 744 
Q 775 591 1075 516 
Q 1375 441 1709 441 
Q 2250 441 2565 725 
Q 2881 1009 2881 1497 
Q 2881 1984 2565 2268 
Q 2250 2553 1709 2553 
Q 1456 2553 1204 2497 
Q 953 2441 691 2322 
L 691 4666 
z
" transform="scale(0.015625)"/>
       </defs>
       <use xlink:href="#DejaVuSans-18"/>
       <use xlink:href="#DejaVuSans-13" transform="translate(63.625 0)"/>
      </g>
     </g>
    </g>
    <g id="xtick_7">
     <g id="line2d_13">
      <path d="M 575.097782 386.035781 
L 575.097782 22.318125 
" clip-path="url(#pc64b055047)" style="fill: none; stroke: #b0b0b0; stroke-opacity: 0.3; stroke-width: 0.8; stroke-linecap: square"/>
     </g>
     <g id="line2d_14">
      <g>
       <use xlink:href="#mbb54441c86" x="575.097782" y="386.035781" style="stroke: #000000; stroke-width: 0.8"/>
      </g>
     </g>
     <g id="text_7">
      <!-- 60 -->
      <g transform="translate(568.735282 400.633438) scale(0.1 -0.1)">
       <defs>
        <path id="DejaVuSans-19" d="M 2113 2584 
Q 1688 2584 1439 2293 
Q 1191 2003 1191 1497 
Q 1191 994 1439 701 
Q 1688 409 2113 409 
Q 2538 409 2786 701 
Q 3034 994 3034 1497 
Q 3034 2003 2786 2293 
Q 2538 2584 2113 2584 
z
M 3366 4563 
L 3366 3988 
Q 3128 4100 2886 4159 
Q 2644 4219 2406 4219 
Q 1781 4219 1451 3797 
Q 1122 3375 1075 2522 
Q 1259 2794 1537 2939 
Q 1816 3084 2150 3084 
Q 2853 3084 3261 2657 
Q 3669 2231 3669 1497 
Q 3669 778 3244 343 
Q 2819 -91 2113 -91 
Q 1303 -91 875 529 
Q 447 1150 447 2328 
Q 447 3434 972 4092 
Q 1497 4750 2381 4750 
Q 2619 4750 2861 4703 
Q 3103 4656 3366 4563 
z
" transform="scale(0.015625)"/>
       </defs>
       <use xlink:href="#DejaVuSans-19"/>
       <use xlink:href="#DejaVuSans-13" transform="translate(63.625 0)"/>
      </g>
     </g>
    </g>
    <g id="xtick_8">
     <g id="line2d_15">
      <path d="M 658.587385 386.035781 
L 658.587385 22.318125 
" clip-path="url(#pc64b055047)" style="fill: none; stroke: #b0b0b0; stroke-opacity: 0.3; stroke-width: 0.8; stroke-linecap: square"/>
     </g>
     <g id="line2d_16">
      <g>
       <use xlink:href="#mbb54441c86" x="658.587385" y="386.035781" style="stroke: #000000; stroke-width: 0.8"/>
      </g>
     </g>
     <g id="text_8">
      <!-- 70 -->
      <g transform="translate(652.224885 400.633438) scale(0.1 -0.1)">
       <defs>
        <path id="DejaVuSans-1a" d="M 525 4666 
L 3525 4666 
L 3525 4397 
L 1831 0 
L 1172 0 
L 2766 4134 
L 525 4134 
L 525 4666 
z
" transform="scale(0.015625)"/>
       </defs>
       <use xlink:href="#DejaVuSans-1a"/>
       <use xlink:href="#DejaVuSans-13" transform="translate(63.625 0)"/>
      </g>
     </g>
    </g>
    <g id="text_9">
     <!-- Time (months) -->
     <g transform="translate(338.164141 414.634219) scale(0.1 -0.1)">
      <defs>
       <path id="DejaVuSans-37" d="M -19 4666 
L 3928 4666 
L 3928 4134 
L 2272 4134 
L 2272 0 
L 1638 0 
L 1638 4134 
L -19 4134 
L -19 4666 
z
" transform="scale(0.015625)"/>
       <path id="DejaVuSans-4c" d="M 603 3500 
L 1178 3500 
L 1178 0 
L 603 0 
L 603 3500 
z
M 603 4863 
L 1178 4863 
L 1178 4134 
L 603 4134 
L 603 4863 
z
" transform="scale(0.015625)"/>
       <path id="DejaVuSans-50" d="M 3328 2828 
Q 3544 3216 3844 3400 
Q 4144 3584 4550 3584 
Q 5097 3584 5394 3201 
Q 5691 2819 5691 2113 
L 5691 0 
L 5113 0 
L 5113 2094 
Q 5113 2597 4934 2840 
Q 4756 3084 4391 3084 
Q 3944 3084 3684 2787 
Q 3425 2491 3425 1978 
L 3425 0 
L 2847 0 
L 2847 2094 
Q 2847 2600 2669 2842 
Q 2491 3084 2119 3084 
Q 1678 3084 1418 2786 
Q 1159 2488 1159 1978 
L 1159 0 
L 581 0 
L 581 3500 
L 1159 3500 
L 1159 2956 
Q 1356 3278 1631 3431 
Q 1906 3584 2284 3584 
Q 2666 3584 2933 3390 
Q 3200 3197 3328 2828 
z
" transform="scale(0.015625)"/>
       <path id="DejaVuSans-48" d="M 3597 1894 
L 3597 1613 
L 953 1613 
Q 991 1019 1311 708 
Q 1631 397 2203 397 
Q 2534 397 2845 478 
Q 3156 559 3463 722 
L 3463 178 
Q 3153 47 2828 -22 
Q 2503 -91 2169 -91 
Q 1331 -91 842 396 
Q 353 884 353 1716 
Q 353 2575 817 3079 
Q 1281 3584 2069 3584 
Q 2775 3584 3186 3129 
Q 3597 2675 3597 1894 
z
M 3022 2063 
Q 3016 2534 2758 2815 
Q 2500 3097 2075 3097 
Q 1594 3097 1305 2825 
Q 1016 2553 972 2059 
L 3022 2063 
z
" transform="scale(0.015625)"/>
       <path id="DejaVuSans-3" transform="scale(0.015625)"/>
       <path id="DejaVuSans-b" d="M 1984 4856 
Q 1566 4138 1362 3434 
Q 1159 2731 1159 2009 
Q 1159 1288 1364 580 
Q 1569 -128 1984 -844 
L 1484 -844 
Q 1016 -109 783 600 
Q 550 1309 550 2009 
Q 550 2706 781 3412 
Q 1013 4119 1484 4856 
L 1984 4856 
z
" transform="scale(0.015625)"/>
       <path id="DejaVuSans-52" d="M 1959 3097 
Q 1497 3097 1228 2736 
Q 959 2375 959 1747 
Q 959 1119 1226 758 
Q 1494 397 1959 397 
Q 2419 397 2687 759 
Q 2956 1122 2956 1747 
Q 2956 2369 2687 2733 
Q 2419 3097 1959 3097 
z
M 1959 3584 
Q 2709 3584 3137 3096 
Q 3566 2609 3566 1747 
Q 3566 888 3137 398 
Q 2709 -91 1959 -91 
Q 1206 -91 779 398 
Q 353 888 353 1747 
Q 353 2609 779 3096 
Q 1206 3584 1959 3584 
z
" transform="scale(0.015625)"/>
       <path id="DejaVuSans-51" d="M 3513 2113 
L 3513 0 
L 2938 0 
L 2938 2094 
Q 2938 2591 2744 2837 
Q 2550 3084 2163 3084 
Q 1697 3084 1428 2787 
Q 1159 2491 1159 1978 
L 1159 0 
L 581 0 
L 581 3500 
L 1159 3500 
L 1159 2956 
Q 1366 3272 1645 3428 
Q 1925 3584 2291 3584 
Q 2894 3584 3203 3211 
Q 3513 2838 3513 2113 
z
" transform="scale(0.015625)"/>
       <path id="DejaVuSans-57" d="M 1172 4494 
L 1172 3500 
L 2356 3500 
L 2356 3053 
L 1172 3053 
L 1172 1153 
Q 1172 725 1289 603 
Q 1406 481 1766 481 
L 2356 481 
L 2356 0 
L 1766 0 
Q 1100 0 847 248 
Q 594 497 594 1153 
L 594 3053 
L 172 3053 
L 172 3500 
L 594 3500 
L 594 4494 
L 1172 4494 
z
" transform="scale(0.015625)"/>
       <path id="DejaVuSans-4b" d="M 3513 2113 
L 3513 0 
L 2938 0 
L 2938 2094 
Q 2938 2591 2744 2837 
Q 2550 3084 2163 3084 
Q 1697 3084 1428 2787 
Q 1159 2491 1159 1978 
L 1159 0 
L 581 0 
L 581 4863 
L 1159 4863 
L 1159 2956 
Q 1366 3272 1645 3428 
Q 1925 3584 2291 3584 
Q 2894 3584 3203 3211 
Q 3513 2838 3513 2113 
z
" transform="scale(0.015625)"/>
       <path id="DejaVuSans-56" d="M 2834 3397 
L 2834 2853 
Q 2591 2978 2328 3040 
Q 2066 3103 1784 3103 
Q 1356 3103 1142 2972 
Q 928 2841 928 2578 
Q 928 2378 1081 2264 
Q 1234 2150 1697 2047 
L 1894 2003 
Q 2506 1872 2764 1633 
Q 3022 1394 3022 966 
Q 3022 478 2636 193 
Q 2250 -91 1575 -91 
Q 1294 -91 989 -36 
Q 684 19 347 128 
L 347 722 
Q 666 556 975 473 
Q 1284 391 1588 391 
Q 1994 391 2212 530 
Q 2431 669 2431 922 
Q 2431 1156 2273 1281 
Q 2116 1406 1581 1522 
L 1381 1569 
Q 847 1681 609 1914 
Q 372 2147 372 2553 
Q 372 3047 722 3315 
Q 1072 3584 1716 3584 
Q 2034 3584 2315 3537 
Q 2597 3491 2834 3397 
z
" transform="scale(0.015625)"/>
       <path id="DejaVuSans-c" d="M 513 4856 
L 1013 4856 
Q 1481 4119 1714 3412 
Q 1947 2706 1947 2009 
Q 1947 1309 1714 600 
Q 1481 -109 1013 -844 
L 513 -844 
Q 928 -128 1133 580 
Q 1338 1288 1338 2009 
Q 1338 2731 1133 3434 
Q 928 4138 513 4856 
z
" transform="scale(0.015625)"/>
      </defs>
      <use xlink:href="#DejaVuSans-37"/>
      <use xlink:href="#DejaVuSans-4c" transform="translate(58 0)"/>
      <use xlink:href="#DejaVuSans-50" transform="translate(85.78125 0)"/>
      <use xlink:href="#DejaVuSans-48" transform="translate(183.1875 0)"/>
      <use xlink:href="#DejaVuSans-3" transform="translate(244.71875 0)"/>
      <use xlink:href="#DejaVuSans-b" transform="translate(276.5 0)"/>
      <use xlink:href="#DejaVuSans-50" transform="translate(315.515625 0)"/>
      <use xlink:href="#DejaVuSans-52" transform="translate(412.921875 0)"/>
      <use xlink:href="#DejaVuSans-51" transform="translate(474.109375 0)"/>
      <use xlink:href="#DejaVuSans-57" transform="translate(537.484375 0)"/>
      <use xlink:href="#DejaVuSans-4b" transform="translate(576.6875 0)"/>
      <use xlink:href="#DejaVuSans-56" transform="translate(640.0625 0)"/>
      <use xlink:href="#DejaVuSans-c" transform="translate(692.15625 0)"/>
     </g>
    </g>
   </g>
   <g id="matplotlib.axis_2">
    <g id="ytick_1">
     <g id="line2d_17">
      <path d="M 44.103906 386.035781 
L 705.341563 386.035781 
" clip-path="url(#pc64b055047)" style="fill: none; stroke: #b0b0b0; stroke-opacity: 0.3; stroke-width: 0.8; stroke-linecap: square"/>
     </g>
     <g id="line2d_18">
      <defs>
       <path id="m1c45d9f312" d="M 0 0 
L -3.5 0 
" style="stroke: #000000; stroke-width: 0.8"/>
      </defs>
      <g>
       <use xlink:href="#m1c45d9f312" x="44.103906" y="386.035781" style="stroke: #000000; stroke-width: 0.8"/>
      </g>
     </g>
     <g id="text_10">
      <!-- 0.0 -->
      <g transform="translate(21.200781 389.834609) scale(0.1 -0.1)">
       <defs>
        <path id="DejaVuSans-11" d="M 684 794 
L 1344 794 
L 1344 0 
L 684 0 
L 684 794 
z
" transform="scale(0.015625)"/>
       </defs>
       <use xlink:href="#DejaVuSans-13"/>
       <use xlink:href="#DejaVuSans-11" transform="translate(63.625 0)"/>
       <use xlink:href="#DejaVuSans-13" transform="translate(95.40625 0)"/>
      </g>
     </g>
    </g>
    <g id="ytick_2">
     <g id="line2d_19">
      <path d="M 44.103906 313.29225 
L 705.341563 313.29225 
" clip-path="url(#pc64b055047)" style="fill: none; stroke: #b0b0b0; stroke-opacity: 0.3; stroke-width: 0.8; stroke-linecap: square"/>
     </g>
     <g id="line2d_20">
      <g>
       <use xlink:href="#m1c45d9f312" x="44.103906" y="313.29225" style="stroke: #000000; stroke-width: 0.8"/>
      </g>
     </g>
     <g id="text_11">
      <!-- 0.2 -->
      <g transform="translate(21.200781 317.091078) scale(0.1 -0.1)">
       <use xlink:href="#DejaVuSans-13"/>
       <use xlink:href="#DejaVuSans-11" transform="translate(63.625 0)"/>
       <use xlink:href="#DejaVuSans-15" transform="translate(95.40625 0)"/>
      </g>
     </g>
    </g>
    <g id="ytick_3">
     <g id="line2d_21">
      <path d="M 44.103906 240.548719 
L 705.341563 240.548719 
" clip-path="url(#pc64b055047)" style="fill: none; stroke: #b0b0b0; stroke-opacity: 0.3; stroke-width: 0.8; stroke-linecap: square"/>
     </g>
     <g id="line2d_22">
      <g>
       <use xlink:href="#m1c45d9f312" x="44.103906" y="240.548719" style="stroke: #000000; stroke-width: 0.8"/>
      </g>
     </g>
     <g id="text_12">
      <!-- 0.4 -->
      <g transform="translate(21.200781 244.347547) scale(0.1 -0.1)">
       <use xlink:href="#DejaVuSans-13"/>
       <use xlink:href="#DejaVuSans-11" transform="translate(63.625 0)"/>
       <use xlink:href="#DejaVuSans-17" transform="translate(95.40625 0)"/>
      </g>
     </g>
    </g>
    <g id="ytick_4">
     <g id="line2d_23">
      <path d="M 44.103906 167.805187 
L 705.341563 167.805187 
" clip-path="url(#pc64b055047)" style="fill: none; stroke: #b0b0b0; stroke-opacity: 0.3; stroke-width: 0.8; stroke-linecap: square"/>
     </g>
     <g id="line2d_24">
      <g>
       <use xlink:href="#m1c45d9f312" x="44.103906" y="167.805187" style="stroke: #000000; stroke-width: 0.8"/>
      </g>
     </g>
     <g id="text_13">
      <!-- 0.6 -->
      <g transform="translate(21.200781 171.604016) scale(0.1 -0.1)">
       <use xlink:href="#DejaVuSans-13"/>
       <use xlink:href="#DejaVuSans-11" transform="translate(63.625 0)"/>
       <use xlink:href="#DejaVuSans-19" transform="translate(95.40625 0)"/>
      </g>
     </g>
    </g>
    <g id="ytick_5">
     <g id="line2d_25">
      <path d="M 44.103906 95.061656 
L 705.341563 95.061656 
" clip-path="url(#pc64b055047)" style="fill: none; stroke: #b0b0b0; stroke-opacity: 0.3; stroke-width: 0.8; stroke-linecap: square"/>
     </g>
     <g id="line2d_26">
      <g>
       <use xlink:href="#m1c45d9f312" x="44.103906" y="95.061656" style="stroke: #000000; stroke-width: 0.8"/>
      </g>
     </g>
     <g id="text_14">
      <!-- 0.8 -->
      <g transform="translate(21.200781 98.860484) scale(0.1 -0.1)">
       <defs>
        <path id="DejaVuSans-1b" d="M 2034 2216 
Q 1584 2216 1326 1975 
Q 1069 1734 1069 1313 
Q 1069 891 1326 650 
Q 1584 409 2034 409 
Q 2484 409 2743 651 
Q 3003 894 3003 1313 
Q 3003 1734 2745 1975 
Q 2488 2216 2034 2216 
z
M 1403 2484 
Q 997 2584 770 2862 
Q 544 3141 544 3541 
Q 544 4100 942 4425 
Q 1341 4750 2034 4750 
Q 2731 4750 3128 4425 
Q 3525 4100 3525 3541 
Q 3525 3141 3298 2862 
Q 3072 2584 2669 2484 
Q 3125 2378 3379 2068 
Q 3634 1759 3634 1313 
Q 3634 634 3220 271 
Q 2806 -91 2034 -91 
Q 1263 -91 848 271 
Q 434 634 434 1313 
Q 434 1759 690 2068 
Q 947 2378 1403 2484 
z
M 1172 3481 
Q 1172 3119 1398 2916 
Q 1625 2713 2034 2713 
Q 2441 2713 2670 2916 
Q 2900 3119 2900 3481 
Q 2900 3844 2670 4047 
Q 2441 4250 2034 4250 
Q 1625 4250 1398 4047 
Q 1172 3844 1172 3481 
z
" transform="scale(0.015625)"/>
       </defs>
       <use xlink:href="#DejaVuSans-13"/>
       <use xlink:href="#DejaVuSans-11" transform="translate(63.625 0)"/>
       <use xlink:href="#DejaVuSans-1b" transform="translate(95.40625 0)"/>
      </g>
     </g>
    </g>
    <g id="ytick_6">
     <g id="line2d_27">
      <path d="M 44.103906 22.318125 
L 705.341563 22.318125 
" clip-path="url(#pc64b055047)" style="fill: none; stroke: #b0b0b0; stroke-opacity: 0.3; stroke-width: 0.8; stroke-linecap: square"/>
     </g>
     <g id="line2d_28">
      <g>
       <use xlink:href="#m1c45d9f312" x="44.103906" y="22.318125" style="stroke: #000000; stroke-width: 0.8"/>
      </g>
     </g>
     <g id="text_15">
      <!-- 1.0 -->
      <g transform="translate(21.200781 26.116953) scale(0.1 -0.1)">
       <use xlink:href="#DejaVuSans-14"/>
       <use xlink:href="#DejaVuSans-11" transform="translate(63.625 0)"/>
       <use xlink:href="#DejaVuSans-13" transform="translate(95.40625 0)"/>
      </g>
     </g>
    </g>
    <g id="text_16">
     <!-- Survival Probability -->
     <g transform="translate(14.798438 252.356641) rotate(-90) scale(0.1 -0.1)">
      <defs>
       <path id="DejaVuSans-36" d="M 3425 4513 
L 3425 3897 
Q 3066 4069 2747 4153 
Q 2428 4238 2131 4238 
Q 1616 4238 1336 4038 
Q 1056 3838 1056 3469 
Q 1056 3159 1242 3001 
Q 1428 2844 1947 2747 
L 2328 2669 
Q 3034 2534 3370 2195 
Q 3706 1856 3706 1288 
Q 3706 609 3251 259 
Q 2797 -91 1919 -91 
Q 1588 -91 1214 -16 
Q 841 59 441 206 
L 441 856 
Q 825 641 1194 531 
Q 1563 422 1919 422 
Q 2459 422 2753 634 
Q 3047 847 3047 1241 
Q 3047 1584 2836 1778 
Q 2625 1972 2144 2069 
L 1759 2144 
Q 1053 2284 737 2584 
Q 422 2884 422 3419 
Q 422 4038 858 4394 
Q 1294 4750 2059 4750 
Q 2388 4750 2728 4690 
Q 3069 4631 3425 4513 
z
" transform="scale(0.015625)"/>
       <path id="DejaVuSans-58" d="M 544 1381 
L 544 3500 
L 1119 3500 
L 1119 1403 
Q 1119 906 1312 657 
Q 1506 409 1894 409 
Q 2359 409 2629 706 
Q 2900 1003 2900 1516 
L 2900 3500 
L 3475 3500 
L 3475 0 
L 2900 0 
L 2900 538 
Q 2691 219 2414 64 
Q 2138 -91 1772 -91 
Q 1169 -91 856 284 
Q 544 659 544 1381 
z
M 1991 3584 
L 1991 3584 
z
" transform="scale(0.015625)"/>
       <path id="DejaVuSans-55" d="M 2631 2963 
Q 2534 3019 2420 3045 
Q 2306 3072 2169 3072 
Q 1681 3072 1420 2755 
Q 1159 2438 1159 1844 
L 1159 0 
L 581 0 
L 581 3500 
L 1159 3500 
L 1159 2956 
Q 1341 3275 1631 3429 
Q 1922 3584 2338 3584 
Q 2397 3584 2469 3576 
Q 2541 3569 2628 3553 
L 2631 2963 
z
" transform="scale(0.015625)"/>
       <path id="DejaVuSans-59" d="M 191 3500 
L 800 3500 
L 1894 563 
L 2988 3500 
L 3597 3500 
L 2284 0 
L 1503 0 
L 191 3500 
z
" transform="scale(0.015625)"/>
       <path id="DejaVuSans-44" d="M 2194 1759 
Q 1497 1759 1228 1600 
Q 959 1441 959 1056 
Q 959 750 1161 570 
Q 1363 391 1709 391 
Q 2188 391 2477 730 
Q 2766 1069 2766 1631 
L 2766 1759 
L 2194 1759 
z
M 3341 1997 
L 3341 0 
L 2766 0 
L 2766 531 
Q 2569 213 2275 61 
Q 1981 -91 1556 -91 
Q 1019 -91 701 211 
Q 384 513 384 1019 
Q 384 1609 779 1909 
Q 1175 2209 1959 2209 
L 2766 2209 
L 2766 2266 
Q 2766 2663 2505 2880 
Q 2244 3097 1772 3097 
Q 1472 3097 1187 3025 
Q 903 2953 641 2809 
L 641 3341 
Q 956 3463 1253 3523 
Q 1550 3584 1831 3584 
Q 2591 3584 2966 3190 
Q 3341 2797 3341 1997 
z
" transform="scale(0.015625)"/>
       <path id="DejaVuSans-4f" d="M 603 4863 
L 1178 4863 
L 1178 0 
L 603 0 
L 603 4863 
z
" transform="scale(0.015625)"/>
       <path id="DejaVuSans-33" d="M 1259 4147 
L 1259 2394 
L 2053 2394 
Q 2494 2394 2734 2622 
Q 2975 2850 2975 3272 
Q 2975 3691 2734 3919 
Q 2494 4147 2053 4147 
L 1259 4147 
z
M 628 4666 
L 2053 4666 
Q 2838 4666 3239 4311 
Q 3641 3956 3641 3272 
Q 3641 2581 3239 2228 
Q 2838 1875 2053 1875 
L 1259 1875 
L 1259 0 
L 628 0 
L 628 4666 
z
" transform="scale(0.015625)"/>
       <path id="DejaVuSans-45" d="M 3116 1747 
Q 3116 2381 2855 2742 
Q 2594 3103 2138 3103 
Q 1681 3103 1420 2742 
Q 1159 2381 1159 1747 
Q 1159 1113 1420 752 
Q 1681 391 2138 391 
Q 2594 391 2855 752 
Q 3116 1113 3116 1747 
z
M 1159 2969 
Q 1341 3281 1617 3432 
Q 1894 3584 2278 3584 
Q 2916 3584 3314 3078 
Q 3713 2572 3713 1747 
Q 3713 922 3314 415 
Q 2916 -91 2278 -91 
Q 1894 -91 1617 61 
Q 1341 213 1159 525 
L 1159 0 
L 581 0 
L 581 4863 
L 1159 4863 
L 1159 2969 
z
" transform="scale(0.015625)"/>
       <path id="DejaVuSans-5c" d="M 2059 -325 
Q 1816 -950 1584 -1140 
Q 1353 -1331 966 -1331 
L 506 -1331 
L 506 -850 
L 844 -850 
Q 1081 -850 1212 -737 
Q 1344 -625 1503 -206 
L 1606 56 
L 191 3500 
L 800 3500 
L 1894 763 
L 2988 3500 
L 3597 3500 
L 2059 -325 
z
" transform="scale(0.015625)"/>
      </defs>
      <use xlink:href="#DejaVuSans-36"/>
      <use xlink:href="#DejaVuSans-58" transform="translate(63.484375 0)"/>
      <use xlink:href="#DejaVuSans-55" transform="translate(126.859375 0)"/>
      <use xlink:href="#DejaVuSans-59" transform="translate(167.96875 0)"/>
      <use xlink:href="#DejaVuSans-4c" transform="translate(227.15625 0)"/>
      <use xlink:href="#DejaVuSans-59" transform="translate(254.9375 0)"/>
      <use xlink:href="#DejaVuSans-44" transform="translate(314.125 0)"/>
      <use xlink:href="#DejaVuSans-4f" transform="translate(375.40625 0)"/>
      <use xlink:href="#DejaVuSans-3" transform="translate(403.1875 0)"/>
      <use xlink:href="#DejaVuSans-33" transform="translate(434.96875 0)"/>
      <use xlink:href="#DejaVuSans-55" transform="translate(493.515625 0)"/>
      <use xlink:href="#DejaVuSans-52" transform="translate(532.421875 0)"/>
      <use xlink:href="#DejaVuSans-45" transform="translate(593.609375 0)"/>
      <use xlink:href="#DejaVuSans-44" transform="translate(657.09375 0)"/>
      <use xlink:href="#DejaVuSans-45" transform="translate(718.375 0)"/>
      <use xlink:href="#DejaVuSans-4c" transform="translate(781.859375 0)"/>
      <use xlink:href="#DejaVuSans-4f" transform="translate(809.640625 0)"/>
      <use xlink:href="#DejaVuSans-4c" transform="translate(837.421875 0)"/>
      <use xlink:href="#DejaVuSans-57" transform="translate(865.203125 0)"/>
      <use xlink:href="#DejaVuSans-5c" transform="translate(904.40625 0)"/>
     </g>
    </g>
   </g>
   <g id="line2d_29">
    <path d="M 74.160163 22.318125 
L 82.509124 22.318125 
L 82.509124 41.972947 
L 90.858084 41.972947 
L 90.858084 48.565832 
L 99.207044 48.565832 
L 99.207044 53.69804 
L 107.556005 53.69804 
L 107.556005 58.309983 
L 115.904965 58.309983 
L 115.904965 61.923153 
L 124.253925 61.923153 
L 124.253925 64.208855 
L 132.602885 64.208855 
L 132.602885 67.159804 
L 140.951846 67.159804 
L 140.951846 69.625793 
L 149.300806 69.625793 
L 149.300806 72.367854 
L 157.649766 72.367854 
L 157.649766 75.088043 
L 165.998727 75.088043 
L 165.998727 76.988177 
L 174.347687 76.988177 
L 174.347687 79.349216 
L 182.696647 79.349216 
L 182.696647 81.748658 
L 191.045608 81.748658 
L 191.045608 83.286756 
L 199.394568 83.286756 
L 199.394568 85.684383 
L 207.743528 85.684383 
L 207.743528 87.523403 
L 216.092489 87.523403 
L 216.092489 89.250829 
L 224.441449 89.250829 
L 224.441449 90.867451 
L 232.790409 90.867451 
L 232.790409 92.168959 
L 241.139369 92.168959 
L 241.139369 93.417685 
L 249.48833 93.417685 
L 249.48833 94.612045 
L 257.83729 94.612045 
L 257.83729 96.530241 
L 266.18625 96.530241 
L 266.18625 97.46832 
L 274.535211 97.46832 
L 274.535211 99.158427 
L 282.884171 99.158427 
L 282.884171 100.879841 
L 291.233131 100.879841 
L 291.233131 102.019249 
L 299.582092 102.019249 
L 299.582092 103.023934 
L 307.931052 103.023934 
L 307.931052 103.966521 
L 316.280012 103.966521 
L 316.280012 105.159707 
L 324.628973 105.159707 
L 324.628973 106.453322 
L 332.977933 106.453322 
L 332.977933 107.768231 
L 341.326893 107.768231 
L 341.326893 109.352613 
L 349.675853 109.352613 
L 349.675853 110.537914 
L 358.024814 110.537914 
L 358.024814 111.569741 
L 366.373774 111.569741 
L 366.373774 112.881302 
L 374.722734 112.881302 
L 374.722734 113.776597 
L 383.071695 113.776597 
L 383.071695 115.13744 
L 391.420655 115.13744 
L 391.420655 116.336921 
L 399.769615 116.336921 
L 399.769615 117.649325 
L 408.118576 117.649325 
L 408.118576 118.886129 
L 416.467536 118.886129 
L 416.467536 120.24271 
L 424.816496 120.24271 
L 424.816496 121.627564 
L 433.165457 121.627564 
L 433.165457 123.140197 
L 441.514417 123.140197 
L 441.514417 123.757081 
L 449.863377 123.757081 
L 449.863377 124.385043 
L 458.212337 124.385043 
L 458.212337 125.669219 
L 466.561298 125.669219 
L 466.561298 127.2066 
L 474.910258 127.2066 
L 474.910258 128.218091 
L 483.259218 128.218091 
L 483.259218 129.94532 
L 491.608179 129.94532 
L 491.608179 131.123831 
L 499.957139 131.123831 
L 499.957139 132.092617 
L 508.306099 132.092617 
L 508.306099 133.089939 
L 516.65506 133.089939 
L 516.65506 134.899465 
L 525.00402 134.899465 
L 525.00402 136.629604 
L 533.35298 136.629604 
L 533.35298 137.863609 
L 541.70194 137.863609 
L 541.70194 139.277696 
L 550.050901 139.277696 
L 550.050901 140.456242 
L 558.399861 140.456242 
L 558.399861 142.134114 
L 566.748821 142.134114 
L 566.748821 143.398673 
L 575.097782 143.398673 
L 575.097782 144.380347 
L 583.446742 144.380347 
L 583.446742 145.754365 
L 591.795702 145.754365 
L 591.795702 146.657 
L 600.144663 146.657 
L 600.144663 147.41633 
L 608.493623 147.41633 
L 608.493623 148.219087 
L 616.842583 148.219087 
L 616.842583 150.149069 
L 625.191544 150.149069 
L 625.191544 153.117633 
L 633.540504 153.117633 
L 633.540504 155.584987 
L 641.889464 155.584987 
L 641.889464 158.036591 
L 650.238424 158.036591 
L 650.238424 160.481622 
L 658.587385 160.481622 
L 658.587385 164.292829 
L 666.936345 164.292829 
L 666.936345 166.79369 
L 675.285305 166.79369 
L 675.285305 170.427536 
L 675.285305 170.427536 
" clip-path="url(#pc64b055047)" style="fill: none; stroke: #2e86c1; stroke-width: 2; stroke-linecap: square"/>
   </g>
   <g id="patch_3">
    <path d="M 44.103906 386.035781 
L 44.103906 22.318125 
" style="fill: none; stroke: #000000; stroke-width: 0.8; stroke-linejoin: miter; stroke-linecap: square"/>
   </g>
   <g id="patch_4">
    <path d="M 705.341563 386.035781 
L 705.341563 22.318125 
" style="fill: none; stroke: #000000; stroke-width: 0.8; stroke-linejoin: miter; stroke-linecap: square"/>
   </g>
   <g id="patch_5">
    <path d="M 44.103906 386.035781 
L 705.341563 386.035781 
" style="fill: none; stroke: #000000; stroke-width: 0.8; stroke-linejoin: miter; stroke-linecap: square"/>
   </g>
   <g id="patch_6">
    <path d="M 44.103906 22.318125 
L 705.341563 22.318125 
" style="fill: none; stroke: #000000; stroke-width: 0.8; stroke-linejoin: miter; stroke-linecap: square"/>
   </g>
   <g id="text_17">
    <!-- Kaplan-Meier Survival Curves -->
    <g transform="translate(286.569609 16.318125) scale(0.12 -0.12)">
     <defs>
      <path id="DejaVuSans-2e" d="M 628 4666 
L 1259 4666 
L 1259 2694 
L 3353 4666 
L 4166 4666 
L 1850 2491 
L 4331 0 
L 3500 0 
L 1259 2247 
L 1259 0 
L 628 0 
L 628 4666 
z
" transform="scale(0.015625)"/>
      <path id="DejaVuSans-53" d="M 1159 525 
L 1159 -1331 
L 581 -1331 
L 581 3500 
L 1159 3500 
L 1159 2969 
Q 1341 3281 1617 3432 
Q 1894 3584 2278 3584 
Q 2916 3584 3314 3078 
Q 3713 2572 3713 1747 
Q 3713 922 3314 415 
Q 2916 -91 2278 -91 
Q 1894 -91 1617 61 
Q 1341 213 1159 525 
z
M 3116 1747 
Q 3116 2381 2855 2742 
Q 2594 3103 2138 3103 
Q 1681 3103 1420 2742 
Q 1159 2381 1159 1747 
Q 1159 1113 1420 752 
Q 1681 391 2138 391 
Q 2594 391 2855 752 
Q 3116 1113 3116 1747 
z
" transform="scale(0.015625)"/>
      <path id="DejaVuSans-10" d="M 313 2009 
L 1997 2009 
L 1997 1497 
L 313 1497 
L 313 2009 
z
" transform="scale(0.015625)"/>
      <path id="DejaVuSans-30" d="M 628 4666 
L 1569 4666 
L 2759 1491 
L 3956 4666 
L 4897 4666 
L 4897 0 
L 4281 0 
L 4281 4097 
L 3078 897 
L 2444 897 
L 1241 4097 
L 1241 0 
L 628 0 
L 628 4666 
z
" transform="scale(0.015625)"/>
      <path id="DejaVuSans-26" d="M 4122 4306 
L 4122 3641 
Q 3803 3938 3442 4084 
Q 3081 4231 2675 4231 
Q 1875 4231 1450 3742 
Q 1025 3253 1025 2328 
Q 1025 1406 1450 917 
Q 1875 428 2675 428 
Q 3081 428 3442 575 
Q 3803 722 4122 1019 
L 4122 359 
Q 3791 134 3420 21 
Q 3050 -91 2638 -91 
Q 1578 -91 968 557 
Q 359 1206 359 2328 
Q 359 3453 968 4101 
Q 1578 4750 2638 4750 
Q 3056 4750 3426 4639 
Q 3797 4528 4122 4306 
z
" transform="scale(0.015625)"/>
     </defs>
     <use xlink:href="#DejaVuSans-2e"/>
     <use xlink:href="#DejaVuSans-44" transform="translate(63.828125 0)"/>
     <use xlink:href="#DejaVuSans-53" transform="translate(125.109375 0)"/>
     <use xlink:href="#DejaVuSans-4f" transform="translate(188.59375 0)"/>
     <use xlink:href="#DejaVuSans-44" transform="translate(216.375 0)"/>
     <use xlink:href="#DejaVuSans-51" transform="translate(277.65625 0)"/>
     <use xlink:href="#DejaVuSans-10" transform="translate(341.03125 0)"/>
     <use xlink:href="#DejaVuSans-30" transform="translate(377.109375 0)"/>
     <use xlink:href="#DejaVuSans-48" transform="translate(463.390625 0)"/>
     <use xlink:href="#DejaVuSans-4c" transform="translate(524.921875 0)"/>
     <use xlink:href="#DejaVuSans-48" transform="translate(552.703125 0)"/>
     <use xlink:href="#DejaVuSans-55" transform="translate(614.234375 0)"/>
     <use xlink:href="#DejaVuSans-3" transform="translate(655.34375 0)"/>
     <use xlink:href="#DejaVuSans-36" transform="translate(687.125 0)"/>
     <use xlink:href="#DejaVuSans-58" transform="translate(750.609375 0)"/>
     <use xlink:href="#DejaVuSans-55" transform="translate(813.984375 0)"/>
     <use xlink:href="#DejaVuSans-59" transform="translate(855.09375 0)"/>
     <use xlink:href="#DejaVuSans-4c" transform="translate(914.28125 0)"/>
     <use xlink:href="#DejaVuSans-59" transform="translate(942.0625 0)"/>
     <use xlink:href="#DejaVuSans-44" transform="translate(1001.25 0)"/>
     <use xlink:href="#DejaVuSans-4f" transform="translate(1062.53125 0)"/>
     <use xlink:href="#DejaVuSans-3" transform="translate(1090.3125 0)"/>
     <use xlink:href="#DejaVuSans-26" transform="translate(1122.09375 0)"/>
     <use xlink:href="#DejaVuSans-58" transform="translate(1191.921875 0)"/>
     <use xlink:href="#DejaVuSans-55" transform="translate(1255.296875 0)"/>
     <use xlink:href="#DejaVuSans-59" transform="translate(1296.40625 0)"/>
     <use xlink:href="#DejaVuSans-48" transform="translate(1355.59375 0)"/>
     <use xlink:href="#DejaVuSans-56" transform="translate(1417.125 0)"/>
    </g>
   </g>
   <g id="legend_1">
    <g id="patch_7">
     <path d="M 607.819531 43.018828 
L 699.041563 43.018828 
Q 700.841563 43.018828 700.841563 41.218828 
L 700.841563 28.618125 
Q 700.841563 26.818125 699.041563 26.818125 
L 607.819531 26.818125 
Q 606.019531 26.818125 606.019531 28.618125 
L 606.019531 41.218828 
Q 606.019531 43.018828 607.819531 43.018828 
z
" style="fill: #ffffff; opacity: 0.8; stroke: #cccccc; stroke-linejoin: miter"/>
    </g>
    <g id="line2d_30">
     <path d="M 609.619531 34.106719 
L 618.619531 34.106719 
L 618.619531 34.106719 
L 627.619531 34.106719 
L 627.619531 34.106719 
" style="fill: none; stroke: #2e86c1; stroke-width: 2; stroke-linecap: square"/>
    </g>
    <g id="text_18">
     <!-- All Customers -->
     <g transform="translate(634.819531 37.256719) scale(0.09 -0.09)">
      <defs>
       <path id="DejaVuSans-24" d="M 2188 4044 
L 1331 1722 
L 3047 1722 
L 2188 4044 
z
M 1831 4666 
L 2547 4666 
L 4325 0 
L 3669 0 
L 3244 1197 
L 1141 1197 
L 716 0 
L 50 0 
L 1831 4666 
z
" transform="scale(0.015625)"/>
      </defs>
      <use xlink:href="#DejaVuSans-24"/>
      <use xlink:href="#DejaVuSans-4f" transform="translate(68.40625 0)"/>
      <use xlink:href="#DejaVuSans-4f" transform="translate(96.1875 0)"/>
      <use xlink:href="#DejaVuSans-3" transform="translate(123.96875 0)"/>
      <use xlink:href="#DejaVuSans-26" transform="translate(155.75 0)"/>
      <use xlink:href="#DejaVuSans-58" transform="translate(225.578125 0)"/>
      <use xlink:href="#DejaVuSans-56" transform="translate(288.953125 0)"/>
      <use xlink:href="#DejaVuSans-57" transform="translate(341.046875 0)"/>
      <use xlink:href="#DejaVuSans-52" transform="translate(380.25 0)"/>
      <use xlink:href="#DejaVuSans-50" transform="translate(441.4375 0)"/>
      <use xlink:href="#DejaVuSans-48" transform="translate(538.84375 0)"/>
      <use xlink:href="#DejaVuSans-55" transform="translate(600.375 0)"/>
      <use xlink:href="#DejaVuSans-56" transform="translate(641.484375 0)"/>
     </g>
    </g>
   </g>
  </g>
 </g>
 <defs>
  <clipPath id="pc64b055047">
   <rect x="44.103906" y="22.318125" width="661.237656" height="363.717656"/>
  </clipPath>
 </defs>
</svg>
