<?xml version="1.0" encoding="utf-8" standalone="no"?>
<!DOCTYPE svg PUBLIC "-//W3C//DTD SVG 1.1//EN"
  "http://www.w3.org/Graphics/SVG/1.1/DTD/svg11.dtd">
<svg xmlns:xlink="http://www.w3.org/1999/xlink" width="713.8275pt" height="393.202656pt" viewBox="0 0 713.8275 393.202656" xmlns="http://www.w3.org/2000/svg" version="1.1">
 <metadata>
  <rdf:RDF xmlns:dc="http://purl.org/dc/elements/1.1/" xmlns:cc="http://creativecommons.org/ns#" xmlns:rdf="http://www.w3.org/1999/02/22-rdf-syntax-ns#">
   <cc:Work>
    <dc:type rdf:resource="http://purl.org/dc/dcmitype/StillImage"/>
    <dc:date>2026-07-15T11:31:00.712252</dc:date>
    <dc:format>image/svg+xml</dc:format>
    <dc:creator>
     <cc:Agent>
      <dc:title>Matplotlib v3.11.0, https://matplotlib.org/</dc:title>
     </cc:Agent>
    </dc:creator>
   </cc:Work>
  </rdf:RDF>
 </metadata>
 <defs>
  <style type="text/css">*{stroke-linejoin: round; stroke-linecap: butt}</style>
 </defs>
 <g id="figure_1">
  <g id="patch_1">
   <path d="M 0 393.202656 
L 713.8275 393.202656 
L 713.8275 0 
L 0 0 
z
" style="fill: #ffffff"/>
  </g>
  <g id="axes_1">
   <g id="patch_2">
    <path d="M 148.6275 354.958125 
L 706.6275 354.958125 
L 706.6275 22.318125 
L 148.6275 22.318125 
z
" style="fill: #ffffff"/>
   </g>
   <g id="patch_3">
    <path d="M 148.6275 339.838125 
L 194.272415 339.838125 
L 194.272415 323.492179 
L 148.6275 323.492179 
z
" clip-path="url(#p2ebda198a4)" style="fill: #2e86c1"/>
   </g>
   <g id="patch_4">
    <path d="M 148.6275 319.405693 
L 194.822444 319.405693 
L 194.822444 303.059747 
L 148.6275 303.059747 
z
" clip-path="url(#p2ebda198a4)" style="fill: #2e86c1"/>
   </g>
   <g id="patch_5">
    <path d="M 148.6275 298.97326 
L 195.645658 298.97326 
L 195.645658 282.627314 
L 148.6275 282.627314 
z
" clip-path="url(#p2ebda198a4)" style="fill: #2e86c1"/>
   </g>
   <g id="patch_6">
    <path d="M 148.6275 278.540828 
L 200.660335 278.540828 
L 200.660335 262.194882 
L 148.6275 262.194882 
z
" clip-path="url(#p2ebda198a4)" style="fill: #2e86c1"/>
   </g>
   <g id="patch_7">
    <path d="M 148.6275 258.108395 
L 201.762694 258.108395 
L 201.762694 241.762449 
L 148.6275 241.762449 
z
" clip-path="url(#p2ebda198a4)" style="fill: #2e86c1"/>
   </g>
   <g id="patch_8">
    <path d="M 148.6275 237.675963 
L 203.881109 237.675963 
L 203.881109 221.330017 
L 148.6275 221.330017 
z
" clip-path="url(#p2ebda198a4)" style="fill: #2e86c1"/>
   </g>
   <g id="patch_9">
    <path d="M 148.6275 217.24353 
L 205.236767 217.24353 
L 205.236767 200.897584 
L 148.6275 200.897584 
z
" clip-path="url(#p2ebda198a4)" style="fill: #2e86c1"/>
   </g>
   <g id="patch_10">
    <path d="M 148.6275 196.811098 
L 215.600655 196.811098 
L 215.600655 180.465152 
L 148.6275 180.465152 
z
" clip-path="url(#p2ebda198a4)" style="fill: #2e86c1"/>
   </g>
   <g id="patch_11">
    <path d="M 148.6275 176.378666 
L 268.051324 176.378666 
L 268.051324 160.03272 
L 148.6275 160.03272 
z
" clip-path="url(#p2ebda198a4)" style="fill: #2e86c1"/>
   </g>
   <g id="patch_12">
    <path d="M 148.6275 155.946233 
L 273.07248 155.946233 
L 273.07248 139.600287 
L 148.6275 139.600287 
z
" clip-path="url(#p2ebda198a4)" style="fill: #2e86c1"/>
   </g>
   <g id="patch_13">
    <path d="M 148.6275 135.513801 
L 291.836436 135.513801 
L 291.836436 119.167855 
L 148.6275 119.167855 
z
" clip-path="url(#p2ebda198a4)" style="fill: #2e86c1"/>
   </g>
   <g id="patch_14">
    <path d="M 148.6275 115.081368 
L 304.125539 115.081368 
L 304.125539 98.735422 
L 148.6275 98.735422 
z
" clip-path="url(#p2ebda198a4)" style="fill: #2e86c1"/>
   </g>
   <g id="patch_15">
    <path d="M 148.6275 94.648936 
L 401.138337 94.648936 
L 401.138337 78.30299 
L 148.6275 78.30299 
z
" clip-path="url(#p2ebda198a4)" style="fill: #2e86c1"/>
   </g>
   <g id="patch_16">
    <path d="M 148.6275 74.216503 
L 403.885806 74.216503 
L 403.885806 57.870557 
L 148.6275 57.870557 
z
" clip-path="url(#p2ebda198a4)" style="fill: #2e86c1"/>
   </g>
   <g id="patch_17">
    <path d="M 148.6275 53.784071 
L 680.056071 53.784071 
L 680.056071 37.438125 
L 148.6275 37.438125 
z
" clip-path="url(#p2ebda198a4)" style="fill: #2e86c1"/>
   </g>
   <g id="matplotlib.axis_1">
    <g id="xtick_1">
     <g id="line2d_1">
      <defs>
       <path id="mb5411c3ad5" d="M 0 0 
L 0 3.5 
" style="stroke: #000000; stroke-width: 0.8"/>
      </defs>
      <g>
       <use xlink:href="#mb5411c3ad5" x="148.6275" y="354.958125" style="stroke: #000000; stroke-width: 0.8"/>
      </g>
     </g>
     <g id="text_1">
      <!-- 0.0 -->
      <g transform="translate(140.675938 369.555781) scale(0.1 -0.1)">
       <defs>
        <path id="DejaVuSans-13" d="M 2034 4250 
Q 1547 4250 1301 3770 
Q 1056 3291 1056 2328 
Q 1056 1369 1301 889 
Q 1547 409 2034 409 
Q 2525 409 2770 889 
Q 3016 1369 3016 2328 
Q 3016 3291 2770 3770 
Q 2525 4250 2034 4250 
z
M 2034 4750 
Q 2819 4750 3233 4129 
Q 3647 3509 3647 2328 
Q 3647 1150 3233 529 
Q 2819 -91 2034 -91 
Q 1250 -91 836 529 
Q 422 1150 422 2328 
Q 422 3509 836 4129 
Q 1250 4750 2034 4750 
z
" transform="scale(0.015625)"/>
        <path id="DejaVuSans-11" d="M 684 794 
L 1344 794 
L 1344 0 
L 684 0 
L 684 794 
z
" transform="scale(0.015625)"/>
       </defs>
       <use xlink:href="#DejaVuSans-13"/>
       <use xlink:href="#DejaVuSans-11" transform="translate(63.625 0)"/>
       <use xlink:href="#DejaVuSans-13" transform="translate(95.40625 0)"/>
      </g>
     </g>
    </g>
    <g id="xtick_2">
     <g id="line2d_2">
      <g>
       <use xlink:href="#mb5411c3ad5" x="237.893271" y="354.958125" style="stroke: #000000; stroke-width: 0.8"/>
      </g>
     </g>
     <g id="text_2">
      <!-- 0.2 -->
      <g transform="translate(229.941709 369.555781) scale(0.1 -0.1)">
       <defs>
        <path id="DejaVuSans-15" d="M 1228 531 
L 3431 531 
L 3431 0 
L 469 0 
L 469 531 
Q 828 903 1448 1529 
Q 2069 2156 2228 2338 
Q 2531 2678 2651 2914 
Q 2772 3150 2772 3378 
Q 2772 3750 2511 3984 
Q 2250 4219 1831 4219 
Q 1534 4219 1204 4116 
Q 875 4013 500 3803 
L 500 4441 
Q 881 4594 1212 4672 
Q 1544 4750 1819 4750 
Q 2544 4750 2975 4387 
Q 3406 4025 3406 3419 
Q 3406 3131 3298 2873 
Q 3191 2616 2906 2266 
Q 2828 2175 2409 1742 
Q 1991 1309 1228 531 
z
" transform="scale(0.015625)"/>
       </defs>
       <use xlink:href="#DejaVuSans-13"/>
       <use xlink:href="#DejaVuSans-11" transform="translate(63.625 0)"/>
       <use xlink:href="#DejaVuSans-15" transform="translate(95.40625 0)"/>
      </g>
     </g>
    </g>
    <g id="xtick_3">
     <g id="line2d_3">
      <g>
       <use xlink:href="#mb5411c3ad5" x="327.159042" y="354.958125" style="stroke: #000000; stroke-width: 0.8"/>
      </g>
     </g>
     <g id="text_3">
      <!-- 0.4 -->
      <g transform="translate(319.20748 369.555781) scale(0.1 -0.1)">
       <defs>
        <path id="DejaVuSans-17" d="M 2419 4116 
L 825 1625 
L 2419 1625 
L 2419 4116 
z
M 2253 4666 
L 3047 4666 
L 3047 1625 
L 3713 1625 
L 3713 1100 
L 3047 1100 
L 3047 0 
L 2419 0 
L 2419 1100 
L 313 1100 
L 313 1709 
L 2253 4666 
z
" transform="scale(0.015625)"/>
       </defs>
       <use xlink:href="#DejaVuSans-13"/>
       <use xlink:href="#DejaVuSans-11" transform="translate(63.625 0)"/>
       <use xlink:href="#DejaVuSans-17" transform="translate(95.40625 0)"/>
      </g>
     </g>
    </g>
    <g id="xtick_4">
     <g id="line2d_4">
      <g>
       <use xlink:href="#mb5411c3ad5" x="416.424814" y="354.958125" style="stroke: #000000; stroke-width: 0.8"/>
      </g>
     </g>
     <g id="text_4">
      <!-- 0.6 -->
      <g transform="translate(408.473251 369.555781) scale(0.1 -0.1)">
       <defs>
        <path id="DejaVuSans-19" d="M 2113 2584 
Q 1688 2584 1439 2293 
Q 1191 2003 1191 1497 
Q 1191 994 1439 701 
Q 1688 409 2113 409 
Q 2538 409 2786 701 
Q 3034 994 3034 1497 
Q 3034 2003 2786 2293 
Q 2538 2584 2113 2584 
z
M 3366 4563 
L 3366 3988 
Q 3128 4100 2886 4159 
Q 2644 4219 2406 4219 
Q 1781 4219 1451 3797 
Q 1122 3375 1075 2522 
Q 1259 2794 1537 2939 
Q 1816 3084 2150 3084 
Q 2853 3084 3261 2657 
Q 3669 2231 3669 1497 
Q 3669 778 3244 343 
Q 2819 -91 2113 -91 
Q 1303 -91 875 529 
Q 447 1150 447 2328 
Q 447 3434 972 4092 
Q 1497 4750 2381 4750 
Q 2619 4750 2861 4703 
Q 3103 4656 3366 4563 
z
" transform="scale(0.015625)"/>
       </defs>
       <use xlink:href="#DejaVuSans-13"/>
       <use xlink:href="#DejaVuSans-11" transform="translate(63.625 0)"/>
       <use xlink:href="#DejaVuSans-19" transform="translate(95.40625 0)"/>
      </g>
     </g>
    </g>
    <g id="xtick_5">
     <g id="line2d_5">
      <g>
       <use xlink:href="#mb5411c3ad5" x="505.690585" y="354.958125" style="stroke: #000000; stroke-width: 0.8"/>
      </g>
     </g>
     <g id="text_5">
      <!-- 0.8 -->
      <g transform="translate(497.739022 369.555781) scale(0.1 -0.1)">
       <defs>
        <path id="DejaVuSans-1b" d="M 2034 2216 
Q 1584 2216 1326 1975 
Q 1069 1734 1069 1313 
Q 1069 891 1326 650 
Q 1584 409 2034 409 
Q 2484 409 2743 651 
Q 3003 894 3003 1313 
Q 3003 1734 2745 1975 
Q 2488 2216 2034 2216 
z
M 1403 2484 
Q 997 2584 770 2862 
Q 544 3141 544 3541 
Q 544 4100 942 4425 
Q 1341 4750 2034 4750 
Q 2731 4750 3128 4425 
Q 3525 4100 3525 3541 
Q 3525 3141 3298 2862 
Q 3072 2584 2669 2484 
Q 3125 2378 3379 2068 
Q 3634 1759 3634 1313 
Q 3634 634 3220 271 
Q 2806 -91 2034 -91 
Q 1263 -91 848 271 
Q 434 634 434 1313 
Q 434 1759 690 2068 
Q 947 2378 1403 2484 
z
M 1172 3481 
Q 1172 3119 1398 2916 
Q 1625 2713 2034 2713 
Q 2441 2713 2670 2916 
Q 2900 3119 2900 3481 
Q 2900 3844 2670 4047 
Q 2441 4250 2034 4250 
Q 1625 4250 1398 4047 
Q 1172 3844 1172 3481 
z
" transform="scale(0.015625)"/>
       </defs>
       <use xlink:href="#DejaVuSans-13"/>
       <use xlink:href="#DejaVuSans-11" transform="translate(63.625 0)"/>
       <use xlink:href="#DejaVuSans-1b" transform="translate(95.40625 0)"/>
      </g>
     </g>
    </g>
    <g id="xtick_6">
     <g id="line2d_6">
      <g>
       <use xlink:href="#mb5411c3ad5" x="594.956356" y="354.958125" style="stroke: #000000; stroke-width: 0.8"/>
      </g>
     </g>
     <g id="text_6">
      <!-- 1.0 -->
      <g transform="translate(587.004793 369.555781) scale(0.1 -0.1)">
       <defs>
        <path id="DejaVuSans-14" d="M 794 531 
L 1825 531 
L 1825 4091 
L 703 3866 
L 703 4441 
L 1819 4666 
L 2450 4666 
L 2450 531 
L 3481 531 
L 3481 0 
L 794 0 
L 794 531 
z
" transform="scale(0.015625)"/>
       </defs>
       <use xlink:href="#DejaVuSans-14"/>
       <use xlink:href="#DejaVuSans-11" transform="translate(63.625 0)"/>
       <use xlink:href="#DejaVuSans-13" transform="translate(95.40625 0)"/>
      </g>
     </g>
    </g>
    <g id="xtick_7">
     <g id="line2d_7">
      <g>
       <use xlink:href="#mb5411c3ad5" x="684.222127" y="354.958125" style="stroke: #000000; stroke-width: 0.8"/>
      </g>
     </g>
     <g id="text_7">
      <!-- 1.2 -->
      <g transform="translate(676.270565 369.555781) scale(0.1 -0.1)">
       <use xlink:href="#DejaVuSans-14"/>
       <use xlink:href="#DejaVuSans-11" transform="translate(63.625 0)"/>
       <use xlink:href="#DejaVuSans-15" transform="translate(95.40625 0)"/>
      </g>
     </g>
    </g>
    <g id="text_8">
     <!-- Mean |SHAP| -->
     <g transform="translate(395.676719 383.600313) scale(0.1 -0.1)">
      <defs>
       <path id="DejaVuSans-30" d="M 628 4666 
L 1569 4666 
L 2759 1491 
L 3956 4666 
L 4897 4666 
L 4897 0 
L 4281 0 
L 4281 4097 
L 3078 897 
L 2444 897 
L 1241 4097 
L 1241 0 
L 628 0 
L 628 4666 
z
" transform="scale(0.015625)"/>
       <path id="DejaVuSans-48" d="M 3597 1894 
L 3597 1613 
L 953 1613 
Q 991 1019 1311 708 
Q 1631 397 2203 397 
Q 2534 397 2845 478 
Q 3156 559 3463 722 
L 3463 178 
Q 3153 47 2828 -22 
Q 2503 -91 2169 -91 
Q 1331 -91 842 396 
Q 353 884 353 1716 
Q 353 2575 817 3079 
Q 1281 3584 2069 3584 
Q 2775 3584 3186 3129 
Q 3597 2675 3597 1894 
z
M 3022 2063 
Q 3016 2534 2758 2815 
Q 2500 3097 2075 3097 
Q 1594 3097 1305 2825 
Q 1016 2553 972 2059 
L 3022 2063 
z
" transform="scale(0.015625)"/>
       <path id="DejaVuSans-44" d="M 2194 1759 
Q 1497 1759 1228 1600 
Q 959 1441 959 1056 
Q 959 750 1161 570 
Q 1363 391 1709 391 
Q 2188 391 2477 730 
Q 2766 1069 2766 1631 
L 2766 1759 
L 2194 1759 
z
M 3341 1997 
L 3341 0 
L 2766 0 
L 2766 531 
Q 2569 213 2275 61 
Q 1981 -91 1556 -91 
Q 1019 -91 701 211 
Q 384 513 384 1019 
Q 384 1609 779 1909 
Q 1175 2209 1959 2209 
L 2766 2209 
L 2766 2266 
Q 2766 2663 2505 2880 
Q 2244 3097 1772 3097 
Q 1472 3097 1187 3025 
Q 903 2953 641 2809 
L 641 3341 
Q 956 3463 1253 3523 
Q 1550 3584 1831 3584 
Q 2591 3584 2966 3190 
Q 3341 2797 3341 1997 
z
" transform="scale(0.015625)"/>
       <path id="DejaVuSans-51" d="M 3513 2113 
L 3513 0 
L 2938 0 
L 2938 2094 
Q 2938 2591 2744 2837 
Q 2550 3084 2163 3084 
Q 1697 3084 1428 2787 
Q 1159 2491 1159 1978 
L 1159 0 
L 581 0 
L 581 3500 
L 1159 3500 
L 1159 2956 
Q 1366 3272 1645 3428 
Q 1925 3584 2291 3584 
Q 2894 3584 3203 3211 
Q 3513 2838 3513 2113 
z
" transform="scale(0.015625)"/>
       <path id="DejaVuSans-3" transform="scale(0.015625)"/>
       <path id="DejaVuSans-5f" d="M 1344 4891 
L 1344 -1509 
L 813 -1509 
L 813 4891 
L 1344 4891 
z
" transform="scale(0.015625)"/>
       <path id="DejaVuSans-36" d="M 3425 4513 
L 3425 3897 
Q 3066 4069 2747 4153 
Q 2428 4238 2131 4238 
Q 1616 4238 1336 4038 
Q 1056 3838 1056 3469 
Q 1056 3159 1242 3001 
Q 1428 2844 1947 2747 
L 2328 2669 
Q 3034 2534 3370 2195 
Q 3706 1856 3706 1288 
Q 3706 609 3251 259 
Q 2797 -91 1919 -91 
Q 1588 -91 1214 -16 
Q 841 59 441 206 
L 441 856 
Q 825 641 1194 531 
Q 1563 422 1919 422 
Q 2459 422 2753 634 
Q 3047 847 3047 1241 
Q 3047 1584 2836 1778 
Q 2625 1972 2144 2069 
L 1759 2144 
Q 1053 2284 737 2584 
Q 422 2884 422 3419 
Q 422 4038 858 4394 
Q 1294 4750 2059 4750 
Q 2388 4750 2728 4690 
Q 3069 4631 3425 4513 
z
" transform="scale(0.015625)"/>
       <path id="DejaVuSans-2b" d="M 628 4666 
L 1259 4666 
L 1259 2753 
L 3553 2753 
L 3553 4666 
L 4184 4666 
L 4184 0 
L 3553 0 
L 3553 2222 
L 1259 2222 
L 1259 0 
L 628 0 
L 628 4666 
z
" transform="scale(0.015625)"/>
       <path id="DejaVuSans-24" d="M 2188 4044 
L 1331 1722 
L 3047 1722 
L 2188 4044 
z
M 1831 4666 
L 2547 4666 
L 4325 0 
L 3669 0 
L 3244 1197 
L 1141 1197 
L 716 0 
L 50 0 
L 1831 4666 
z
" transform="scale(0.015625)"/>
       <path id="DejaVuSans-33" d="M 1259 4147 
L 1259 2394 
L 2053 2394 
Q 2494 2394 2734 2622 
Q 2975 2850 2975 3272 
Q 2975 3691 2734 3919 
Q 2494 4147 2053 4147 
L 1259 4147 
z
M 628 4666 
L 2053 4666 
Q 2838 4666 3239 4311 
Q 3641 3956 3641 3272 
Q 3641 2581 3239 2228 
Q 2838 1875 2053 1875 
L 1259 1875 
L 1259 0 
L 628 0 
L 628 4666 
z
" transform="scale(0.015625)"/>
      </defs>
      <use xlink:href="#DejaVuSans-30"/>
      <use xlink:href="#DejaVuSans-48" transform="translate(86.28125 0)"/>
      <use xlink:href="#DejaVuSans-44" transform="translate(147.8125 0)"/>
      <use xlink:href="#DejaVuSans-51" transform="translate(209.09375 0)"/>
      <use xlink:href="#DejaVuSans-3" transform="translate(272.46875 0)"/>
      <use xlink:href="#DejaVuSans-5f" transform="translate(304.25 0)"/>
      <use xlink:href="#DejaVuSans-36" transform="translate(337.9375 0)"/>
      <use xlink:href="#DejaVuSans-2b" transform="translate(401.421875 0)"/>
      <use xlink:href="#DejaVuSans-24" transform="translate(476.625 0)"/>
      <use xlink:href="#DejaVuSans-33" transform="translate(545.03125 0)"/>
      <use xlink:href="#DejaVuSans-5f" transform="translate(605.328125 0)"/>
     </g>
    </g>
   </g>
   <g id="matplotlib.axis_2">
    <g id="ytick_1">
     <g id="line2d_8">
      <defs>
       <path id="m8fd5a2f877" d="M 0 0 
L -3.5 0 
" style="stroke: #000000; stroke-width: 0.8"/>
      </defs>
      <g>
       <use xlink:href="#m8fd5a2f877" x="148.6275" y="331.665152" style="stroke: #000000; stroke-width: 0.8"/>
      </g>
     </g>
     <g id="text_9">
      <!-- StreamingTV_Yes -->
      <g transform="translate(73.03875 334.704527) scale(0.08 -0.08)">
       <defs>
        <path id="DejaVuSans-57" d="M 1172 4494 
L 1172 3500 
L 2356 3500 
L 2356 3053 
L 1172 3053 
L 1172 1153 
Q 1172 725 1289 603 
Q 1406 481 1766 481 
L 2356 481 
L 2356 0 
L 1766 0 
Q 1100 0 847 248 
Q 594 497 594 1153 
L 594 3053 
L 172 3053 
L 172 3500 
L 594 3500 
L 594 4494 
L 1172 4494 
z
" transform="scale(0.015625)"/>
        <path id="DejaVuSans-55" d="M 2631 2963 
Q 2534 3019 2420 3045 
Q 2306 3072 2169 3072 
Q 1681 3072 1420 2755 
Q 1159 2438 1159 1844 
L 1159 0 
L 581 0 
L 581 3500 
L 1159 3500 
L 1159 2956 
Q 1341 3275 1631 3429 
Q 1922 3584 2338 3584 
Q 2397 3584 2469 3576 
Q 2541 3569 2628 3553 
L 2631 2963 
z
" transform="scale(0.015625)"/>
        <path id="DejaVuSans-50" d="M 3328 2828 
Q 3544 3216 3844 3400 
Q 4144 3584 4550 3584 
Q 5097 3584 5394 3201 
Q 5691 2819 5691 2113 
L 5691 0 
L 5113 0 
L 5113 2094 
Q 5113 2597 4934 2840 
Q 4756 3084 4391 3084 
Q 3944 3084 3684 2787 
Q 3425 2491 3425 1978 
L 3425 0 
L 2847 0 
L 2847 2094 
Q 2847 2600 2669 2842 
Q 2491 3084 2119 3084 
Q 1678 3084 1418 2786 
Q 1159 2488 1159 1978 
L 1159 0 
L 581 0 
L 581 3500 
L 1159 3500 
L 1159 2956 
Q 1356 3278 1631 3431 
Q 1906 3584 2284 3584 
Q 2666 3584 2933 3390 
Q 3200 3197 3328 2828 
z
" transform="scale(0.015625)"/>
        <path id="DejaVuSans-4c" d="M 603 3500 
L 1178 3500 
L 1178 0 
L 603 0 
L 603 3500 
z
M 603 4863 
L 1178 4863 
L 1178 4134 
L 603 4134 
L 603 4863 
z
" transform="scale(0.015625)"/>
        <path id="DejaVuSans-4a" d="M 2906 1791 
Q 2906 2416 2648 2759 
Q 2391 3103 1925 3103 
Q 1463 3103 1205 2759 
Q 947 2416 947 1791 
Q 947 1169 1205 825 
Q 1463 481 1925 481 
Q 2391 481 2648 825 
Q 2906 1169 2906 1791 
z
M 3481 434 
Q 3481 -459 3084 -895 
Q 2688 -1331 1869 -1331 
Q 1566 -1331 1297 -1286 
Q 1028 -1241 775 -1147 
L 775 -588 
Q 1028 -725 1275 -790 
Q 1522 -856 1778 -856 
Q 2344 -856 2625 -561 
Q 2906 -266 2906 331 
L 2906 616 
Q 2728 306 2450 153 
Q 2172 0 1784 0 
Q 1141 0 747 490 
Q 353 981 353 1791 
Q 353 2603 747 3093 
Q 1141 3584 1784 3584 
Q 2172 3584 2450 3431 
Q 2728 3278 2906 2969 
L 2906 3500 
L 3481 3500 
L 3481 434 
z
" transform="scale(0.015625)"/>
        <path id="DejaVuSans-37" d="M -19 4666 
L 3928 4666 
L 3928 4134 
L 2272 4134 
L 2272 0 
L 1638 0 
L 1638 4134 
L -19 4134 
L -19 4666 
z
" transform="scale(0.015625)"/>
        <path id="DejaVuSans-39" d="M 1831 0 
L 50 4666 
L 709 4666 
L 2188 738 
L 3669 4666 
L 4325 4666 
L 2547 0 
L 1831 0 
z
" transform="scale(0.015625)"/>
        <path id="DejaVuSans-42" d="M 3263 -1063 
L 3263 -1509 
L -63 -1509 
L -63 -1063 
L 3263 -1063 
z
" transform="scale(0.015625)"/>
        <path id="DejaVuSans-3c" d="M -13 4666 
L 666 4666 
L 1959 2747 
L 3244 4666 
L 3922 4666 
L 2272 2222 
L 2272 0 
L 1638 0 
L 1638 2222 
L -13 4666 
z
" transform="scale(0.015625)"/>
        <path id="DejaVuSans-56" d="M 2834 3397 
L 2834 2853 
Q 2591 2978 2328 3040 
Q 2066 3103 1784 3103 
Q 1356 3103 1142 2972 
Q 928 2841 928 2578 
Q 928 2378 1081 2264 
Q 1234 2150 1697 2047 
L 1894 2003 
Q 2506 1872 2764 1633 
Q 3022 1394 3022 966 
Q 3022 478 2636 193 
Q 2250 -91 1575 -91 
Q 1294 -91 989 -36 
Q 684 19 347 128 
L 347 722 
Q 666 556 975 473 
Q 1284 391 1588 391 
Q 1994 391 2212 530 
Q 2431 669 2431 922 
Q 2431 1156 2273 1281 
Q 2116 1406 1581 1522 
L 1381 1569 
Q 847 1681 609 1914 
Q 372 2147 372 2553 
Q 372 3047 722 3315 
Q 1072 3584 1716 3584 
Q 2034 3584 2315 3537 
Q 2597 3491 2834 3397 
z
" transform="scale(0.015625)"/>
       </defs>
       <use xlink:href="#DejaVuSans-36"/>
       <use xlink:href="#DejaVuSans-57" transform="translate(63.484375 0)"/>
       <use xlink:href="#DejaVuSans-55" transform="translate(102.6875 0)"/>
       <use xlink:href="#DejaVuSans-48" transform="translate(141.59375 0)"/>
       <use xlink:href="#DejaVuSans-44" transform="translate(203.125 0)"/>
       <use xlink:href="#DejaVuSans-50" transform="translate(264.40625 0)"/>
       <use xlink:href="#DejaVuSans-4c" transform="translate(361.8125 0)"/>
       <use xlink:href="#DejaVuSans-51" transform="translate(389.59375 0)"/>
       <use xlink:href="#DejaVuSans-4a" transform="translate(452.96875 0)"/>
       <use xlink:href="#DejaVuSans-37" transform="translate(516.453125 0)"/>
       <use xlink:href="#DejaVuSans-39" transform="translate(577.53125 0)"/>
       <use xlink:href="#DejaVuSans-42" transform="translate(645.9375 0)"/>
       <use xlink:href="#DejaVuSans-3c" transform="translate(695.9375 0)"/>
       <use xlink:href="#DejaVuSans-48" transform="translate(743.734375 0)"/>
       <use xlink:href="#DejaVuSans-56" transform="translate(805.265625 0)"/>
      </g>
     </g>
    </g>
    <g id="ytick_2">
     <g id="line2d_9">
      <g>
       <use xlink:href="#m8fd5a2f877" x="148.6275" y="311.23272" style="stroke: #000000; stroke-width: 0.8"/>
      </g>
     </g>
     <g id="text_10">
      <!-- StreamingMovies_No -->
      <g transform="translate(57.58625 314.272095) scale(0.08 -0.08)">
       <defs>
        <path id="DejaVuSans-52" d="M 1959 3097 
Q 1497 3097 1228 2736 
Q 959 2375 959 1747 
Q 959 1119 1226 758 
Q 1494 397 1959 397 
Q 2419 397 2687 759 
Q 2956 1122 2956 1747 
Q 2956 2369 2687 2733 
Q 2419 3097 1959 3097 
z
M 1959 3584 
Q 2709 3584 3137 3096 
Q 3566 2609 3566 1747 
Q 3566 888 3137 398 
Q 2709 -91 1959 -91 
Q 1206 -91 779 398 
Q 353 888 353 1747 
Q 353 2609 779 3096 
Q 1206 3584 1959 3584 
z
" transform="scale(0.015625)"/>
        <path id="DejaVuSans-59" d="M 191 3500 
L 800 3500 
L 1894 563 
L 2988 3500 
L 3597 3500 
L 2284 0 
L 1503 0 
L 191 3500 
z
" transform="scale(0.015625)"/>
        <path id="DejaVuSans-31" d="M 628 4666 
L 1478 4666 
L 3547 763 
L 3547 4666 
L 4159 4666 
L 4159 0 
L 3309 0 
L 1241 3903 
L 1241 0 
L 628 0 
L 628 4666 
z
" transform="scale(0.015625)"/>
       </defs>
       <use xlink:href="#DejaVuSans-36"/>
       <use xlink:href="#DejaVuSans-57" transform="translate(63.484375 0)"/>
       <use xlink:href="#DejaVuSans-55" transform="translate(102.6875 0)"/>
       <use xlink:href="#DejaVuSans-48" transform="translate(141.59375 0)"/>
       <use xlink:href="#DejaVuSans-44" transform="translate(203.125 0)"/>
       <use xlink:href="#DejaVuSans-50" transform="translate(264.40625 0)"/>
       <use xlink:href="#DejaVuSans-4c" transform="translate(361.8125 0)"/>
       <use xlink:href="#DejaVuSans-51" transform="translate(389.59375 0)"/>
       <use xlink:href="#DejaVuSans-4a" transform="translate(452.96875 0)"/>
       <use xlink:href="#DejaVuSans-30" transform="translate(516.453125 0)"/>
       <use xlink:href="#DejaVuSans-52" transform="translate(602.734375 0)"/>
       <use xlink:href="#DejaVuSans-59" transform="translate(663.921875 0)"/>
       <use xlink:href="#DejaVuSans-4c" transform="translate(723.109375 0)"/>
       <use xlink:href="#DejaVuSans-48" transform="translate(750.890625 0)"/>
       <use xlink:href="#DejaVuSans-56" transform="translate(812.421875 0)"/>
       <use xlink:href="#DejaVuSans-42" transform="translate(864.515625 0)"/>
       <use xlink:href="#DejaVuSans-31" transform="translate(914.515625 0)"/>
       <use xlink:href="#DejaVuSans-52" transform="translate(989.328125 0)"/>
      </g>
     </g>
    </g>
    <g id="ytick_3">
     <g id="line2d_10">
      <g>
       <use xlink:href="#m8fd5a2f877" x="148.6275" y="290.800287" style="stroke: #000000; stroke-width: 0.8"/>
      </g>
     </g>
     <g id="text_11">
      <!-- OnlineSecurity_No -->
      <g transform="translate(68.09 293.839662) scale(0.08 -0.08)">
       <defs>
        <path id="DejaVuSans-32" d="M 2522 4238 
Q 1834 4238 1429 3725 
Q 1025 3213 1025 2328 
Q 1025 1447 1429 934 
Q 1834 422 2522 422 
Q 3209 422 3611 934 
Q 4013 1447 4013 2328 
Q 4013 3213 3611 3725 
Q 3209 4238 2522 4238 
z
M 2522 4750 
Q 3503 4750 4090 4092 
Q 4678 3434 4678 2328 
Q 4678 1225 4090 567 
Q 3503 -91 2522 -91 
Q 1538 -91 948 565 
Q 359 1222 359 2328 
Q 359 3434 948 4092 
Q 1538 4750 2522 4750 
z
" transform="scale(0.015625)"/>
        <path id="DejaVuSans-4f" d="M 603 4863 
L 1178 4863 
L 1178 0 
L 603 0 
L 603 4863 
z
" transform="scale(0.015625)"/>
        <path id="DejaVuSans-46" d="M 3122 3366 
L 3122 2828 
Q 2878 2963 2633 3030 
Q 2388 3097 2138 3097 
Q 1578 3097 1268 2742 
Q 959 2388 959 1747 
Q 959 1106 1268 751 
Q 1578 397 2138 397 
Q 2388 397 2633 464 
Q 2878 531 3122 666 
L 3122 134 
Q 2881 22 2623 -34 
Q 2366 -91 2075 -91 
Q 1284 -91 818 406 
Q 353 903 353 1747 
Q 353 2603 823 3093 
Q 1294 3584 2113 3584 
Q 2378 3584 2631 3529 
Q 2884 3475 3122 3366 
z
" transform="scale(0.015625)"/>
        <path id="DejaVuSans-58" d="M 544 1381 
L 544 3500 
L 1119 3500 
L 1119 1403 
Q 1119 906 1312 657 
Q 1506 409 1894 409 
Q 2359 409 2629 706 
Q 2900 1003 2900 1516 
L 2900 3500 
L 3475 3500 
L 3475 0 
L 2900 0 
L 2900 538 
Q 2691 219 2414 64 
Q 2138 -91 1772 -91 
Q 1169 -91 856 284 
Q 544 659 544 1381 
z
M 1991 3584 
L 1991 3584 
z
" transform="scale(0.015625)"/>
        <path id="DejaVuSans-5c" d="M 2059 -325 
Q 1816 -950 1584 -1140 
Q 1353 -1331 966 -1331 
L 506 -1331 
L 506 -850 
L 844 -850 
Q 1081 -850 1212 -737 
Q 1344 -625 1503 -206 
L 1606 56 
L 191 3500 
L 800 3500 
L 1894 763 
L 2988 3500 
L 3597 3500 
L 2059 -325 
z
" transform="scale(0.015625)"/>
       </defs>
       <use xlink:href="#DejaVuSans-32"/>
       <use xlink:href="#DejaVuSans-51" transform="translate(78.71875 0)"/>
       <use xlink:href="#DejaVuSans-4f" transform="translate(142.09375 0)"/>
       <use xlink:href="#DejaVuSans-4c" transform="translate(169.875 0)"/>
       <use xlink:href="#DejaVuSans-51" transform="translate(197.65625 0)"/>
       <use xlink:href="#DejaVuSans-48" transform="translate(261.03125 0)"/>
       <use xlink:href="#DejaVuSans-36" transform="translate(322.5625 0)"/>
       <use xlink:href="#DejaVuSans-48" transform="translate(386.046875 0)"/>
       <use xlink:href="#DejaVuSans-46" transform="translate(447.578125 0)"/>
       <use xlink:href="#DejaVuSans-58" transform="translate(502.5625 0)"/>
       <use xlink:href="#DejaVuSans-55" transform="translate(565.9375 0)"/>
       <use xlink:href="#DejaVuSans-4c" transform="translate(607.046875 0)"/>
       <use xlink:href="#DejaVuSans-57" transform="translate(634.828125 0)"/>
       <use xlink:href="#DejaVuSans-5c" transform="translate(674.03125 0)"/>
       <use xlink:href="#DejaVuSans-42" transform="translate(733.21875 0)"/>
       <use xlink:href="#DejaVuSans-31" transform="translate(783.21875 0)"/>
       <use xlink:href="#DejaVuSans-52" transform="translate(858.03125 0)"/>
      </g>
     </g>
    </g>
    <g id="ytick_4">
     <g id="line2d_11">
      <g>
       <use xlink:href="#m8fd5a2f877" x="148.6275" y="270.367855" style="stroke: #000000; stroke-width: 0.8"/>
      </g>
     </g>
     <g id="text_12">
      <!-- Dependents_Yes -->
      <g transform="translate(76.185 273.40723) scale(0.08 -0.08)">
       <defs>
        <path id="DejaVuSans-27" d="M 1259 4147 
L 1259 519 
L 2022 519 
Q 2988 519 3436 956 
Q 3884 1394 3884 2338 
Q 3884 3275 3436 3711 
Q 2988 4147 2022 4147 
L 1259 4147 
z
M 628 4666 
L 1925 4666 
Q 3281 4666 3915 4102 
Q 4550 3538 4550 2338 
Q 4550 1131 3912 565 
Q 3275 0 1925 0 
L 628 0 
L 628 4666 
z
" transform="scale(0.015625)"/>
        <path id="DejaVuSans-53" d="M 1159 525 
L 1159 -1331 
L 581 -1331 
L 581 3500 
L 1159 3500 
L 1159 2969 
Q 1341 3281 1617 3432 
Q 1894 3584 2278 3584 
Q 2916 3584 3314 3078 
Q 3713 2572 3713 1747 
Q 3713 922 3314 415 
Q 2916 -91 2278 -91 
Q 1894 -91 1617 61 
Q 1341 213 1159 525 
z
M 3116 1747 
Q 3116 2381 2855 2742 
Q 2594 3103 2138 3103 
Q 1681 3103 1420 2742 
Q 1159 2381 1159 1747 
Q 1159 1113 1420 752 
Q 1681 391 2138 391 
Q 2594 391 2855 752 
Q 3116 1113 3116 1747 
z
" transform="scale(0.015625)"/>
        <path id="DejaVuSans-47" d="M 2906 2969 
L 2906 4863 
L 3481 4863 
L 3481 0 
L 2906 0 
L 2906 525 
Q 2725 213 2448 61 
Q 2172 -91 1784 -91 
Q 1150 -91 751 415 
Q 353 922 353 1747 
Q 353 2572 751 3078 
Q 1150 3584 1784 3584 
Q 2172 3584 2448 3432 
Q 2725 3281 2906 2969 
z
M 947 1747 
Q 947 1113 1208 752 
Q 1469 391 1925 391 
Q 2381 391 2643 752 
Q 2906 1113 2906 1747 
Q 2906 2381 2643 2742 
Q 2381 3103 1925 3103 
Q 1469 3103 1208 2742 
Q 947 2381 947 1747 
z
" transform="scale(0.015625)"/>
       </defs>
       <use xlink:href="#DejaVuSans-27"/>
       <use xlink:href="#DejaVuSans-48" transform="translate(77 0)"/>
       <use xlink:href="#DejaVuSans-53" transform="translate(138.53125 0)"/>
       <use xlink:href="#DejaVuSans-48" transform="translate(202.015625 0)"/>
       <use xlink:href="#DejaVuSans-51" transform="translate(263.546875 0)"/>
       <use xlink:href="#DejaVuSans-47" transform="translate(326.921875 0)"/>
       <use xlink:href="#DejaVuSans-48" transform="translate(390.40625 0)"/>
       <use xlink:href="#DejaVuSans-51" transform="translate(451.9375 0)"/>
       <use xlink:href="#DejaVuSans-57" transform="translate(515.3125 0)"/>
       <use xlink:href="#DejaVuSans-56" transform="translate(554.515625 0)"/>
       <use xlink:href="#DejaVuSans-42" transform="translate(606.609375 0)"/>
       <use xlink:href="#DejaVuSans-3c" transform="translate(656.609375 0)"/>
       <use xlink:href="#DejaVuSans-48" transform="translate(704.40625 0)"/>
       <use xlink:href="#DejaVuSans-56" transform="translate(765.9375 0)"/>
      </g>
     </g>
    </g>
    <g id="ytick_5">
     <g id="line2d_12">
      <g>
       <use xlink:href="#m8fd5a2f877" x="148.6275" y="249.935422" style="stroke: #000000; stroke-width: 0.8"/>
      </g>
     </g>
     <g id="text_13">
      <!-- MultipleLines_No -->
      <g transform="translate(74.13 252.974797) scale(0.08 -0.08)">
       <defs>
        <path id="DejaVuSans-2f" d="M 628 4666 
L 1259 4666 
L 1259 531 
L 3531 531 
L 3531 0 
L 628 0 
L 628 4666 
z
" transform="scale(0.015625)"/>
       </defs>
       <use xlink:href="#DejaVuSans-30"/>
       <use xlink:href="#DejaVuSans-58" transform="translate(86.28125 0)"/>
       <use xlink:href="#DejaVuSans-4f" transform="translate(149.65625 0)"/>
       <use xlink:href="#DejaVuSans-57" transform="translate(177.4375 0)"/>
       <use xlink:href="#DejaVuSans-4c" transform="translate(216.640625 0)"/>
       <use xlink:href="#DejaVuSans-53" transform="translate(244.421875 0)"/>
       <use xlink:href="#DejaVuSans-4f" transform="translate(307.90625 0)"/>
       <use xlink:href="#DejaVuSans-48" transform="translate(335.6875 0)"/>
       <use xlink:href="#DejaVuSans-2f" transform="translate(397.21875 0)"/>
       <use xlink:href="#DejaVuSans-4c" transform="translate(452.9375 0)"/>
       <use xlink:href="#DejaVuSans-51" transform="translate(480.71875 0)"/>
       <use xlink:href="#DejaVuSans-48" transform="translate(544.09375 0)"/>
       <use xlink:href="#DejaVuSans-56" transform="translate(605.625 0)"/>
       <use xlink:href="#DejaVuSans-42" transform="translate(657.71875 0)"/>
       <use xlink:href="#DejaVuSans-31" transform="translate(707.71875 0)"/>
       <use xlink:href="#DejaVuSans-52" transform="translate(782.53125 0)"/>
      </g>
     </g>
    </g>
    <g id="ytick_6">
     <g id="line2d_13">
      <g>
       <use xlink:href="#m8fd5a2f877" x="148.6275" y="229.50299" style="stroke: #000000; stroke-width: 0.8"/>
      </g>
     </g>
     <g id="text_14">
      <!-- PaymentMethod_Electronic check -->
      <g transform="translate(7.2 232.542365) scale(0.08 -0.08)">
       <defs>
        <path id="DejaVuSans-4b" d="M 3513 2113 
L 3513 0 
L 2938 0 
L 2938 2094 
Q 2938 2591 2744 2837 
Q 2550 3084 2163 3084 
Q 1697 3084 1428 2787 
Q 1159 2491 1159 1978 
L 1159 0 
L 581 0 
L 581 4863 
L 1159 4863 
L 1159 2956 
Q 1366 3272 1645 3428 
Q 1925 3584 2291 3584 
Q 2894 3584 3203 3211 
Q 3513 2838 3513 2113 
z
" transform="scale(0.015625)"/>
        <path id="DejaVuSans-28" d="M 628 4666 
L 3578 4666 
L 3578 4134 
L 1259 4134 
L 1259 2753 
L 3481 2753 
L 3481 2222 
L 1259 2222 
L 1259 531 
L 3634 531 
L 3634 0 
L 628 0 
L 628 4666 
z
" transform="scale(0.015625)"/>
        <path id="DejaVuSans-4e" d="M 581 4863 
L 1159 4863 
L 1159 1991 
L 2875 3500 
L 3609 3500 
L 1753 1863 
L 3688 0 
L 2938 0 
L 1159 1709 
L 1159 0 
L 581 0 
L 581 4863 
z
" transform="scale(0.015625)"/>
       </defs>
       <use xlink:href="#DejaVuSans-33"/>
       <use xlink:href="#DejaVuSans-44" transform="translate(55.8125 0)"/>
       <use xlink:href="#DejaVuSans-5c" transform="translate(117.09375 0)"/>
       <use xlink:href="#DejaVuSans-50" transform="translate(176.28125 0)"/>
       <use xlink:href="#DejaVuSans-48" transform="translate(273.6875 0)"/>
       <use xlink:href="#DejaVuSans-51" transform="translate(335.21875 0)"/>
       <use xlink:href="#DejaVuSans-57" transform="translate(398.59375 0)"/>
       <use xlink:href="#DejaVuSans-30" transform="translate(437.796875 0)"/>
       <use xlink:href="#DejaVuSans-48" transform="translate(524.078125 0)"/>
       <use xlink:href="#DejaVuSans-57" transform="translate(585.609375 0)"/>
       <use xlink:href="#DejaVuSans-4b" transform="translate(624.8125 0)"/>
       <use xlink:href="#DejaVuSans-52" transform="translate(688.1875 0)"/>
       <use xlink:href="#DejaVuSans-47" transform="translate(749.375 0)"/>
       <use xlink:href="#DejaVuSans-42" transform="translate(812.859375 0)"/>
       <use xlink:href="#DejaVuSans-28" transform="translate(862.859375 0)"/>
       <use xlink:href="#DejaVuSans-4f" transform="translate(926.046875 0)"/>
       <use xlink:href="#DejaVuSans-48" transform="translate(953.828125 0)"/>
       <use xlink:href="#DejaVuSans-46" transform="translate(1015.359375 0)"/>
       <use xlink:href="#DejaVuSans-57" transform="translate(1070.34375 0)"/>
       <use xlink:href="#DejaVuSans-55" transform="translate(1109.546875 0)"/>
       <use xlink:href="#DejaVuSans-52" transform="translate(1148.453125 0)"/>
       <use xlink:href="#DejaVuSans-51" transform="translate(1209.640625 0)"/>
       <use xlink:href="#DejaVuSans-4c" transform="translate(1273.015625 0)"/>
       <use xlink:href="#DejaVuSans-46" transform="translate(1300.796875 0)"/>
       <use xlink:href="#DejaVuSans-3" transform="translate(1355.78125 0)"/>
       <use xlink:href="#DejaVuSans-46" transform="translate(1387.5625 0)"/>
       <use xlink:href="#DejaVuSans-4b" transform="translate(1442.546875 0)"/>
       <use xlink:href="#DejaVuSans-48" transform="translate(1505.921875 0)"/>
       <use xlink:href="#DejaVuSans-46" transform="translate(1567.453125 0)"/>
       <use xlink:href="#DejaVuSans-4e" transform="translate(1622.4375 0)"/>
      </g>
     </g>
    </g>
    <g id="ytick_7">
     <g id="line2d_14">
      <g>
       <use xlink:href="#m8fd5a2f877" x="148.6275" y="209.070557" style="stroke: #000000; stroke-width: 0.8"/>
      </g>
     </g>
     <g id="text_15">
      <!-- StreamingMovies_Yes -->
      <g transform="translate(55.5525 212.109932) scale(0.08 -0.08)">
       <use xlink:href="#DejaVuSans-36"/>
       <use xlink:href="#DejaVuSans-57" transform="translate(63.484375 0)"/>
       <use xlink:href="#DejaVuSans-55" transform="translate(102.6875 0)"/>
       <use xlink:href="#DejaVuSans-48" transform="translate(141.59375 0)"/>
       <use xlink:href="#DejaVuSans-44" transform="translate(203.125 0)"/>
       <use xlink:href="#DejaVuSans-50" transform="translate(264.40625 0)"/>
       <use xlink:href="#DejaVuSans-4c" transform="translate(361.8125 0)"/>
       <use xlink:href="#DejaVuSans-51" transform="translate(389.59375 0)"/>
       <use xlink:href="#DejaVuSans-4a" transform="translate(452.96875 0)"/>
       <use xlink:href="#DejaVuSans-30" transform="translate(516.453125 0)"/>
       <use xlink:href="#DejaVuSans-52" transform="translate(602.734375 0)"/>
       <use xlink:href="#DejaVuSans-59" transform="translate(663.921875 0)"/>
       <use xlink:href="#DejaVuSans-4c" transform="translate(723.109375 0)"/>
       <use xlink:href="#DejaVuSans-48" transform="translate(750.890625 0)"/>
       <use xlink:href="#DejaVuSans-56" transform="translate(812.421875 0)"/>
       <use xlink:href="#DejaVuSans-42" transform="translate(864.515625 0)"/>
       <use xlink:href="#DejaVuSans-3c" transform="translate(914.515625 0)"/>
       <use xlink:href="#DejaVuSans-48" transform="translate(962.3125 0)"/>
       <use xlink:href="#DejaVuSans-56" transform="translate(1023.84375 0)"/>
      </g>
     </g>
    </g>
    <g id="ytick_8">
     <g id="line2d_15">
      <g>
       <use xlink:href="#m8fd5a2f877" x="148.6275" y="188.638125" style="stroke: #000000; stroke-width: 0.8"/>
      </g>
     </g>
     <g id="text_16">
      <!-- PaperlessBilling_No -->
      <g transform="translate(64.0825 191.6775) scale(0.08 -0.08)">
       <defs>
        <path id="DejaVuSans-25" d="M 1259 2228 
L 1259 519 
L 2272 519 
Q 2781 519 3026 730 
Q 3272 941 3272 1375 
Q 3272 1813 3026 2020 
Q 2781 2228 2272 2228 
L 1259 2228 
z
M 1259 4147 
L 1259 2741 
L 2194 2741 
Q 2656 2741 2882 2914 
Q 3109 3088 3109 3444 
Q 3109 3797 2882 3972 
Q 2656 4147 2194 4147 
L 1259 4147 
z
M 628 4666 
L 2241 4666 
Q 2963 4666 3353 4366 
Q 3744 4066 3744 3513 
Q 3744 3084 3544 2831 
Q 3344 2578 2956 2516 
Q 3422 2416 3680 2098 
Q 3938 1781 3938 1306 
Q 3938 681 3513 340 
Q 3088 0 2303 0 
L 628 0 
L 628 4666 
z
" transform="scale(0.015625)"/>
       </defs>
       <use xlink:href="#DejaVuSans-33"/>
       <use xlink:href="#DejaVuSans-44" transform="translate(55.8125 0)"/>
       <use xlink:href="#DejaVuSans-53" transform="translate(117.09375 0)"/>
       <use xlink:href="#DejaVuSans-48" transform="translate(180.578125 0)"/>
       <use xlink:href="#DejaVuSans-55" transform="translate(242.109375 0)"/>
       <use xlink:href="#DejaVuSans-4f" transform="translate(283.21875 0)"/>
       <use xlink:href="#DejaVuSans-48" transform="translate(311 0)"/>
       <use xlink:href="#DejaVuSans-56" transform="translate(372.53125 0)"/>
       <use xlink:href="#DejaVuSans-56" transform="translate(424.625 0)"/>
       <use xlink:href="#DejaVuSans-25" transform="translate(476.71875 0)"/>
       <use xlink:href="#DejaVuSans-4c" transform="translate(545.328125 0)"/>
       <use xlink:href="#DejaVuSans-4f" transform="translate(573.109375 0)"/>
       <use xlink:href="#DejaVuSans-4f" transform="translate(600.890625 0)"/>
       <use xlink:href="#DejaVuSans-4c" transform="translate(628.671875 0)"/>
       <use xlink:href="#DejaVuSans-51" transform="translate(656.453125 0)"/>
       <use xlink:href="#DejaVuSans-4a" transform="translate(719.828125 0)"/>
       <use xlink:href="#DejaVuSans-42" transform="translate(783.3125 0)"/>
       <use xlink:href="#DejaVuSans-31" transform="translate(833.3125 0)"/>
       <use xlink:href="#DejaVuSans-52" transform="translate(908.125 0)"/>
      </g>
     </g>
    </g>
    <g id="ytick_9">
     <g id="line2d_16">
      <g>
       <use xlink:href="#m8fd5a2f877" x="148.6275" y="168.205693" style="stroke: #000000; stroke-width: 0.8"/>
      </g>
     </g>
     <g id="text_17">
      <!-- InternetService_DSL -->
      <g transform="translate(60.59625 171.245068) scale(0.08 -0.08)">
       <defs>
        <path id="DejaVuSans-2c" d="M 628 4666 
L 1259 4666 
L 1259 0 
L 628 0 
L 628 4666 
z
" transform="scale(0.015625)"/>
       </defs>
       <use xlink:href="#DejaVuSans-2c"/>
       <use xlink:href="#DejaVuSans-51" transform="translate(29.5 0)"/>
       <use xlink:href="#DejaVuSans-57" transform="translate(92.875 0)"/>
       <use xlink:href="#DejaVuSans-48" transform="translate(132.078125 0)"/>
       <use xlink:href="#DejaVuSans-55" transform="translate(193.609375 0)"/>
       <use xlink:href="#DejaVuSans-51" transform="translate(232.96875 0)"/>
       <use xlink:href="#DejaVuSans-48" transform="translate(296.34375 0)"/>
       <use xlink:href="#DejaVuSans-57" transform="translate(357.875 0)"/>
       <use xlink:href="#DejaVuSans-36" transform="translate(397.078125 0)"/>
       <use xlink:href="#DejaVuSans-48" transform="translate(460.5625 0)"/>
       <use xlink:href="#DejaVuSans-55" transform="translate(522.09375 0)"/>
       <use xlink:href="#DejaVuSans-59" transform="translate(563.203125 0)"/>
       <use xlink:href="#DejaVuSans-4c" transform="translate(622.390625 0)"/>
       <use xlink:href="#DejaVuSans-46" transform="translate(650.171875 0)"/>
       <use xlink:href="#DejaVuSans-48" transform="translate(705.15625 0)"/>
       <use xlink:href="#DejaVuSans-42" transform="translate(766.6875 0)"/>
       <use xlink:href="#DejaVuSans-27" transform="translate(816.6875 0)"/>
       <use xlink:href="#DejaVuSans-36" transform="translate(893.6875 0)"/>
       <use xlink:href="#DejaVuSans-2f" transform="translate(957.171875 0)"/>
      </g>
     </g>
    </g>
    <g id="ytick_10">
     <g id="line2d_17">
      <g>
       <use xlink:href="#m8fd5a2f877" x="148.6275" y="147.77326" style="stroke: #000000; stroke-width: 0.8"/>
      </g>
     </g>
     <g id="text_18">
      <!-- Contract_Two year -->
      <g transform="translate(67.8225 150.812323) scale(0.08 -0.08)">
       <defs>
        <path id="DejaVuSans-26" d="M 4122 4306 
L 4122 3641 
Q 3803 3938 3442 4084 
Q 3081 4231 2675 4231 
Q 1875 4231 1450 3742 
Q 1025 3253 1025 2328 
Q 1025 1406 1450 917 
Q 1875 428 2675 428 
Q 3081 428 3442 575 
Q 3803 722 4122 1019 
L 4122 359 
Q 3791 134 3420 21 
Q 3050 -91 2638 -91 
Q 1578 -91 968 557 
Q 359 1206 359 2328 
Q 359 3453 968 4101 
Q 1578 4750 2638 4750 
Q 3056 4750 3426 4639 
Q 3797 4528 4122 4306 
z
" transform="scale(0.015625)"/>
        <path id="DejaVuSans-5a" d="M 269 3500 
L 844 3500 
L 1563 769 
L 2278 3500 
L 2956 3500 
L 3675 769 
L 4391 3500 
L 4966 3500 
L 4050 0 
L 3372 0 
L 2619 2869 
L 1863 0 
L 1184 0 
L 269 3500 
z
" transform="scale(0.015625)"/>
       </defs>
       <use xlink:href="#DejaVuSans-26"/>
       <use xlink:href="#DejaVuSans-52" transform="translate(69.828125 0)"/>
       <use xlink:href="#DejaVuSans-51" transform="translate(131.015625 0)"/>
       <use xlink:href="#DejaVuSans-57" transform="translate(194.390625 0)"/>
       <use xlink:href="#DejaVuSans-55" transform="translate(233.59375 0)"/>
       <use xlink:href="#DejaVuSans-44" transform="translate(274.703125 0)"/>
       <use xlink:href="#DejaVuSans-46" transform="translate(335.984375 0)"/>
       <use xlink:href="#DejaVuSans-57" transform="translate(390.96875 0)"/>
       <use xlink:href="#DejaVuSans-42" transform="translate(430.171875 0)"/>
       <use xlink:href="#DejaVuSans-37" transform="translate(480.171875 0)"/>
       <use xlink:href="#DejaVuSans-5a" transform="translate(524.703125 0)"/>
       <use xlink:href="#DejaVuSans-52" transform="translate(606.484375 0)"/>
       <use xlink:href="#DejaVuSans-3" transform="translate(667.671875 0)"/>
       <use xlink:href="#DejaVuSans-5c" transform="translate(699.453125 0)"/>
       <use xlink:href="#DejaVuSans-48" transform="translate(758.640625 0)"/>
       <use xlink:href="#DejaVuSans-44" transform="translate(820.171875 0)"/>
       <use xlink:href="#DejaVuSans-55" transform="translate(881.453125 0)"/>
      </g>
     </g>
    </g>
    <g id="ytick_11">
     <g id="line2d_18">
      <g>
       <use xlink:href="#m8fd5a2f877" x="148.6275" y="127.340828" style="stroke: #000000; stroke-width: 0.8"/>
      </g>
     </g>
     <g id="text_19">
      <!-- InternetService_Fiber optic -->
      <g transform="translate(34.4875 130.380203) scale(0.08 -0.08)">
       <defs>
        <path id="DejaVuSans-29" d="M 628 4666 
L 3309 4666 
L 3309 4134 
L 1259 4134 
L 1259 2759 
L 3109 2759 
L 3109 2228 
L 1259 2228 
L 1259 0 
L 628 0 
L 628 4666 
z
" transform="scale(0.015625)"/>
        <path id="DejaVuSans-45" d="M 3116 1747 
Q 3116 2381 2855 2742 
Q 2594 3103 2138 3103 
Q 1681 3103 1420 2742 
Q 1159 2381 1159 1747 
Q 1159 1113 1420 752 
Q 1681 391 2138 391 
Q 2594 391 2855 752 
Q 3116 1113 3116 1747 
z
M 1159 2969 
Q 1341 3281 1617 3432 
Q 1894 3584 2278 3584 
Q 2916 3584 3314 3078 
Q 3713 2572 3713 1747 
Q 3713 922 3314 415 
Q 2916 -91 2278 -91 
Q 1894 -91 1617 61 
Q 1341 213 1159 525 
L 1159 0 
L 581 0 
L 581 4863 
L 1159 4863 
L 1159 2969 
z
" transform="scale(0.015625)"/>
       </defs>
       <use xlink:href="#DejaVuSans-2c"/>
       <use xlink:href="#DejaVuSans-51" transform="translate(29.5 0)"/>
       <use xlink:href="#DejaVuSans-57" transform="translate(92.875 0)"/>
       <use xlink:href="#DejaVuSans-48" transform="translate(132.078125 0)"/>
       <use xlink:href="#DejaVuSans-55" transform="translate(193.609375 0)"/>
       <use xlink:href="#DejaVuSans-51" transform="translate(232.96875 0)"/>
       <use xlink:href="#DejaVuSans-48" transform="translate(296.34375 0)"/>
       <use xlink:href="#DejaVuSans-57" transform="translate(357.875 0)"/>
       <use xlink:href="#DejaVuSans-36" transform="translate(397.078125 0)"/>
       <use xlink:href="#DejaVuSans-48" transform="translate(460.5625 0)"/>
       <use xlink:href="#DejaVuSans-55" transform="translate(522.09375 0)"/>
       <use xlink:href="#DejaVuSans-59" transform="translate(563.203125 0)"/>
       <use xlink:href="#DejaVuSans-4c" transform="translate(622.390625 0)"/>
       <use xlink:href="#DejaVuSans-46" transform="translate(650.171875 0)"/>
       <use xlink:href="#DejaVuSans-48" transform="translate(705.15625 0)"/>
       <use xlink:href="#DejaVuSans-42" transform="translate(766.6875 0)"/>
       <use xlink:href="#DejaVuSans-29" transform="translate(816.6875 0)"/>
       <use xlink:href="#DejaVuSans-4c" transform="translate(866.921875 0)"/>
       <use xlink:href="#DejaVuSans-45" transform="translate(894.703125 0)"/>
       <use xlink:href="#DejaVuSans-48" transform="translate(958.1875 0)"/>
       <use xlink:href="#DejaVuSans-55" transform="translate(1019.71875 0)"/>
       <use xlink:href="#DejaVuSans-3" transform="translate(1060.828125 0)"/>
       <use xlink:href="#DejaVuSans-52" transform="translate(1092.609375 0)"/>
       <use xlink:href="#DejaVuSans-53" transform="translate(1153.796875 0)"/>
       <use xlink:href="#DejaVuSans-57" transform="translate(1217.28125 0)"/>
       <use xlink:href="#DejaVuSans-4c" transform="translate(1256.484375 0)"/>
       <use xlink:href="#DejaVuSans-46" transform="translate(1284.265625 0)"/>
      </g>
     </g>
    </g>
    <g id="ytick_12">
     <g id="line2d_19">
      <g>
       <use xlink:href="#m8fd5a2f877" x="148.6275" y="106.908395" style="stroke: #000000; stroke-width: 0.8"/>
      </g>
     </g>
     <g id="text_20">
      <!-- Contract_Month-to-month -->
      <g transform="translate(38.22375 109.94777) scale(0.08 -0.08)">
       <defs>
        <path id="DejaVuSans-10" d="M 313 2009 
L 1997 2009 
L 1997 1497 
L 313 1497 
L 313 2009 
z
" transform="scale(0.015625)"/>
       </defs>
       <use xlink:href="#DejaVuSans-26"/>
       <use xlink:href="#DejaVuSans-52" transform="translate(69.828125 0)"/>
       <use xlink:href="#DejaVuSans-51" transform="translate(131.015625 0)"/>
       <use xlink:href="#DejaVuSans-57" transform="translate(194.390625 0)"/>
       <use xlink:href="#DejaVuSans-55" transform="translate(233.59375 0)"/>
       <use xlink:href="#DejaVuSans-44" transform="translate(274.703125 0)"/>
       <use xlink:href="#DejaVuSans-46" transform="translate(335.984375 0)"/>
       <use xlink:href="#DejaVuSans-57" transform="translate(390.96875 0)"/>
       <use xlink:href="#DejaVuSans-42" transform="translate(430.171875 0)"/>
       <use xlink:href="#DejaVuSans-30" transform="translate(480.171875 0)"/>
       <use xlink:href="#DejaVuSans-52" transform="translate(566.453125 0)"/>
       <use xlink:href="#DejaVuSans-51" transform="translate(627.640625 0)"/>
       <use xlink:href="#DejaVuSans-57" transform="translate(691.015625 0)"/>
       <use xlink:href="#DejaVuSans-4b" transform="translate(730.21875 0)"/>
       <use xlink:href="#DejaVuSans-10" transform="translate(793.59375 0)"/>
       <use xlink:href="#DejaVuSans-57" transform="translate(829.671875 0)"/>
       <use xlink:href="#DejaVuSans-52" transform="translate(868.875 0)"/>
       <use xlink:href="#DejaVuSans-10" transform="translate(931.921875 0)"/>
       <use xlink:href="#DejaVuSans-50" transform="translate(968 0)"/>
       <use xlink:href="#DejaVuSans-52" transform="translate(1065.40625 0)"/>
       <use xlink:href="#DejaVuSans-51" transform="translate(1126.59375 0)"/>
       <use xlink:href="#DejaVuSans-57" transform="translate(1189.96875 0)"/>
       <use xlink:href="#DejaVuSans-4b" transform="translate(1229.171875 0)"/>
      </g>
     </g>
    </g>
    <g id="ytick_13">
     <g id="line2d_20">
      <g>
       <use xlink:href="#m8fd5a2f877" x="148.6275" y="86.475963" style="stroke: #000000; stroke-width: 0.8"/>
      </g>
     </g>
     <g id="text_21">
      <!-- TotalCharges -->
      <g transform="translate(90.0675 89.515338) scale(0.08 -0.08)">
       <use xlink:href="#DejaVuSans-37"/>
       <use xlink:href="#DejaVuSans-52" transform="translate(44.09375 0)"/>
       <use xlink:href="#DejaVuSans-57" transform="translate(105.28125 0)"/>
       <use xlink:href="#DejaVuSans-44" transform="translate(144.484375 0)"/>
       <use xlink:href="#DejaVuSans-4f" transform="translate(205.765625 0)"/>
       <use xlink:href="#DejaVuSans-26" transform="translate(233.546875 0)"/>
       <use xlink:href="#DejaVuSans-4b" transform="translate(303.375 0)"/>
       <use xlink:href="#DejaVuSans-44" transform="translate(366.75 0)"/>
       <use xlink:href="#DejaVuSans-55" transform="translate(428.03125 0)"/>
       <use xlink:href="#DejaVuSans-4a" transform="translate(467.390625 0)"/>
       <use xlink:href="#DejaVuSans-48" transform="translate(530.875 0)"/>
       <use xlink:href="#DejaVuSans-56" transform="translate(592.40625 0)"/>
      </g>
     </g>
    </g>
    <g id="ytick_14">
     <g id="line2d_21">
      <g>
       <use xlink:href="#m8fd5a2f877" x="148.6275" y="66.04353" style="stroke: #000000; stroke-width: 0.8"/>
      </g>
     </g>
     <g id="text_22">
      <!-- MonthlyCharges -->
      <g transform="translate(76.72 69.082905) scale(0.08 -0.08)">
       <use xlink:href="#DejaVuSans-30"/>
       <use xlink:href="#DejaVuSans-52" transform="translate(86.28125 0)"/>
       <use xlink:href="#DejaVuSans-51" transform="translate(147.46875 0)"/>
       <use xlink:href="#DejaVuSans-57" transform="translate(210.84375 0)"/>
       <use xlink:href="#DejaVuSans-4b" transform="translate(250.046875 0)"/>
       <use xlink:href="#DejaVuSans-4f" transform="translate(313.421875 0)"/>
       <use xlink:href="#DejaVuSans-5c" transform="translate(341.203125 0)"/>
       <use xlink:href="#DejaVuSans-26" transform="translate(400.390625 0)"/>
       <use xlink:href="#DejaVuSans-4b" transform="translate(470.21875 0)"/>
       <use xlink:href="#DejaVuSans-44" transform="translate(533.59375 0)"/>
       <use xlink:href="#DejaVuSans-55" transform="translate(594.875 0)"/>
       <use xlink:href="#DejaVuSans-4a" transform="translate(634.234375 0)"/>
       <use xlink:href="#DejaVuSans-48" transform="translate(697.71875 0)"/>
       <use xlink:href="#DejaVuSans-56" transform="translate(759.25 0)"/>
      </g>
     </g>
    </g>
    <g id="ytick_15">
     <g id="line2d_22">
      <g>
       <use xlink:href="#m8fd5a2f877" x="148.6275" y="45.611098" style="stroke: #000000; stroke-width: 0.8"/>
      </g>
     </g>
     <g id="text_23">
      <!-- tenure -->
      <g transform="translate(115.39375 48.65016) scale(0.08 -0.08)">
       <use xlink:href="#DejaVuSans-57"/>
       <use xlink:href="#DejaVuSans-48" transform="translate(39.203125 0)"/>
       <use xlink:href="#DejaVuSans-51" transform="translate(100.734375 0)"/>
       <use xlink:href="#DejaVuSans-58" transform="translate(164.109375 0)"/>
       <use xlink:href="#DejaVuSans-55" transform="translate(227.484375 0)"/>
       <use xlink:href="#DejaVuSans-48" transform="translate(266.390625 0)"/>
      </g>
     </g>
    </g>
   </g>
   <g id="patch_18">
    <path d="M 148.6275 354.958125 
L 148.6275 22.318125 
" style="fill: none; stroke: #000000; stroke-width: 0.8; stroke-linejoin: miter; stroke-linecap: square"/>
   </g>
   <g id="patch_19">
    <path d="M 706.6275 354.958125 
L 706.6275 22.318125 
" style="fill: none; stroke: #000000; stroke-width: 0.8; stroke-linejoin: miter; stroke-linecap: square"/>
   </g>
   <g id="patch_20">
    <path d="M 148.6275 354.958125 
L 706.6275 354.958125 
" style="fill: none; stroke: #000000; stroke-width: 0.8; stroke-linejoin: miter; stroke-linecap: square"/>
   </g>
   <g id="patch_21">
    <path d="M 148.6275 22.318125 
L 706.6275 22.318125 
" style="fill: none; stroke: #000000; stroke-width: 0.8; stroke-linejoin: miter; stroke-linecap: square"/>
   </g>
   <g id="text_24">
    <!-- SHAP Feature Importance (Logistic Regression) -->
    <g transform="translate(286.570312 16.318125) scale(0.12 -0.12)">
     <defs>
      <path id="DejaVuSans-b" d="M 1984 4856 
Q 1566 4138 1362 3434 
Q 1159 2731 1159 2009 
Q 1159 1288 1364 580 
Q 1569 -128 1984 -844 
L 1484 -844 
Q 1016 -109 783 600 
Q 550 1309 550 2009 
Q 550 2706 781 3412 
Q 1013 4119 1484 4856 
L 1984 4856 
z
" transform="scale(0.015625)"/>
      <path id="DejaVuSans-35" d="M 2841 2188 
Q 3044 2119 3236 1894 
Q 3428 1669 3622 1275 
L 4263 0 
L 3584 0 
L 2988 1197 
Q 2756 1666 2539 1819 
Q 2322 1972 1947 1972 
L 1259 1972 
L 1259 0 
L 628 0 
L 628 4666 
L 2053 4666 
Q 2853 4666 3247 4331 
Q 3641 3997 3641 3322 
Q 3641 2881 3436 2590 
Q 3231 2300 2841 2188 
z
M 1259 4147 
L 1259 2491 
L 2053 2491 
Q 2509 2491 2742 2702 
Q 2975 2913 2975 3322 
Q 2975 3731 2742 3939 
Q 2509 4147 2053 4147 
L 1259 4147 
z
" transform="scale(0.015625)"/>
      <path id="DejaVuSans-c" d="M 513 4856 
L 1013 4856 
Q 1481 4119 1714 3412 
Q 1947 2706 1947 2009 
Q 1947 1309 1714 600 
Q 1481 -109 1013 -844 
L 513 -844 
Q 928 -128 1133 580 
Q 1338 1288 1338 2009 
Q 1338 2731 1133 3434 
Q 928 4138 513 4856 
z
" transform="scale(0.015625)"/>
     </defs>
     <use xlink:href="#DejaVuSans-36"/>
     <use xlink:href="#DejaVuSans-2b" transform="translate(63.484375 0)"/>
     <use xlink:href="#DejaVuSans-24" transform="translate(138.6875 0)"/>
     <use xlink:href="#DejaVuSans-33" transform="translate(207.09375 0)"/>
     <use xlink:href="#DejaVuSans-3" transform="translate(267.390625 0)"/>
     <use xlink:href="#DejaVuSans-29" transform="translate(299.171875 0)"/>
     <use xlink:href="#DejaVuSans-48" transform="translate(351.21875 0)"/>
     <use xlink:href="#DejaVuSans-44" transform="translate(412.75 0)"/>
     <use xlink:href="#DejaVuSans-57" transform="translate(474.03125 0)"/>
     <use xlink:href="#DejaVuSans-58" transform="translate(513.234375 0)"/>
     <use xlink:href="#DejaVuSans-55" transform="translate(576.609375 0)"/>
     <use xlink:href="#DejaVuSans-48" transform="translate(615.515625 0)"/>
     <use xlink:href="#DejaVuSans-3" transform="translate(677.046875 0)"/>
     <use xlink:href="#DejaVuSans-2c" transform="translate(708.828125 0)"/>
     <use xlink:href="#DejaVuSans-50" transform="translate(738.328125 0)"/>
     <use xlink:href="#DejaVuSans-53" transform="translate(835.734375 0)"/>
     <use xlink:href="#DejaVuSans-52" transform="translate(899.21875 0)"/>
     <use xlink:href="#DejaVuSans-55" transform="translate(960.40625 0)"/>
     <use xlink:href="#DejaVuSans-57" transform="translate(1001.515625 0)"/>
     <use xlink:href="#DejaVuSans-44" transform="translate(1040.71875 0)"/>
     <use xlink:href="#DejaVuSans-51" transform="translate(1102 0)"/>
     <use xlink:href="#DejaVuSans-46" transform="translate(1165.375 0)"/>
     <use xlink:href="#DejaVuSans-48" transform="translate(1220.359375 0)"/>
     <use xlink:href="#DejaVuSans-3" transform="translate(1281.890625 0)"/>
     <use xlink:href="#DejaVuSans-b" transform="translate(1313.671875 0)"/>
     <use xlink:href="#DejaVuSans-2f" transform="translate(1352.6875 0)"/>
     <use xlink:href="#DejaVuSans-52" transform="translate(1406.65625 0)"/>
     <use xlink:href="#DejaVuSans-4a" transform="translate(1467.84375 0)"/>
     <use xlink:href="#DejaVuSans-4c" transform="translate(1531.328125 0)"/>
     <use xlink:href="#DejaVuSans-56" transform="translate(1559.109375 0)"/>
     <use xlink:href="#DejaVuSans-57" transform="translate(1611.203125 0)"/>
     <use xlink:href="#DejaVuSans-4c" transform="translate(1650.40625 0)"/>
     <use xlink:href="#DejaVuSans-46" transform="translate(1678.1875 0)"/>
     <use xlink:href="#DejaVuSans-3" transform="translate(1733.171875 0)"/>
     <use xlink:href="#DejaVuSans-35" transform="translate(1764.953125 0)"/>
     <use xlink:href="#DejaVuSans-48" transform="translate(1829.953125 0)"/>
     <use xlink:href="#DejaVuSans-4a" transform="translate(1891.484375 0)"/>
     <use xlink:href="#DejaVuSans-55" transform="translate(1954.96875 0)"/>
     <use xlink:href="#DejaVuSans-48" transform="translate(1993.875 0)"/>
     <use xlink:href="#DejaVuSans-56" transform="translate(2055.40625 0)"/>
     <use xlink:href="#DejaVuSans-56" transform="translate(2107.5 0)"/>
     <use xlink:href="#DejaVuSans-4c" transform="translate(2159.59375 0)"/>
     <use xlink:href="#DejaVuSans-52" transform="translate(2187.375 0)"/>
     <use xlink:href="#DejaVuSans-51" transform="translate(2248.5625 0)"/>
     <use xlink:href="#DejaVuSans-c" transform="translate(2311.9375 0)"/>
    </g>
   </g>
  </g>
 </g>
 <defs>
  <clipPath id="p2ebda198a4">
   <rect x="148.6275" y="22.318125" width="558" height="332.64"/>
  </clipPath>
 </defs>
</svg>
