<?xml version="1.0" encoding="utf-8" standalone="no"?>
<!DOCTYPE svg PUBLIC "-//W3C//DTD SVG 1.1//EN"
  "http://www.w3.org/Graphics/SVG/1.1/DTD/svg11.dtd">
<svg xmlns:xlink="http://www.w3.org/1999/xlink" width="497.703906pt" height="393.158906pt" viewBox="0 0 497.703906 393.158906" xmlns="http://www.w3.org/2000/svg" version="1.1">
 <metadata>
  <rdf:RDF xmlns:dc="http://purl.org/dc/elements/1.1/" xmlns:cc="http://creativecommons.org/ns#" xmlns:rdf="http://www.w3.org/1999/02/22-rdf-syntax-ns#">
   <cc:Work>
    <dc:type rdf:resource="http://purl.org/dc/dcmitype/StillImage"/>
    <dc:date>2026-07-15T11:57:19.422482</dc:date>
    <dc:format>image/svg+xml</dc:format>
    <dc:creator>
     <cc:Agent>
      <dc:title>Matplotlib v3.11.0, https://matplotlib.org/</dc:title>
     </cc:Agent>
    </dc:creator>
   </cc:Work>
  </rdf:RDF>
 </metadata>
 <defs>
  <style type="text/css">*{stroke-linejoin: round; stroke-linecap: butt}</style>
 </defs>
 <g id="figure_1">
  <g id="patch_1">
   <path d="M 0 393.158906 
L 497.703906 393.158906 
L 497.703906 0 
L 0 0 
z
" style="fill: #ffffff"/>
  </g>
  <g id="axes_1">
   <g id="patch_2">
    <path d="M 44.103906 354.958125 
L 490.503906 354.958125 
L 490.503906 22.318125 
L 44.103906 22.318125 
z
" style="fill: #ffffff"/>
   </g>
   <g id="matplotlib.axis_1">
    <g id="xtick_1">
     <g id="line2d_1">
      <defs>
       <path id="meb0efa2b47" d="M 0 0 
L 0 3.5 
" style="stroke: #000000; stroke-width: 0.8"/>
      </defs>
      <g>
       <use xlink:href="#meb0efa2b47" x="64.394815" y="354.958125" style="stroke: #000000; stroke-width: 0.8"/>
      </g>
     </g>
     <g id="text_1">
      <!-- 0.0 -->
      <g transform="translate(56.443253 369.555781) scale(0.1 -0.1)">
       <defs>
        <path id="DejaVuSans-13" d="M 2034 4250 
Q 1547 4250 1301 3770 
Q 1056 3291 1056 2328 
Q 1056 1369 1301 889 
Q 1547 409 2034 409 
Q 2525 409 2770 889 
Q 3016 1369 3016 2328 
Q 3016 3291 2770 3770 
Q 2525 4250 2034 4250 
z
M 2034 4750 
Q 2819 4750 3233 4129 
Q 3647 3509 3647 2328 
Q 3647 1150 3233 529 
Q 2819 -91 2034 -91 
Q 1250 -91 836 529 
Q 422 1150 422 2328 
Q 422 3509 836 4129 
Q 1250 4750 2034 4750 
z
" transform="scale(0.015625)"/>
        <path id="DejaVuSans-11" d="M 684 794 
L 1344 794 
L 1344 0 
L 684 0 
L 684 794 
z
" transform="scale(0.015625)"/>
       </defs>
       <use xlink:href="#DejaVuSans-13"/>
       <use xlink:href="#DejaVuSans-11" transform="translate(63.625 0)"/>
       <use xlink:href="#DejaVuSans-13" transform="translate(95.40625 0)"/>
      </g>
     </g>
    </g>
    <g id="xtick_2">
     <g id="line2d_2">
      <g>
       <use xlink:href="#meb0efa2b47" x="145.558452" y="354.958125" style="stroke: #000000; stroke-width: 0.8"/>
      </g>
     </g>
     <g id="text_2">
      <!-- 0.2 -->
      <g transform="translate(137.606889 369.555781) scale(0.1 -0.1)">
       <defs>
        <path id="DejaVuSans-15" d="M 1228 531 
L 3431 531 
L 3431 0 
L 469 0 
L 469 531 
Q 828 903 1448 1529 
Q 2069 2156 2228 2338 
Q 2531 2678 2651 2914 
Q 2772 3150 2772 3378 
Q 2772 3750 2511 3984 
Q 2250 4219 1831 4219 
Q 1534 4219 1204 4116 
Q 875 4013 500 3803 
L 500 4441 
Q 881 4594 1212 4672 
Q 1544 4750 1819 4750 
Q 2544 4750 2975 4387 
Q 3406 4025 3406 3419 
Q 3406 3131 3298 2873 
Q 3191 2616 2906 2266 
Q 2828 2175 2409 1742 
Q 1991 1309 1228 531 
z
" transform="scale(0.015625)"/>
       </defs>
       <use xlink:href="#DejaVuSans-13"/>
       <use xlink:href="#DejaVuSans-11" transform="translate(63.625 0)"/>
       <use xlink:href="#DejaVuSans-15" transform="translate(95.40625 0)"/>
      </g>
     </g>
    </g>
    <g id="xtick_3">
     <g id="line2d_3">
      <g>
       <use xlink:href="#meb0efa2b47" x="226.722088" y="354.958125" style="stroke: #000000; stroke-width: 0.8"/>
      </g>
     </g>
     <g id="text_3">
      <!-- 0.4 -->
      <g transform="translate(218.770526 369.555781) scale(0.1 -0.1)">
       <defs>
        <path id="DejaVuSans-17" d="M 2419 4116 
L 825 1625 
L 2419 1625 
L 2419 4116 
z
M 2253 4666 
L 3047 4666 
L 3047 1625 
L 3713 1625 
L 3713 1100 
L 3047 1100 
L 3047 0 
L 2419 0 
L 2419 1100 
L 313 1100 
L 313 1709 
L 2253 4666 
z
" transform="scale(0.015625)"/>
       </defs>
       <use xlink:href="#DejaVuSans-13"/>
       <use xlink:href="#DejaVuSans-11" transform="translate(63.625 0)"/>
       <use xlink:href="#DejaVuSans-17" transform="translate(95.40625 0)"/>
      </g>
     </g>
    </g>
    <g id="xtick_4">
     <g id="line2d_4">
      <g>
       <use xlink:href="#meb0efa2b47" x="307.885724" y="354.958125" style="stroke: #000000; stroke-width: 0.8"/>
      </g>
     </g>
     <g id="text_4">
      <!-- 0.6 -->
      <g transform="translate(299.934162 369.555781) scale(0.1 -0.1)">
       <defs>
        <path id="DejaVuSans-19" d="M 2113 2584 
Q 1688 2584 1439 2293 
Q 1191 2003 1191 1497 
Q 1191 994 1439 701 
Q 1688 409 2113 409 
Q 2538 409 2786 701 
Q 3034 994 3034 1497 
Q 3034 2003 2786 2293 
Q 2538 2584 2113 2584 
z
M 3366 4563 
L 3366 3988 
Q 3128 4100 2886 4159 
Q 2644 4219 2406 4219 
Q 1781 4219 1451 3797 
Q 1122 3375 1075 2522 
Q 1259 2794 1537 2939 
Q 1816 3084 2150 3084 
Q 2853 3084 3261 2657 
Q 3669 2231 3669 1497 
Q 3669 778 3244 343 
Q 2819 -91 2113 -91 
Q 1303 -91 875 529 
Q 447 1150 447 2328 
Q 447 3434 972 4092 
Q 1497 4750 2381 4750 
Q 2619 4750 2861 4703 
Q 3103 4656 3366 4563 
z
" transform="scale(0.015625)"/>
       </defs>
       <use xlink:href="#DejaVuSans-13"/>
       <use xlink:href="#DejaVuSans-11" transform="translate(63.625 0)"/>
       <use xlink:href="#DejaVuSans-19" transform="translate(95.40625 0)"/>
      </g>
     </g>
    </g>
    <g id="xtick_5">
     <g id="line2d_5">
      <g>
       <use xlink:href="#meb0efa2b47" x="389.049361" y="354.958125" style="stroke: #000000; stroke-width: 0.8"/>
      </g>
     </g>
     <g id="text_5">
      <!-- 0.8 -->
      <g transform="translate(381.097798 369.555781) scale(0.1 -0.1)">
       <defs>
        <path id="DejaVuSans-1b" d="M 2034 2216 
Q 1584 2216 1326 1975 
Q 1069 1734 1069 1313 
Q 1069 891 1326 650 
Q 1584 409 2034 409 
Q 2484 409 2743 651 
Q 3003 894 3003 1313 
Q 3003 1734 2745 1975 
Q 2488 2216 2034 2216 
z
M 1403 2484 
Q 997 2584 770 2862 
Q 544 3141 544 3541 
Q 544 4100 942 4425 
Q 1341 4750 2034 4750 
Q 2731 4750 3128 4425 
Q 3525 4100 3525 3541 
Q 3525 3141 3298 2862 
Q 3072 2584 2669 2484 
Q 3125 2378 3379 2068 
Q 3634 1759 3634 1313 
Q 3634 634 3220 271 
Q 2806 -91 2034 -91 
Q 1263 -91 848 271 
Q 434 634 434 1313 
Q 434 1759 690 2068 
Q 947 2378 1403 2484 
z
M 1172 3481 
Q 1172 3119 1398 2916 
Q 1625 2713 2034 2713 
Q 2441 2713 2670 2916 
Q 2900 3119 2900 3481 
Q 2900 3844 2670 4047 
Q 2441 4250 2034 4250 
Q 1625 4250 1398 4047 
Q 1172 3844 1172 3481 
z
" transform="scale(0.015625)"/>
       </defs>
       <use xlink:href="#DejaVuSans-13"/>
       <use xlink:href="#DejaVuSans-11" transform="translate(63.625 0)"/>
       <use xlink:href="#DejaVuSans-1b" transform="translate(95.40625 0)"/>
      </g>
     </g>
    </g>
    <g id="xtick_6">
     <g id="line2d_6">
      <g>
       <use xlink:href="#meb0efa2b47" x="470.212997" y="354.958125" style="stroke: #000000; stroke-width: 0.8"/>
      </g>
     </g>
     <g id="text_6">
      <!-- 1.0 -->
      <g transform="translate(462.261435 369.555781) scale(0.1 -0.1)">
       <defs>
        <path id="DejaVuSans-14" d="M 794 531 
L 1825 531 
L 1825 4091 
L 703 3866 
L 703 4441 
L 1819 4666 
L 2450 4666 
L 2450 531 
L 3481 531 
L 3481 0 
L 794 0 
L 794 531 
z
" transform="scale(0.015625)"/>
       </defs>
       <use xlink:href="#DejaVuSans-14"/>
       <use xlink:href="#DejaVuSans-11" transform="translate(63.625 0)"/>
       <use xlink:href="#DejaVuSans-13" transform="translate(95.40625 0)"/>
      </g>
     </g>
    </g>
    <g id="text_7">
     <!-- Mean Predicted Probability -->
     <g transform="translate(200.598437 383.556562) scale(0.1 -0.1)">
      <defs>
       <path id="DejaVuSans-30" d="M 628 4666 
L 1569 4666 
L 2759 1491 
L 3956 4666 
L 4897 4666 
L 4897 0 
L 4281 0 
L 4281 4097 
L 3078 897 
L 2444 897 
L 1241 4097 
L 1241 0 
L 628 0 
L 628 4666 
z
" transform="scale(0.015625)"/>
       <path id="DejaVuSans-48" d="M 3597 1894 
L 3597 1613 
L 953 1613 
Q 991 1019 1311 708 
Q 1631 397 2203 397 
Q 2534 397 2845 478 
Q 3156 559 3463 722 
L 3463 178 
Q 3153 47 2828 -22 
Q 2503 -91 2169 -91 
Q 1331 -91 842 396 
Q 353 884 353 1716 
Q 353 2575 817 3079 
Q 1281 3584 2069 3584 
Q 2775 3584 3186 3129 
Q 3597 2675 3597 1894 
z
M 3022 2063 
Q 3016 2534 2758 2815 
Q 2500 3097 2075 3097 
Q 1594 3097 1305 2825 
Q 1016 2553 972 2059 
L 3022 2063 
z
" transform="scale(0.015625)"/>
       <path id="DejaVuSans-44" d="M 2194 1759 
Q 1497 1759 1228 1600 
Q 959 1441 959 1056 
Q 959 750 1161 570 
Q 1363 391 1709 391 
Q 2188 391 2477 730 
Q 2766 1069 2766 1631 
L 2766 1759 
L 2194 1759 
z
M 3341 1997 
L 3341 0 
L 2766 0 
L 2766 531 
Q 2569 213 2275 61 
Q 1981 -91 1556 -91 
Q 1019 -91 701 211 
Q 384 513 384 1019 
Q 384 1609 779 1909 
Q 1175 2209 1959 2209 
L 2766 2209 
L 2766 2266 
Q 2766 2663 2505 2880 
Q 2244 3097 1772 3097 
Q 1472 3097 1187 3025 
Q 903 2953 641 2809 
L 641 3341 
Q 956 3463 1253 3523 
Q 1550 3584 1831 3584 
Q 2591 3584 2966 3190 
Q 3341 2797 3341 1997 
z
" transform="scale(0.015625)"/>
       <path id="DejaVuSans-51" d="M 3513 2113 
L 3513 0 
L 2938 0 
L 2938 2094 
Q 2938 2591 2744 2837 
Q 2550 3084 2163 3084 
Q 1697 3084 1428 2787 
Q 1159 2491 1159 1978 
L 1159 0 
L 581 0 
L 581 3500 
L 1159 3500 
L 1159 2956 
Q 1366 3272 1645 3428 
Q 1925 3584 2291 3584 
Q 2894 3584 3203 3211 
Q 3513 2838 3513 2113 
z
" transform="scale(0.015625)"/>
       <path id="DejaVuSans-3" transform="scale(0.015625)"/>
       <path id="DejaVuSans-33" d="M 1259 4147 
L 1259 2394 
L 2053 2394 
Q 2494 2394 2734 2622 
Q 2975 2850 2975 3272 
Q 2975 3691 2734 3919 
Q 2494 4147 2053 4147 
L 1259 4147 
z
M 628 4666 
L 2053 4666 
Q 2838 4666 3239 4311 
Q 3641 3956 3641 3272 
Q 3641 2581 3239 2228 
Q 2838 1875 2053 1875 
L 1259 1875 
L 1259 0 
L 628 0 
L 628 4666 
z
" transform="scale(0.015625)"/>
       <path id="DejaVuSans-55" d="M 2631 2963 
Q 2534 3019 2420 3045 
Q 2306 3072 2169 3072 
Q 1681 3072 1420 2755 
Q 1159 2438 1159 1844 
L 1159 0 
L 581 0 
L 581 3500 
L 1159 3500 
L 1159 2956 
Q 1341 3275 1631 3429 
Q 1922 3584 2338 3584 
Q 2397 3584 2469 3576 
Q 2541 3569 2628 3553 
L 2631 2963 
z
" transform="scale(0.015625)"/>
       <path id="DejaVuSans-47" d="M 2906 2969 
L 2906 4863 
L 3481 4863 
L 3481 0 
L 2906 0 
L 2906 525 
Q 2725 213 2448 61 
Q 2172 -91 1784 -91 
Q 1150 -91 751 415 
Q 353 922 353 1747 
Q 353 2572 751 3078 
Q 1150 3584 1784 3584 
Q 2172 3584 2448 3432 
Q 2725 3281 2906 2969 
z
M 947 1747 
Q 947 1113 1208 752 
Q 1469 391 1925 391 
Q 2381 391 2643 752 
Q 2906 1113 2906 1747 
Q 2906 2381 2643 2742 
Q 2381 3103 1925 3103 
Q 1469 3103 1208 2742 
Q 947 2381 947 1747 
z
" transform="scale(0.015625)"/>
       <path id="DejaVuSans-4c" d="M 603 3500 
L 1178 3500 
L 1178 0 
L 603 0 
L 603 3500 
z
M 603 4863 
L 1178 4863 
L 1178 4134 
L 603 4134 
L 603 4863 
z
" transform="scale(0.015625)"/>
       <path id="DejaVuSans-46" d="M 3122 3366 
L 3122 2828 
Q 2878 2963 2633 3030 
Q 2388 3097 2138 3097 
Q 1578 3097 1268 2742 
Q 959 2388 959 1747 
Q 959 1106 1268 751 
Q 1578 397 2138 397 
Q 2388 397 2633 464 
Q 2878 531 3122 666 
L 3122 134 
Q 2881 22 2623 -34 
Q 2366 -91 2075 -91 
Q 1284 -91 818 406 
Q 353 903 353 1747 
Q 353 2603 823 3093 
Q 1294 3584 2113 3584 
Q 2378 3584 2631 3529 
Q 2884 3475 3122 3366 
z
" transform="scale(0.015625)"/>
       <path id="DejaVuSans-57" d="M 1172 4494 
L 1172 3500 
L 2356 3500 
L 2356 3053 
L 1172 3053 
L 1172 1153 
Q 1172 725 1289 603 
Q 1406 481 1766 481 
L 2356 481 
L 2356 0 
L 1766 0 
Q 1100 0 847 248 
Q 594 497 594 1153 
L 594 3053 
L 172 3053 
L 172 3500 
L 594 3500 
L 594 4494 
L 1172 4494 
z
" transform="scale(0.015625)"/>
       <path id="DejaVuSans-52" d="M 1959 3097 
Q 1497 3097 1228 2736 
Q 959 2375 959 1747 
Q 959 1119 1226 758 
Q 1494 397 1959 397 
Q 2419 397 2687 759 
Q 2956 1122 2956 1747 
Q 2956 2369 2687 2733 
Q 2419 3097 1959 3097 
z
M 1959 3584 
Q 2709 3584 3137 3096 
Q 3566 2609 3566 1747 
Q 3566 888 3137 398 
Q 2709 -91 1959 -91 
Q 1206 -91 779 398 
Q 353 888 353 1747 
Q 353 2609 779 3096 
Q 1206 3584 1959 3584 
z
" transform="scale(0.015625)"/>
       <path id="DejaVuSans-45" d="M 3116 1747 
Q 3116 2381 2855 2742 
Q 2594 3103 2138 3103 
Q 1681 3103 1420 2742 
Q 1159 2381 1159 1747 
Q 1159 1113 1420 752 
Q 1681 391 2138 391 
Q 2594 391 2855 752 
Q 3116 1113 3116 1747 
z
M 1159 2969 
Q 1341 3281 1617 3432 
Q 1894 3584 2278 3584 
Q 2916 3584 3314 3078 
Q 3713 2572 3713 1747 
Q 3713 922 3314 415 
Q 2916 -91 2278 -91 
Q 1894 -91 1617 61 
Q 1341 213 1159 525 
L 1159 0 
L 581 0 
L 581 4863 
L 1159 4863 
L 1159 2969 
z
" transform="scale(0.015625)"/>
       <path id="DejaVuSans-4f" d="M 603 4863 
L 1178 4863 
L 1178 0 
L 603 0 
L 603 4863 
z
" transform="scale(0.015625)"/>
       <path id="DejaVuSans-5c" d="M 2059 -325 
Q 1816 -950 1584 -1140 
Q 1353 -1331 966 -1331 
L 506 -1331 
L 506 -850 
L 844 -850 
Q 1081 -850 1212 -737 
Q 1344 -625 1503 -206 
L 1606 56 
L 191 3500 
L 800 3500 
L 1894 763 
L 2988 3500 
L 3597 3500 
L 2059 -325 
z
" transform="scale(0.015625)"/>
      </defs>
      <use xlink:href="#DejaVuSans-30"/>
      <use xlink:href="#DejaVuSans-48" transform="translate(86.28125 0)"/>
      <use xlink:href="#DejaVuSans-44" transform="translate(147.8125 0)"/>
      <use xlink:href="#DejaVuSans-51" transform="translate(209.09375 0)"/>
      <use xlink:href="#DejaVuSans-3" transform="translate(272.46875 0)"/>
      <use xlink:href="#DejaVuSans-33" transform="translate(304.25 0)"/>
      <use xlink:href="#DejaVuSans-55" transform="translate(362.796875 0)"/>
      <use xlink:href="#DejaVuSans-48" transform="translate(401.703125 0)"/>
      <use xlink:href="#DejaVuSans-47" transform="translate(463.234375 0)"/>
      <use xlink:href="#DejaVuSans-4c" transform="translate(526.71875 0)"/>
      <use xlink:href="#DejaVuSans-46" transform="translate(554.5 0)"/>
      <use xlink:href="#DejaVuSans-57" transform="translate(609.484375 0)"/>
      <use xlink:href="#DejaVuSans-48" transform="translate(648.6875 0)"/>
      <use xlink:href="#DejaVuSans-47" transform="translate(710.21875 0)"/>
      <use xlink:href="#DejaVuSans-3" transform="translate(773.703125 0)"/>
      <use xlink:href="#DejaVuSans-33" transform="translate(805.484375 0)"/>
      <use xlink:href="#DejaVuSans-55" transform="translate(864.03125 0)"/>
      <use xlink:href="#DejaVuSans-52" transform="translate(902.9375 0)"/>
      <use xlink:href="#DejaVuSans-45" transform="translate(964.125 0)"/>
      <use xlink:href="#DejaVuSans-44" transform="translate(1027.609375 0)"/>
      <use xlink:href="#DejaVuSans-45" transform="translate(1088.890625 0)"/>
      <use xlink:href="#DejaVuSans-4c" transform="translate(1152.375 0)"/>
      <use xlink:href="#DejaVuSans-4f" transform="translate(1180.15625 0)"/>
      <use xlink:href="#DejaVuSans-4c" transform="translate(1207.9375 0)"/>
      <use xlink:href="#DejaVuSans-57" transform="translate(1235.71875 0)"/>
      <use xlink:href="#DejaVuSans-5c" transform="translate(1274.921875 0)"/>
     </g>
    </g>
   </g>
   <g id="matplotlib.axis_2">
    <g id="ytick_1">
     <g id="line2d_7">
      <defs>
       <path id="m787f318fdc" d="M 0 0 
L -3.5 0 
" style="stroke: #000000; stroke-width: 0.8"/>
      </defs>
      <g>
       <use xlink:href="#m787f318fdc" x="44.103906" y="339.838125" style="stroke: #000000; stroke-width: 0.8"/>
      </g>
     </g>
     <g id="text_8">
      <!-- 0.0 -->
      <g transform="translate(21.200781 343.636953) scale(0.1 -0.1)">
       <use xlink:href="#DejaVuSans-13"/>
       <use xlink:href="#DejaVuSans-11" transform="translate(63.625 0)"/>
       <use xlink:href="#DejaVuSans-13" transform="translate(95.40625 0)"/>
      </g>
     </g>
    </g>
    <g id="ytick_2">
     <g id="line2d_8">
      <g>
       <use xlink:href="#m787f318fdc" x="44.103906" y="279.358125" style="stroke: #000000; stroke-width: 0.8"/>
      </g>
     </g>
     <g id="text_9">
      <!-- 0.2 -->
      <g transform="translate(21.200781 283.156953) scale(0.1 -0.1)">
       <use xlink:href="#DejaVuSans-13"/>
       <use xlink:href="#DejaVuSans-11" transform="translate(63.625 0)"/>
       <use xlink:href="#DejaVuSans-15" transform="translate(95.40625 0)"/>
      </g>
     </g>
    </g>
    <g id="ytick_3">
     <g id="line2d_9">
      <g>
       <use xlink:href="#m787f318fdc" x="44.103906" y="218.878125" style="stroke: #000000; stroke-width: 0.8"/>
      </g>
     </g>
     <g id="text_10">
      <!-- 0.4 -->
      <g transform="translate(21.200781 222.676953) scale(0.1 -0.1)">
       <use xlink:href="#DejaVuSans-13"/>
       <use xlink:href="#DejaVuSans-11" transform="translate(63.625 0)"/>
       <use xlink:href="#DejaVuSans-17" transform="translate(95.40625 0)"/>
      </g>
     </g>
    </g>
    <g id="ytick_4">
     <g id="line2d_10">
      <g>
       <use xlink:href="#m787f318fdc" x="44.103906" y="158.398125" style="stroke: #000000; stroke-width: 0.8"/>
      </g>
     </g>
     <g id="text_11">
      <!-- 0.6 -->
      <g transform="translate(21.200781 162.196953) scale(0.1 -0.1)">
       <use xlink:href="#DejaVuSans-13"/>
       <use xlink:href="#DejaVuSans-11" transform="translate(63.625 0)"/>
       <use xlink:href="#DejaVuSans-19" transform="translate(95.40625 0)"/>
      </g>
     </g>
    </g>
    <g id="ytick_5">
     <g id="line2d_11">
      <g>
       <use xlink:href="#m787f318fdc" x="44.103906" y="97.918125" style="stroke: #000000; stroke-width: 0.8"/>
      </g>
     </g>
     <g id="text_12">
      <!-- 0.8 -->
      <g transform="translate(21.200781 101.716953) scale(0.1 -0.1)">
       <use xlink:href="#DejaVuSans-13"/>
       <use xlink:href="#DejaVuSans-11" transform="translate(63.625 0)"/>
       <use xlink:href="#DejaVuSans-1b" transform="translate(95.40625 0)"/>
      </g>
     </g>
    </g>
    <g id="ytick_6">
     <g id="line2d_12">
      <g>
       <use xlink:href="#m787f318fdc" x="44.103906" y="37.438125" style="stroke: #000000; stroke-width: 0.8"/>
      </g>
     </g>
     <g id="text_13">
      <!-- 1.0 -->
      <g transform="translate(21.200781 41.236953) scale(0.1 -0.1)">
       <use xlink:href="#DejaVuSans-14"/>
       <use xlink:href="#DejaVuSans-11" transform="translate(63.625 0)"/>
       <use xlink:href="#DejaVuSans-13" transform="translate(95.40625 0)"/>
      </g>
     </g>
    </g>
    <g id="text_14">
     <!-- Observed Fraction -->
     <g transform="translate(14.798438 234.242031) rotate(-90) scale(0.1 -0.1)">
      <defs>
       <path id="DejaVuSans-32" d="M 2522 4238 
Q 1834 4238 1429 3725 
Q 1025 3213 1025 2328 
Q 1025 1447 1429 934 
Q 1834 422 2522 422 
Q 3209 422 3611 934 
Q 4013 1447 4013 2328 
Q 4013 3213 3611 3725 
Q 3209 4238 2522 4238 
z
M 2522 4750 
Q 3503 4750 4090 4092 
Q 4678 3434 4678 2328 
Q 4678 1225 4090 567 
Q 3503 -91 2522 -91 
Q 1538 -91 948 565 
Q 359 1222 359 2328 
Q 359 3434 948 4092 
Q 1538 4750 2522 4750 
z
" transform="scale(0.015625)"/>
       <path id="DejaVuSans-56" d="M 2834 3397 
L 2834 2853 
Q 2591 2978 2328 3040 
Q 2066 3103 1784 3103 
Q 1356 3103 1142 2972 
Q 928 2841 928 2578 
Q 928 2378 1081 2264 
Q 1234 2150 1697 2047 
L 1894 2003 
Q 2506 1872 2764 1633 
Q 3022 1394 3022 966 
Q 3022 478 2636 193 
Q 2250 -91 1575 -91 
Q 1294 -91 989 -36 
Q 684 19 347 128 
L 347 722 
Q 666 556 975 473 
Q 1284 391 1588 391 
Q 1994 391 2212 530 
Q 2431 669 2431 922 
Q 2431 1156 2273 1281 
Q 2116 1406 1581 1522 
L 1381 1569 
Q 847 1681 609 1914 
Q 372 2147 372 2553 
Q 372 3047 722 3315 
Q 1072 3584 1716 3584 
Q 2034 3584 2315 3537 
Q 2597 3491 2834 3397 
z
" transform="scale(0.015625)"/>
       <path id="DejaVuSans-59" d="M 191 3500 
L 800 3500 
L 1894 563 
L 2988 3500 
L 3597 3500 
L 2284 0 
L 1503 0 
L 191 3500 
z
" transform="scale(0.015625)"/>
       <path id="DejaVuSans-29" d="M 628 4666 
L 3309 4666 
L 3309 4134 
L 1259 4134 
L 1259 2759 
L 3109 2759 
L 3109 2228 
L 1259 2228 
L 1259 0 
L 628 0 
L 628 4666 
z
" transform="scale(0.015625)"/>
      </defs>
      <use xlink:href="#DejaVuSans-32"/>
      <use xlink:href="#DejaVuSans-45" transform="translate(78.71875 0)"/>
      <use xlink:href="#DejaVuSans-56" transform="translate(142.203125 0)"/>
      <use xlink:href="#DejaVuSans-48" transform="translate(194.296875 0)"/>
      <use xlink:href="#DejaVuSans-55" transform="translate(255.828125 0)"/>
      <use xlink:href="#DejaVuSans-59" transform="translate(296.9375 0)"/>
      <use xlink:href="#DejaVuSans-48" transform="translate(356.125 0)"/>
      <use xlink:href="#DejaVuSans-47" transform="translate(417.65625 0)"/>
      <use xlink:href="#DejaVuSans-3" transform="translate(481.140625 0)"/>
      <use xlink:href="#DejaVuSans-29" transform="translate(512.921875 0)"/>
      <use xlink:href="#DejaVuSans-55" transform="translate(563.15625 0)"/>
      <use xlink:href="#DejaVuSans-44" transform="translate(604.265625 0)"/>
      <use xlink:href="#DejaVuSans-46" transform="translate(665.546875 0)"/>
      <use xlink:href="#DejaVuSans-57" transform="translate(720.53125 0)"/>
      <use xlink:href="#DejaVuSans-4c" transform="translate(759.734375 0)"/>
      <use xlink:href="#DejaVuSans-52" transform="translate(787.515625 0)"/>
      <use xlink:href="#DejaVuSans-51" transform="translate(848.703125 0)"/>
     </g>
    </g>
   </g>
   <g id="line2d_13">
    <path d="M 64.394815 339.838125 
L 470.212997 37.438125 
" clip-path="url(#p9029d7ce1e)" style="fill: none; stroke-dasharray: 5.55,2.4; stroke-dashoffset: 0; stroke: #000000; stroke-opacity: 0.4; stroke-width: 1.5"/>
   </g>
   <g id="line2d_14">
    <path d="M 80.207361 335.530433 
L 123.288351 319.678125 
L 164.778712 297.39602 
L 207.394984 290.533777 
L 244.286885 255.838125 
L 285.068866 241.62274 
L 330.912093 235.37267 
L 368.985161 197.305641 
L 409.013641 127.829429 
L 435.95299 118.85351 
" clip-path="url(#p9029d7ce1e)" style="fill: none; stroke: #2e86c1; stroke-width: 2; stroke-linecap: square"/>
    <defs>
     <path id="m737ae456e3" d="M 0 3 
C 0.795609 3 1.55874 2.683901 2.12132 2.12132 
C 2.683901 1.55874 3 0.795609 3 0 
C 3 -0.795609 2.683901 -1.55874 2.12132 -2.12132 
C 1.55874 -2.683901 0.795609 -3 0 -3 
C -0.795609 -3 -1.55874 -2.683901 -2.12132 -2.12132 
C -2.683901 -1.55874 -3 -0.795609 -3 0 
C -3 0.795609 -2.683901 1.55874 -2.12132 2.12132 
C -1.55874 2.683901 -0.795609 3 0 3 
z
" style="stroke: #2e86c1"/>
    </defs>
    <g clip-path="url(#p9029d7ce1e)">
     <use xlink:href="#m737ae456e3" x="80.207361" y="335.530433" style="fill: #2e86c1; stroke: #2e86c1"/>
     <use xlink:href="#m737ae456e3" x="123.288351" y="319.678125" style="fill: #2e86c1; stroke: #2e86c1"/>
     <use xlink:href="#m737ae456e3" x="164.778712" y="297.39602" style="fill: #2e86c1; stroke: #2e86c1"/>
     <use xlink:href="#m737ae456e3" x="207.394984" y="290.533777" style="fill: #2e86c1; stroke: #2e86c1"/>
     <use xlink:href="#m737ae456e3" x="244.286885" y="255.838125" style="fill: #2e86c1; stroke: #2e86c1"/>
     <use xlink:href="#m737ae456e3" x="285.068866" y="241.62274" style="fill: #2e86c1; stroke: #2e86c1"/>
     <use xlink:href="#m737ae456e3" x="330.912093" y="235.37267" style="fill: #2e86c1; stroke: #2e86c1"/>
     <use xlink:href="#m737ae456e3" x="368.985161" y="197.305641" style="fill: #2e86c1; stroke: #2e86c1"/>
     <use xlink:href="#m737ae456e3" x="409.013641" y="127.829429" style="fill: #2e86c1; stroke: #2e86c1"/>
     <use xlink:href="#m737ae456e3" x="435.95299" y="118.85351" style="fill: #2e86c1; stroke: #2e86c1"/>
    </g>
   </g>
   <g id="line2d_15">
    <path d="M 77.708342 328.064355 
L 128.963684 301.23387 
L 161.030018 286.473419 
L 201.733531 268.685184 
L 244.208566 247.473271 
L 281.535679 264.238125 
L 332.151141 239.038125 
L 369.154392 175.082263 
L 406.418443 154.227091 
L 446.207752 139.600287 
" clip-path="url(#p9029d7ce1e)" style="fill: none; stroke: #1abc9c; stroke-width: 2; stroke-linecap: square"/>
    <defs>
     <path id="m8fc91a2387" d="M 0 3 
C 0.795609 3 1.55874 2.683901 2.12132 2.12132 
C 2.683901 1.55874 3 0.795609 3 0 
C 3 -0.795609 2.683901 -1.55874 2.12132 -2.12132 
C 1.55874 -2.683901 0.795609 -3 0 -3 
C -0.795609 -3 -1.55874 -2.683901 -2.12132 -2.12132 
C -2.683901 -1.55874 -3 -0.795609 -3 0 
C -3 0.795609 -2.683901 1.55874 -2.12132 2.12132 
C -1.55874 2.683901 -0.795609 3 0 3 
z
" style="stroke: #1abc9c"/>
    </defs>
    <g clip-path="url(#p9029d7ce1e)">
     <use xlink:href="#m8fc91a2387" x="77.708342" y="328.064355" style="fill: #1abc9c; stroke: #1abc9c"/>
     <use xlink:href="#m8fc91a2387" x="128.963684" y="301.23387" style="fill: #1abc9c; stroke: #1abc9c"/>
     <use xlink:href="#m8fc91a2387" x="161.030018" y="286.473419" style="fill: #1abc9c; stroke: #1abc9c"/>
     <use xlink:href="#m8fc91a2387" x="201.733531" y="268.685184" style="fill: #1abc9c; stroke: #1abc9c"/>
     <use xlink:href="#m8fc91a2387" x="244.208566" y="247.473271" style="fill: #1abc9c; stroke: #1abc9c"/>
     <use xlink:href="#m8fc91a2387" x="281.535679" y="264.238125" style="fill: #1abc9c; stroke: #1abc9c"/>
     <use xlink:href="#m8fc91a2387" x="332.151141" y="239.038125" style="fill: #1abc9c; stroke: #1abc9c"/>
     <use xlink:href="#m8fc91a2387" x="369.154392" y="175.082263" style="fill: #1abc9c; stroke: #1abc9c"/>
     <use xlink:href="#m8fc91a2387" x="406.418443" y="154.227091" style="fill: #1abc9c; stroke: #1abc9c"/>
     <use xlink:href="#m8fc91a2387" x="446.207752" y="139.600287" style="fill: #1abc9c; stroke: #1abc9c"/>
    </g>
   </g>
   <g id="line2d_16">
    <path d="M 77.013354 326.233217 
L 124.869209 286.959436 
L 164.486645 274.454341 
L 206.553898 248.201761 
L 246.021373 228.958125 
L 286.228285 197.895268 
L 328.446634 174.005867 
L 367.97587 173.731083 
L 410.819938 129.472908 
L 451.103201 123.193349 
" clip-path="url(#p9029d7ce1e)" style="fill: none; stroke: #e67e22; stroke-width: 2; stroke-linecap: square"/>
    <defs>
     <path id="mb069464226" d="M 0 3 
C 0.795609 3 1.55874 2.683901 2.12132 2.12132 
C 2.683901 1.55874 3 0.795609 3 0 
C 3 -0.795609 2.683901 -1.55874 2.12132 -2.12132 
C 1.55874 -2.683901 0.795609 -3 0 -3 
C -0.795609 -3 -1.55874 -2.683901 -2.12132 -2.12132 
C -2.683901 -1.55874 -3 -0.795609 -3 0 
C -3 0.795609 -2.683901 1.55874 -2.12132 2.12132 
C -1.55874 2.683901 -0.795609 3 0 3 
z
" style="stroke: #e67e22"/>
    </defs>
    <g clip-path="url(#p9029d7ce1e)">
     <use xlink:href="#mb069464226" x="77.013354" y="326.233217" style="fill: #e67e22; stroke: #e67e22"/>
     <use xlink:href="#mb069464226" x="124.869209" y="286.959436" style="fill: #e67e22; stroke: #e67e22"/>
     <use xlink:href="#mb069464226" x="164.486645" y="274.454341" style="fill: #e67e22; stroke: #e67e22"/>
     <use xlink:href="#mb069464226" x="206.553898" y="248.201761" style="fill: #e67e22; stroke: #e67e22"/>
     <use xlink:href="#mb069464226" x="246.021373" y="228.958125" style="fill: #e67e22; stroke: #e67e22"/>
     <use xlink:href="#mb069464226" x="286.228285" y="197.895268" style="fill: #e67e22; stroke: #e67e22"/>
     <use xlink:href="#mb069464226" x="328.446634" y="174.005867" style="fill: #e67e22; stroke: #e67e22"/>
     <use xlink:href="#mb069464226" x="367.97587" y="173.731083" style="fill: #e67e22; stroke: #e67e22"/>
     <use xlink:href="#mb069464226" x="410.819938" y="129.472908" style="fill: #e67e22; stroke: #e67e22"/>
     <use xlink:href="#mb069464226" x="451.103201" y="123.193349" style="fill: #e67e22; stroke: #e67e22"/>
    </g>
   </g>
   <g id="line2d_17">
    <path d="M 74.792056 319.080559 
L 123.998433 282.02636 
L 162.520633 251.400389 
L 204.336525 229.100097 
L 246.374613 218.878125 
L 287.138255 208.676679 
L 328.870863 201.238125 
L 367.105277 165.854563 
L 408.92271 131.427314 
L 446.573535 126.607356 
" clip-path="url(#p9029d7ce1e)" style="fill: none; stroke: #e74c3c; stroke-width: 2; stroke-linecap: square"/>
    <defs>
     <path id="me63ab033c7" d="M 0 3 
C 0.795609 3 1.55874 2.683901 2.12132 2.12132 
C 2.683901 1.55874 3 0.795609 3 0 
C 3 -0.795609 2.683901 -1.55874 2.12132 -2.12132 
C 1.55874 -2.683901 0.795609 -3 0 -3 
C -0.795609 -3 -1.55874 -2.683901 -2.12132 -2.12132 
C -2.683901 -1.55874 -3 -0.795609 -3 0 
C -3 0.795609 -2.683901 1.55874 -2.12132 2.12132 
C -1.55874 2.683901 -0.795609 3 0 3 
z
" style="stroke: #e74c3c"/>
    </defs>
    <g clip-path="url(#p9029d7ce1e)">
     <use xlink:href="#me63ab033c7" x="74.792056" y="319.080559" style="fill: #e74c3c; stroke: #e74c3c"/>
     <use xlink:href="#me63ab033c7" x="123.998433" y="282.02636" style="fill: #e74c3c; stroke: #e74c3c"/>
     <use xlink:href="#me63ab033c7" x="162.520633" y="251.400389" style="fill: #e74c3c; stroke: #e74c3c"/>
     <use xlink:href="#me63ab033c7" x="204.336525" y="229.100097" style="fill: #e74c3c; stroke: #e74c3c"/>
     <use xlink:href="#me63ab033c7" x="246.374613" y="218.878125" style="fill: #e74c3c; stroke: #e74c3c"/>
     <use xlink:href="#me63ab033c7" x="287.138255" y="208.676679" style="fill: #e74c3c; stroke: #e74c3c"/>
     <use xlink:href="#me63ab033c7" x="328.870863" y="201.238125" style="fill: #e74c3c; stroke: #e74c3c"/>
     <use xlink:href="#me63ab033c7" x="367.105277" y="165.854563" style="fill: #e74c3c; stroke: #e74c3c"/>
     <use xlink:href="#me63ab033c7" x="408.92271" y="131.427314" style="fill: #e74c3c; stroke: #e74c3c"/>
     <use xlink:href="#me63ab033c7" x="446.573535" y="126.607356" style="fill: #e74c3c; stroke: #e74c3c"/>
    </g>
   </g>
   <g id="line2d_18">
    <path d="M 77.848853 325.073568 
L 125.441817 287.998125 
L 164.653697 268.217072 
L 205.022245 225.134677 
L 244.969201 247.803342 
L 287.0017 210.688125 
L 330.039777 204.723231 
L 367.66187 159.757226 
L 407.720195 114.976587 
L 442.019455 104.638125 
" clip-path="url(#p9029d7ce1e)" style="fill: none; stroke: #8e44ad; stroke-width: 2; stroke-linecap: square"/>
    <defs>
     <path id="m67dbe96e5c" d="M 0 3 
C 0.795609 3 1.55874 2.683901 2.12132 2.12132 
C 2.683901 1.55874 3 0.795609 3 0 
C 3 -0.795609 2.683901 -1.55874 2.12132 -2.12132 
C 1.55874 -2.683901 0.795609 -3 0 -3 
C -0.795609 -3 -1.55874 -2.683901 -2.12132 -2.12132 
C -2.683901 -1.55874 -3 -0.795609 -3 0 
C -3 0.795609 -2.683901 1.55874 -2.12132 2.12132 
C -1.55874 2.683901 -0.795609 3 0 3 
z
" style="stroke: #8e44ad"/>
    </defs>
    <g clip-path="url(#p9029d7ce1e)">
     <use xlink:href="#m67dbe96e5c" x="77.848853" y="325.073568" style="fill: #8e44ad; stroke: #8e44ad"/>
     <use xlink:href="#m67dbe96e5c" x="125.441817" y="287.998125" style="fill: #8e44ad; stroke: #8e44ad"/>
     <use xlink:href="#m67dbe96e5c" x="164.653697" y="268.217072" style="fill: #8e44ad; stroke: #8e44ad"/>
     <use xlink:href="#m67dbe96e5c" x="205.022245" y="225.134677" style="fill: #8e44ad; stroke: #8e44ad"/>
     <use xlink:href="#m67dbe96e5c" x="244.969201" y="247.803342" style="fill: #8e44ad; stroke: #8e44ad"/>
     <use xlink:href="#m67dbe96e5c" x="287.0017" y="210.688125" style="fill: #8e44ad; stroke: #8e44ad"/>
     <use xlink:href="#m67dbe96e5c" x="330.039777" y="204.723231" style="fill: #8e44ad; stroke: #8e44ad"/>
     <use xlink:href="#m67dbe96e5c" x="367.66187" y="159.757226" style="fill: #8e44ad; stroke: #8e44ad"/>
     <use xlink:href="#m67dbe96e5c" x="407.720195" y="114.976587" style="fill: #8e44ad; stroke: #8e44ad"/>
     <use xlink:href="#m67dbe96e5c" x="442.019455" y="104.638125" style="fill: #8e44ad; stroke: #8e44ad"/>
    </g>
   </g>
   <g id="line2d_19">
    <path d="M 77.288988 327.328772 
L 121.498578 290.031066 
L 165.582836 253.770433 
L 206.929413 240.314074 
L 246.223398 225.134677 
L 286.887913 210.238125 
L 328.028021 210.723518 
L 366.96922 131.286401 
L 409.64509 136.857303 
L 443.488971 76.04238 
" clip-path="url(#p9029d7ce1e)" style="fill: none; stroke: #2c3e50; stroke-width: 2; stroke-linecap: square"/>
    <defs>
     <path id="m47c9517242" d="M 0 3 
C 0.795609 3 1.55874 2.683901 2.12132 2.12132 
C 2.683901 1.55874 3 0.795609 3 0 
C 3 -0.795609 2.683901 -1.55874 2.12132 -2.12132 
C 1.55874 -2.683901 0.795609 -3 0 -3 
C -0.795609 -3 -1.55874 -2.683901 -2.12132 -2.12132 
C -2.683901 -1.55874 -3 -0.795609 -3 0 
C -3 0.795609 -2.683901 1.55874 -2.12132 2.12132 
C -1.55874 2.683901 -0.795609 3 0 3 
z
" style="stroke: #2c3e50"/>
    </defs>
    <g clip-path="url(#p9029d7ce1e)">
     <use xlink:href="#m47c9517242" x="77.288988" y="327.328772" style="fill: #2c3e50; stroke: #2c3e50"/>
     <use xlink:href="#m47c9517242" x="121.498578" y="290.031066" style="fill: #2c3e50; stroke: #2c3e50"/>
     <use xlink:href="#m47c9517242" x="165.582836" y="253.770433" style="fill: #2c3e50; stroke: #2c3e50"/>
     <use xlink:href="#m47c9517242" x="206.929413" y="240.314074" style="fill: #2c3e50; stroke: #2c3e50"/>
     <use xlink:href="#m47c9517242" x="246.223398" y="225.134677" style="fill: #2c3e50; stroke: #2c3e50"/>
     <use xlink:href="#m47c9517242" x="286.887913" y="210.238125" style="fill: #2c3e50; stroke: #2c3e50"/>
     <use xlink:href="#m47c9517242" x="328.028021" y="210.723518" style="fill: #2c3e50; stroke: #2c3e50"/>
     <use xlink:href="#m47c9517242" x="366.96922" y="131.286401" style="fill: #2c3e50; stroke: #2c3e50"/>
     <use xlink:href="#m47c9517242" x="409.64509" y="136.857303" style="fill: #2c3e50; stroke: #2c3e50"/>
     <use xlink:href="#m47c9517242" x="443.488971" y="76.04238" style="fill: #2c3e50; stroke: #2c3e50"/>
    </g>
   </g>
   <g id="line2d_20">
    <path d="M 78.047417 325.059178 
L 123.690778 287.543388 
L 165.149059 279.358125 
L 207.627475 232.443732 
L 238.598292 259.95888 
L 288.22507 216.638125 
L 329.627105 214.061134 
L 368.651134 193.129214 
L 409.494017 132.066696 
L 444.15213 83.961202 
" clip-path="url(#p9029d7ce1e)" style="fill: none; stroke: #16a085; stroke-width: 2; stroke-linecap: square"/>
    <defs>
     <path id="m7917f8e16c" d="M 0 3 
C 0.795609 3 1.55874 2.683901 2.12132 2.12132 
C 2.683901 1.55874 3 0.795609 3 0 
C 3 -0.795609 2.683901 -1.55874 2.12132 -2.12132 
C 1.55874 -2.683901 0.795609 -3 0 -3 
C -0.795609 -3 -1.55874 -2.683901 -2.12132 -2.12132 
C -2.683901 -1.55874 -3 -0.795609 -3 0 
C -3 0.795609 -2.683901 1.55874 -2.12132 2.12132 
C -1.55874 2.683901 -0.795609 3 0 3 
z
" style="stroke: #16a085"/>
    </defs>
    <g clip-path="url(#p9029d7ce1e)">
     <use xlink:href="#m7917f8e16c" x="78.047417" y="325.059178" style="fill: #16a085; stroke: #16a085"/>
     <use xlink:href="#m7917f8e16c" x="123.690778" y="287.543388" style="fill: #16a085; stroke: #16a085"/>
     <use xlink:href="#m7917f8e16c" x="165.149059" y="279.358125" style="fill: #16a085; stroke: #16a085"/>
     <use xlink:href="#m7917f8e16c" x="207.627475" y="232.443732" style="fill: #16a085; stroke: #16a085"/>
     <use xlink:href="#m7917f8e16c" x="238.598292" y="259.95888" style="fill: #16a085; stroke: #16a085"/>
     <use xlink:href="#m7917f8e16c" x="288.22507" y="216.638125" style="fill: #16a085; stroke: #16a085"/>
     <use xlink:href="#m7917f8e16c" x="329.627105" y="214.061134" style="fill: #16a085; stroke: #16a085"/>
     <use xlink:href="#m7917f8e16c" x="368.651134" y="193.129214" style="fill: #16a085; stroke: #16a085"/>
     <use xlink:href="#m7917f8e16c" x="409.494017" y="132.066696" style="fill: #16a085; stroke: #16a085"/>
     <use xlink:href="#m7917f8e16c" x="444.15213" y="83.961202" style="fill: #16a085; stroke: #16a085"/>
    </g>
   </g>
   <g id="patch_3">
    <path d="M 44.103906 354.958125 
L 44.103906 22.318125 
" style="fill: none; stroke: #000000; stroke-width: 0.8; stroke-linejoin: miter; stroke-linecap: square"/>
   </g>
   <g id="patch_4">
    <path d="M 490.503906 354.958125 
L 490.503906 22.318125 
" style="fill: none; stroke: #000000; stroke-width: 0.8; stroke-linejoin: miter; stroke-linecap: square"/>
   </g>
   <g id="patch_5">
    <path d="M 44.103906 354.958125 
L 490.503906 354.958125 
" style="fill: none; stroke: #000000; stroke-width: 0.8; stroke-linejoin: miter; stroke-linecap: square"/>
   </g>
   <g id="patch_6">
    <path d="M 44.103906 22.318125 
L 490.503906 22.318125 
" style="fill: none; stroke: #000000; stroke-width: 0.8; stroke-linejoin: miter; stroke-linecap: square"/>
   </g>
   <g id="text_15">
    <!-- Calibration Curves -->
    <g transform="translate(211.923906 16.318125) scale(0.12 -0.12)">
     <defs>
      <path id="DejaVuSans-26" d="M 4122 4306 
L 4122 3641 
Q 3803 3938 3442 4084 
Q 3081 4231 2675 4231 
Q 1875 4231 1450 3742 
Q 1025 3253 1025 2328 
Q 1025 1406 1450 917 
Q 1875 428 2675 428 
Q 3081 428 3442 575 
Q 3803 722 4122 1019 
L 4122 359 
Q 3791 134 3420 21 
Q 3050 -91 2638 -91 
Q 1578 -91 968 557 
Q 359 1206 359 2328 
Q 359 3453 968 4101 
Q 1578 4750 2638 4750 
Q 3056 4750 3426 4639 
Q 3797 4528 4122 4306 
z
" transform="scale(0.015625)"/>
      <path id="DejaVuSans-58" d="M 544 1381 
L 544 3500 
L 1119 3500 
L 1119 1403 
Q 1119 906 1312 657 
Q 1506 409 1894 409 
Q 2359 409 2629 706 
Q 2900 1003 2900 1516 
L 2900 3500 
L 3475 3500 
L 3475 0 
L 2900 0 
L 2900 538 
Q 2691 219 2414 64 
Q 2138 -91 1772 -91 
Q 1169 -91 856 284 
Q 544 659 544 1381 
z
M 1991 3584 
L 1991 3584 
z
" transform="scale(0.015625)"/>
     </defs>
     <use xlink:href="#DejaVuSans-26"/>
     <use xlink:href="#DejaVuSans-44" transform="translate(69.828125 0)"/>
     <use xlink:href="#DejaVuSans-4f" transform="translate(131.109375 0)"/>
     <use xlink:href="#DejaVuSans-4c" transform="translate(158.890625 0)"/>
     <use xlink:href="#DejaVuSans-45" transform="translate(186.671875 0)"/>
     <use xlink:href="#DejaVuSans-55" transform="translate(250.15625 0)"/>
     <use xlink:href="#DejaVuSans-44" transform="translate(291.265625 0)"/>
     <use xlink:href="#DejaVuSans-57" transform="translate(352.546875 0)"/>
     <use xlink:href="#DejaVuSans-4c" transform="translate(391.75 0)"/>
     <use xlink:href="#DejaVuSans-52" transform="translate(419.53125 0)"/>
     <use xlink:href="#DejaVuSans-51" transform="translate(480.71875 0)"/>
     <use xlink:href="#DejaVuSans-3" transform="translate(544.09375 0)"/>
     <use xlink:href="#DejaVuSans-26" transform="translate(575.875 0)"/>
     <use xlink:href="#DejaVuSans-58" transform="translate(645.703125 0)"/>
     <use xlink:href="#DejaVuSans-55" transform="translate(709.078125 0)"/>
     <use xlink:href="#DejaVuSans-59" transform="translate(750.1875 0)"/>
     <use xlink:href="#DejaVuSans-48" transform="translate(809.375 0)"/>
     <use xlink:href="#DejaVuSans-56" transform="translate(870.90625 0)"/>
    </g>
   </g>
   <g id="legend_1">
    <g id="patch_7">
     <path d="M 49.003906 111.9225 
L 138.551406 111.9225 
Q 139.951406 111.9225 139.951406 110.5225 
L 139.951406 27.218125 
Q 139.951406 25.818125 138.551406 25.818125 
L 49.003906 25.818125 
Q 47.603906 25.818125 47.603906 27.218125 
L 47.603906 110.5225 
Q 47.603906 111.9225 49.003906 111.9225 
z
" style="fill: #ffffff; opacity: 0.8; stroke: #cccccc; stroke-linejoin: miter"/>
    </g>
    <g id="line2d_21">
     <path d="M 50.403906 31.487031 
L 57.403906 31.487031 
L 64.403906 31.487031 
" style="fill: none; stroke-dasharray: 5.55,2.4; stroke-dashoffset: 0; stroke: #000000; stroke-opacity: 0.4; stroke-width: 1.5"/>
    </g>
    <g id="text_16">
     <!-- Perfect -->
     <g transform="translate(70.003906 33.937031) scale(0.07 -0.07)">
      <defs>
       <path id="DejaVuSans-49" d="M 2375 4863 
L 2375 4384 
L 1825 4384 
Q 1516 4384 1395 4259 
Q 1275 4134 1275 3809 
L 1275 3500 
L 2222 3500 
L 2222 3053 
L 1275 3053 
L 1275 0 
L 697 0 
L 697 3053 
L 147 3053 
L 147 3500 
L 697 3500 
L 697 3744 
Q 697 4328 969 4595 
Q 1241 4863 1831 4863 
L 2375 4863 
z
" transform="scale(0.015625)"/>
      </defs>
      <use xlink:href="#DejaVuSans-33"/>
      <use xlink:href="#DejaVuSans-48" transform="translate(56.734375 0)"/>
      <use xlink:href="#DejaVuSans-55" transform="translate(118.265625 0)"/>
      <use xlink:href="#DejaVuSans-49" transform="translate(159.375 0)"/>
      <use xlink:href="#DejaVuSans-48" transform="translate(194.578125 0)"/>
      <use xlink:href="#DejaVuSans-46" transform="translate(256.109375 0)"/>
      <use xlink:href="#DejaVuSans-57" transform="translate(311.09375 0)"/>
     </g>
    </g>
    <g id="line2d_22">
     <path d="M 50.403906 41.987578 
L 57.403906 41.987578 
L 64.403906 41.987578 
" style="fill: none; stroke: #2e86c1; stroke-width: 2; stroke-linecap: square"/>
     <g>
      <use xlink:href="#m737ae456e3" x="57.403906" y="41.987578" style="fill: #2e86c1; stroke: #2e86c1"/>
     </g>
    </g>
    <g id="text_17">
     <!-- Logistic Regression -->
     <g transform="translate(70.003906 44.437578) scale(0.07 -0.07)">
      <defs>
       <path id="DejaVuSans-2f" d="M 628 4666 
L 1259 4666 
L 1259 531 
L 3531 531 
L 3531 0 
L 628 0 
L 628 4666 
z
" transform="scale(0.015625)"/>
       <path id="DejaVuSans-4a" d="M 2906 1791 
Q 2906 2416 2648 2759 
Q 2391 3103 1925 3103 
Q 1463 3103 1205 2759 
Q 947 2416 947 1791 
Q 947 1169 1205 825 
Q 1463 481 1925 481 
Q 2391 481 2648 825 
Q 2906 1169 2906 1791 
z
M 3481 434 
Q 3481 -459 3084 -895 
Q 2688 -1331 1869 -1331 
Q 1566 -1331 1297 -1286 
Q 1028 -1241 775 -1147 
L 775 -588 
Q 1028 -725 1275 -790 
Q 1522 -856 1778 -856 
Q 2344 -856 2625 -561 
Q 2906 -266 2906 331 
L 2906 616 
Q 2728 306 2450 153 
Q 2172 0 1784 0 
Q 1141 0 747 490 
Q 353 981 353 1791 
Q 353 2603 747 3093 
Q 1141 3584 1784 3584 
Q 2172 3584 2450 3431 
Q 2728 3278 2906 2969 
L 2906 3500 
L 3481 3500 
L 3481 434 
z
" transform="scale(0.015625)"/>
       <path id="DejaVuSans-35" d="M 2841 2188 
Q 3044 2119 3236 1894 
Q 3428 1669 3622 1275 
L 4263 0 
L 3584 0 
L 2988 1197 
Q 2756 1666 2539 1819 
Q 2322 1972 1947 1972 
L 1259 1972 
L 1259 0 
L 628 0 
L 628 4666 
L 2053 4666 
Q 2853 4666 3247 4331 
Q 3641 3997 3641 3322 
Q 3641 2881 3436 2590 
Q 3231 2300 2841 2188 
z
M 1259 4147 
L 1259 2491 
L 2053 2491 
Q 2509 2491 2742 2702 
Q 2975 2913 2975 3322 
Q 2975 3731 2742 3939 
Q 2509 4147 2053 4147 
L 1259 4147 
z
" transform="scale(0.015625)"/>
      </defs>
      <use xlink:href="#DejaVuSans-2f"/>
      <use xlink:href="#DejaVuSans-52" transform="translate(53.96875 0)"/>
      <use xlink:href="#DejaVuSans-4a" transform="translate(115.15625 0)"/>
      <use xlink:href="#DejaVuSans-4c" transform="translate(178.640625 0)"/>
      <use xlink:href="#DejaVuSans-56" transform="translate(206.421875 0)"/>
      <use xlink:href="#DejaVuSans-57" transform="translate(258.515625 0)"/>
      <use xlink:href="#DejaVuSans-4c" transform="translate(297.71875 0)"/>
      <use xlink:href="#DejaVuSans-46" transform="translate(325.5 0)"/>
      <use xlink:href="#DejaVuSans-3" transform="translate(380.484375 0)"/>
      <use xlink:href="#DejaVuSans-35" transform="translate(412.265625 0)"/>
      <use xlink:href="#DejaVuSans-48" transform="translate(477.265625 0)"/>
      <use xlink:href="#DejaVuSans-4a" transform="translate(538.796875 0)"/>
      <use xlink:href="#DejaVuSans-55" transform="translate(602.28125 0)"/>
      <use xlink:href="#DejaVuSans-48" transform="translate(641.1875 0)"/>
      <use xlink:href="#DejaVuSans-56" transform="translate(702.71875 0)"/>
      <use xlink:href="#DejaVuSans-56" transform="translate(754.8125 0)"/>
      <use xlink:href="#DejaVuSans-4c" transform="translate(806.90625 0)"/>
      <use xlink:href="#DejaVuSans-52" transform="translate(834.6875 0)"/>
      <use xlink:href="#DejaVuSans-51" transform="translate(895.875 0)"/>
     </g>
    </g>
    <g id="line2d_23">
     <path d="M 50.403906 52.488125 
L 57.403906 52.488125 
L 64.403906 52.488125 
" style="fill: none; stroke: #1abc9c; stroke-width: 2; stroke-linecap: square"/>
     <g>
      <use xlink:href="#m8fc91a2387" x="57.403906" y="52.488125" style="fill: #1abc9c; stroke: #1abc9c"/>
     </g>
    </g>
    <g id="text_18">
     <!-- Decision Tree -->
     <g transform="translate(70.003906 54.938125) scale(0.07 -0.07)">
      <defs>
       <path id="DejaVuSans-27" d="M 1259 4147 
L 1259 519 
L 2022 519 
Q 2988 519 3436 956 
Q 3884 1394 3884 2338 
Q 3884 3275 3436 3711 
Q 2988 4147 2022 4147 
L 1259 4147 
z
M 628 4666 
L 1925 4666 
Q 3281 4666 3915 4102 
Q 4550 3538 4550 2338 
Q 4550 1131 3912 565 
Q 3275 0 1925 0 
L 628 0 
L 628 4666 
z
" transform="scale(0.015625)"/>
       <path id="DejaVuSans-37" d="M -19 4666 
L 3928 4666 
L 3928 4134 
L 2272 4134 
L 2272 0 
L 1638 0 
L 1638 4134 
L -19 4134 
L -19 4666 
z
" transform="scale(0.015625)"/>
      </defs>
      <use xlink:href="#DejaVuSans-27"/>
      <use xlink:href="#DejaVuSans-48" transform="translate(77 0)"/>
      <use xlink:href="#DejaVuSans-46" transform="translate(138.53125 0)"/>
      <use xlink:href="#DejaVuSans-4c" transform="translate(193.515625 0)"/>
      <use xlink:href="#DejaVuSans-56" transform="translate(221.296875 0)"/>
      <use xlink:href="#DejaVuSans-4c" transform="translate(273.390625 0)"/>
      <use xlink:href="#DejaVuSans-52" transform="translate(301.171875 0)"/>
      <use xlink:href="#DejaVuSans-51" transform="translate(362.359375 0)"/>
      <use xlink:href="#DejaVuSans-3" transform="translate(425.734375 0)"/>
      <use xlink:href="#DejaVuSans-37" transform="translate(457.515625 0)"/>
      <use xlink:href="#DejaVuSans-55" transform="translate(503.890625 0)"/>
      <use xlink:href="#DejaVuSans-48" transform="translate(542.796875 0)"/>
      <use xlink:href="#DejaVuSans-48" transform="translate(604.328125 0)"/>
     </g>
    </g>
    <g id="line2d_24">
     <path d="M 50.403906 62.988672 
L 57.403906 62.988672 
L 64.403906 62.988672 
" style="fill: none; stroke: #e67e22; stroke-width: 2; stroke-linecap: square"/>
     <g>
      <use xlink:href="#mb069464226" x="57.403906" y="62.988672" style="fill: #e67e22; stroke: #e67e22"/>
     </g>
    </g>
    <g id="text_19">
     <!-- Random Forest -->
     <g transform="translate(70.003906 65.438672) scale(0.07 -0.07)">
      <defs>
       <path id="DejaVuSans-50" d="M 3328 2828 
Q 3544 3216 3844 3400 
Q 4144 3584 4550 3584 
Q 5097 3584 5394 3201 
Q 5691 2819 5691 2113 
L 5691 0 
L 5113 0 
L 5113 2094 
Q 5113 2597 4934 2840 
Q 4756 3084 4391 3084 
Q 3944 3084 3684 2787 
Q 3425 2491 3425 1978 
L 3425 0 
L 2847 0 
L 2847 2094 
Q 2847 2600 2669 2842 
Q 2491 3084 2119 3084 
Q 1678 3084 1418 2786 
Q 1159 2488 1159 1978 
L 1159 0 
L 581 0 
L 581 3500 
L 1159 3500 
L 1159 2956 
Q 1356 3278 1631 3431 
Q 1906 3584 2284 3584 
Q 2666 3584 2933 3390 
Q 3200 3197 3328 2828 
z
" transform="scale(0.015625)"/>
      </defs>
      <use xlink:href="#DejaVuSans-35"/>
      <use xlink:href="#DejaVuSans-44" transform="translate(67.28125 0)"/>
      <use xlink:href="#DejaVuSans-51" transform="translate(128.5625 0)"/>
      <use xlink:href="#DejaVuSans-47" transform="translate(191.9375 0)"/>
      <use xlink:href="#DejaVuSans-52" transform="translate(255.421875 0)"/>
      <use xlink:href="#DejaVuSans-50" transform="translate(316.609375 0)"/>
      <use xlink:href="#DejaVuSans-3" transform="translate(414.015625 0)"/>
      <use xlink:href="#DejaVuSans-29" transform="translate(445.796875 0)"/>
      <use xlink:href="#DejaVuSans-52" transform="translate(499.75 0)"/>
      <use xlink:href="#DejaVuSans-55" transform="translate(560.9375 0)"/>
      <use xlink:href="#DejaVuSans-48" transform="translate(599.84375 0)"/>
      <use xlink:href="#DejaVuSans-56" transform="translate(661.375 0)"/>
      <use xlink:href="#DejaVuSans-57" transform="translate(713.46875 0)"/>
     </g>
    </g>
    <g id="line2d_25">
     <path d="M 50.403906 73.489219 
L 57.403906 73.489219 
L 64.403906 73.489219 
" style="fill: none; stroke: #e74c3c; stroke-width: 2; stroke-linecap: square"/>
     <g>
      <use xlink:href="#me63ab033c7" x="57.403906" y="73.489219" style="fill: #e74c3c; stroke: #e74c3c"/>
     </g>
    </g>
    <g id="text_20">
     <!-- XGBoost -->
     <g transform="translate(70.003906 75.939219) scale(0.07 -0.07)">
      <defs>
       <path id="DejaVuSans-3b" d="M 403 4666 
L 1081 4666 
L 2241 2931 
L 3406 4666 
L 4084 4666 
L 2584 2425 
L 4184 0 
L 3506 0 
L 2194 1984 
L 872 0 
L 191 0 
L 1856 2491 
L 403 4666 
z
" transform="scale(0.015625)"/>
       <path id="DejaVuSans-2a" d="M 3809 666 
L 3809 1919 
L 2778 1919 
L 2778 2438 
L 4434 2438 
L 4434 434 
Q 4069 175 3628 42 
Q 3188 -91 2688 -91 
Q 1594 -91 976 548 
Q 359 1188 359 2328 
Q 359 3472 976 4111 
Q 1594 4750 2688 4750 
Q 3144 4750 3555 4637 
Q 3966 4525 4313 4306 
L 4313 3634 
Q 3963 3931 3569 4081 
Q 3175 4231 2741 4231 
Q 1884 4231 1454 3753 
Q 1025 3275 1025 2328 
Q 1025 1384 1454 906 
Q 1884 428 2741 428 
Q 3075 428 3337 486 
Q 3600 544 3809 666 
z
" transform="scale(0.015625)"/>
       <path id="DejaVuSans-25" d="M 1259 2228 
L 1259 519 
L 2272 519 
Q 2781 519 3026 730 
Q 3272 941 3272 1375 
Q 3272 1813 3026 2020 
Q 2781 2228 2272 2228 
L 1259 2228 
z
M 1259 4147 
L 1259 2741 
L 2194 2741 
Q 2656 2741 2882 2914 
Q 3109 3088 3109 3444 
Q 3109 3797 2882 3972 
Q 2656 4147 2194 4147 
L 1259 4147 
z
M 628 4666 
L 2241 4666 
Q 2963 4666 3353 4366 
Q 3744 4066 3744 3513 
Q 3744 3084 3544 2831 
Q 3344 2578 2956 2516 
Q 3422 2416 3680 2098 
Q 3938 1781 3938 1306 
Q 3938 681 3513 340 
Q 3088 0 2303 0 
L 628 0 
L 628 4666 
z
" transform="scale(0.015625)"/>
      </defs>
      <use xlink:href="#DejaVuSans-3b"/>
      <use xlink:href="#DejaVuSans-2a" transform="translate(68.5 0)"/>
      <use xlink:href="#DejaVuSans-25" transform="translate(145.984375 0)"/>
      <use xlink:href="#DejaVuSans-52" transform="translate(214.59375 0)"/>
      <use xlink:href="#DejaVuSans-52" transform="translate(275.78125 0)"/>
      <use xlink:href="#DejaVuSans-56" transform="translate(336.96875 0)"/>
      <use xlink:href="#DejaVuSans-57" transform="translate(389.0625 0)"/>
     </g>
    </g>
    <g id="line2d_26">
     <path d="M 50.403906 83.989766 
L 57.403906 83.989766 
L 64.403906 83.989766 
" style="fill: none; stroke: #8e44ad; stroke-width: 2; stroke-linecap: square"/>
     <g>
      <use xlink:href="#m67dbe96e5c" x="57.403906" y="83.989766" style="fill: #8e44ad; stroke: #8e44ad"/>
     </g>
    </g>
    <g id="text_21">
     <!-- LightGBM -->
     <g transform="translate(70.003906 86.439766) scale(0.07 -0.07)">
      <defs>
       <path id="DejaVuSans-4b" d="M 3513 2113 
L 3513 0 
L 2938 0 
L 2938 2094 
Q 2938 2591 2744 2837 
Q 2550 3084 2163 3084 
Q 1697 3084 1428 2787 
Q 1159 2491 1159 1978 
L 1159 0 
L 581 0 
L 581 4863 
L 1159 4863 
L 1159 2956 
Q 1366 3272 1645 3428 
Q 1925 3584 2291 3584 
Q 2894 3584 3203 3211 
Q 3513 2838 3513 2113 
z
" transform="scale(0.015625)"/>
      </defs>
      <use xlink:href="#DejaVuSans-2f"/>
      <use xlink:href="#DejaVuSans-4c" transform="translate(55.71875 0)"/>
      <use xlink:href="#DejaVuSans-4a" transform="translate(83.5 0)"/>
      <use xlink:href="#DejaVuSans-4b" transform="translate(146.984375 0)"/>
      <use xlink:href="#DejaVuSans-57" transform="translate(210.359375 0)"/>
      <use xlink:href="#DejaVuSans-2a" transform="translate(249.5625 0)"/>
      <use xlink:href="#DejaVuSans-25" transform="translate(327.046875 0)"/>
      <use xlink:href="#DejaVuSans-30" transform="translate(395.65625 0)"/>
     </g>
    </g>
    <g id="line2d_27">
     <path d="M 50.403906 94.490313 
L 57.403906 94.490313 
L 64.403906 94.490313 
" style="fill: none; stroke: #2c3e50; stroke-width: 2; stroke-linecap: square"/>
     <g>
      <use xlink:href="#m47c9517242" x="57.403906" y="94.490313" style="fill: #2c3e50; stroke: #2c3e50"/>
     </g>
    </g>
    <g id="text_22">
     <!-- CatBoost -->
     <g transform="translate(70.003906 96.940313) scale(0.07 -0.07)">
      <use xlink:href="#DejaVuSans-26"/>
      <use xlink:href="#DejaVuSans-44" transform="translate(69.828125 0)"/>
      <use xlink:href="#DejaVuSans-57" transform="translate(131.109375 0)"/>
      <use xlink:href="#DejaVuSans-25" transform="translate(170.3125 0)"/>
      <use xlink:href="#DejaVuSans-52" transform="translate(238.921875 0)"/>
      <use xlink:href="#DejaVuSans-52" transform="translate(300.109375 0)"/>
      <use xlink:href="#DejaVuSans-56" transform="translate(361.296875 0)"/>
      <use xlink:href="#DejaVuSans-57" transform="translate(413.390625 0)"/>
     </g>
    </g>
    <g id="line2d_28">
     <path d="M 50.403906 104.990859 
L 57.403906 104.990859 
L 64.403906 104.990859 
" style="fill: none; stroke: #16a085; stroke-width: 2; stroke-linecap: square"/>
     <g>
      <use xlink:href="#m7917f8e16c" x="57.403906" y="104.990859" style="fill: #16a085; stroke: #16a085"/>
     </g>
    </g>
    <g id="text_23">
     <!-- TabNet -->
     <g transform="translate(70.003906 107.440859) scale(0.07 -0.07)">
      <defs>
       <path id="DejaVuSans-31" d="M 628 4666 
L 1478 4666 
L 3547 763 
L 3547 4666 
L 4159 4666 
L 4159 0 
L 3309 0 
L 1241 3903 
L 1241 0 
L 628 0 
L 628 4666 
z
" transform="scale(0.015625)"/>
      </defs>
      <use xlink:href="#DejaVuSans-37"/>
      <use xlink:href="#DejaVuSans-44" transform="translate(44.53125 0)"/>
      <use xlink:href="#DejaVuSans-45" transform="translate(105.8125 0)"/>
      <use xlink:href="#DejaVuSans-31" transform="translate(169.296875 0)"/>
      <use xlink:href="#DejaVuSans-48" transform="translate(244.109375 0)"/>
      <use xlink:href="#DejaVuSans-57" transform="translate(305.640625 0)"/>
     </g>
    </g>
   </g>
  </g>
 </g>
 <defs>
  <clipPath id="p9029d7ce1e">
   <rect x="44.103906" y="22.318125" width="446.4" height="332.64"/>
  </clipPath>
 </defs>
</svg>
