<?xml version="1.0" encoding="utf-8" standalone="no"?>
<!DOCTYPE svg PUBLIC "-//W3C//DTD SVG 1.1//EN"
  "http://www.w3.org/Graphics/SVG/1.1/DTD/svg11.dtd">
<svg xmlns:xlink="http://www.w3.org/1999/xlink" width="673.680469pt" height="393.158906pt" viewBox="0 0 673.680469 393.158906" xmlns="http://www.w3.org/2000/svg" version="1.1">
 <metadata>
  <rdf:RDF xmlns:dc="http://purl.org/dc/elements/1.1/" xmlns:cc="http://creativecommons.org/ns#" xmlns:rdf="http://www.w3.org/1999/02/22-rdf-syntax-ns#">
   <cc:Work>
    <dc:type rdf:resource="http://purl.org/dc/dcmitype/StillImage"/>
    <dc:date>2026-07-15T12:57:52.434869</dc:date>
    <dc:format>image/svg+xml</dc:format>
    <dc:creator>
     <cc:Agent>
      <dc:title>Matplotlib v3.11.0, https://matplotlib.org/</dc:title>
     </cc:Agent>
    </dc:creator>
   </cc:Work>
  </rdf:RDF>
 </metadata>
 <defs>
  <style type="text/css">*{stroke-linejoin: round; stroke-linecap: butt}</style>
 </defs>
 <g id="figure_1">
  <g id="patch_1">
   <path d="M 0 393.158906 
L 673.680469 393.158906 
L 673.680469 0 
L 0 0 
z
" style="fill: #ffffff"/>
  </g>
  <g id="axes_1">
   <g id="patch_2">
    <path d="M 68.392969 354.958125 
L 626.392969 354.958125 
L 626.392969 22.318125 
L 68.392969 22.318125 
z
" style="fill: #ffffff"/>
   </g>
   <g id="matplotlib.axis_1">
    <g id="xtick_1">
     <g id="line2d_1">
      <defs>
       <path id="m32d4d11353" d="M 0 0 
L 0 3.5 
" style="stroke: #000000; stroke-width: 0.8"/>
      </defs>
      <g>
       <use xlink:href="#m32d4d11353" x="92.165946" y="354.958125" style="stroke: #000000; stroke-width: 0.8"/>
      </g>
     </g>
     <g id="text_1">
      <!-- 0 -->
      <g transform="translate(88.984696 369.555781) scale(0.1 -0.1)">
       <defs>
        <path id="DejaVuSans-13" d="M 2034 4250 
Q 1547 4250 1301 3770 
Q 1056 3291 1056 2328 
Q 1056 1369 1301 889 
Q 1547 409 2034 409 
Q 2525 409 2770 889 
Q 3016 1369 3016 2328 
Q 3016 3291 2770 3770 
Q 2525 4250 2034 4250 
z
M 2034 4750 
Q 2819 4750 3233 4129 
Q 3647 3509 3647 2328 
Q 3647 1150 3233 529 
Q 2819 -91 2034 -91 
Q 1250 -91 836 529 
Q 422 1150 422 2328 
Q 422 3509 836 4129 
Q 1250 4750 2034 4750 
z
" transform="scale(0.015625)"/>
       </defs>
       <use xlink:href="#DejaVuSans-13"/>
      </g>
     </g>
    </g>
    <g id="xtick_2">
     <g id="line2d_2">
      <g>
       <use xlink:href="#m32d4d11353" x="191.210732" y="354.958125" style="stroke: #000000; stroke-width: 0.8"/>
      </g>
     </g>
     <g id="text_2">
      <!-- 10 -->
      <g transform="translate(184.848232 369.555781) scale(0.1 -0.1)">
       <defs>
        <path id="DejaVuSans-14" d="M 794 531 
L 1825 531 
L 1825 4091 
L 703 3866 
L 703 4441 
L 1819 4666 
L 2450 4666 
L 2450 531 
L 3481 531 
L 3481 0 
L 794 0 
L 794 531 
z
" transform="scale(0.015625)"/>
       </defs>
       <use xlink:href="#DejaVuSans-14"/>
       <use xlink:href="#DejaVuSans-13" transform="translate(63.625 0)"/>
      </g>
     </g>
    </g>
    <g id="xtick_3">
     <g id="line2d_3">
      <g>
       <use xlink:href="#m32d4d11353" x="290.255517" y="354.958125" style="stroke: #000000; stroke-width: 0.8"/>
      </g>
     </g>
     <g id="text_3">
      <!-- 20 -->
      <g transform="translate(283.893017 369.555781) scale(0.1 -0.1)">
       <defs>
        <path id="DejaVuSans-15" d="M 1228 531 
L 3431 531 
L 3431 0 
L 469 0 
L 469 531 
Q 828 903 1448 1529 
Q 2069 2156 2228 2338 
Q 2531 2678 2651 2914 
Q 2772 3150 2772 3378 
Q 2772 3750 2511 3984 
Q 2250 4219 1831 4219 
Q 1534 4219 1204 4116 
Q 875 4013 500 3803 
L 500 4441 
Q 881 4594 1212 4672 
Q 1544 4750 1819 4750 
Q 2544 4750 2975 4387 
Q 3406 4025 3406 3419 
Q 3406 3131 3298 2873 
Q 3191 2616 2906 2266 
Q 2828 2175 2409 1742 
Q 1991 1309 1228 531 
z
" transform="scale(0.015625)"/>
       </defs>
       <use xlink:href="#DejaVuSans-15"/>
       <use xlink:href="#DejaVuSans-13" transform="translate(63.625 0)"/>
      </g>
     </g>
    </g>
    <g id="xtick_4">
     <g id="line2d_4">
      <g>
       <use xlink:href="#m32d4d11353" x="389.300303" y="354.958125" style="stroke: #000000; stroke-width: 0.8"/>
      </g>
     </g>
     <g id="text_4">
      <!-- 30 -->
      <g transform="translate(382.937803 369.555781) scale(0.1 -0.1)">
       <defs>
        <path id="DejaVuSans-16" d="M 2597 2516 
Q 3050 2419 3304 2112 
Q 3559 1806 3559 1356 
Q 3559 666 3084 287 
Q 2609 -91 1734 -91 
Q 1441 -91 1130 -33 
Q 819 25 488 141 
L 488 750 
Q 750 597 1062 519 
Q 1375 441 1716 441 
Q 2309 441 2620 675 
Q 2931 909 2931 1356 
Q 2931 1769 2642 2001 
Q 2353 2234 1838 2234 
L 1294 2234 
L 1294 2753 
L 1863 2753 
Q 2328 2753 2575 2939 
Q 2822 3125 2822 3475 
Q 2822 3834 2567 4026 
Q 2313 4219 1838 4219 
Q 1578 4219 1281 4162 
Q 984 4106 628 3988 
L 628 4550 
Q 988 4650 1302 4700 
Q 1616 4750 1894 4750 
Q 2613 4750 3031 4423 
Q 3450 4097 3450 3541 
Q 3450 3153 3228 2886 
Q 3006 2619 2597 2516 
z
" transform="scale(0.015625)"/>
       </defs>
       <use xlink:href="#DejaVuSans-16"/>
       <use xlink:href="#DejaVuSans-13" transform="translate(63.625 0)"/>
      </g>
     </g>
    </g>
    <g id="xtick_5">
     <g id="line2d_5">
      <g>
       <use xlink:href="#m32d4d11353" x="488.345089" y="354.958125" style="stroke: #000000; stroke-width: 0.8"/>
      </g>
     </g>
     <g id="text_5">
      <!-- 40 -->
      <g transform="translate(481.982589 369.555781) scale(0.1 -0.1)">
       <defs>
        <path id="DejaVuSans-17" d="M 2419 4116 
L 825 1625 
L 2419 1625 
L 2419 4116 
z
M 2253 4666 
L 3047 4666 
L 3047 1625 
L 3713 1625 
L 3713 1100 
L 3047 1100 
L 3047 0 
L 2419 0 
L 2419 1100 
L 313 1100 
L 313 1709 
L 2253 4666 
z
" transform="scale(0.015625)"/>
       </defs>
       <use xlink:href="#DejaVuSans-17"/>
       <use xlink:href="#DejaVuSans-13" transform="translate(63.625 0)"/>
      </g>
     </g>
    </g>
    <g id="xtick_6">
     <g id="line2d_6">
      <g>
       <use xlink:href="#m32d4d11353" x="587.389875" y="354.958125" style="stroke: #000000; stroke-width: 0.8"/>
      </g>
     </g>
     <g id="text_6">
      <!-- 50 -->
      <g transform="translate(581.027375 369.555781) scale(0.1 -0.1)">
       <defs>
        <path id="DejaVuSans-18" d="M 691 4666 
L 3169 4666 
L 3169 4134 
L 1269 4134 
L 1269 2991 
Q 1406 3038 1543 3061 
Q 1681 3084 1819 3084 
Q 2600 3084 3056 2656 
Q 3513 2228 3513 1497 
Q 3513 744 3044 326 
Q 2575 -91 1722 -91 
Q 1428 -91 1123 -41 
Q 819 9 494 109 
L 494 744 
Q 775 591 1075 516 
Q 1375 441 1709 441 
Q 2250 441 2565 725 
Q 2881 1009 2881 1497 
Q 2881 1984 2565 2268 
Q 2250 2553 1709 2553 
Q 1456 2553 1204 2497 
Q 953 2441 691 2322 
L 691 4666 
z
" transform="scale(0.015625)"/>
       </defs>
       <use xlink:href="#DejaVuSans-18"/>
       <use xlink:href="#DejaVuSans-13" transform="translate(63.625 0)"/>
      </g>
     </g>
    </g>
    <g id="text_7">
     <!-- Intervention Threshold (tau) -->
     <g transform="translate(276.961719 383.556562) scale(0.1 -0.1)">
      <defs>
       <path id="DejaVuSans-2c" d="M 628 4666 
L 1259 4666 
L 1259 0 
L 628 0 
L 628 4666 
z
" transform="scale(0.015625)"/>
       <path id="DejaVuSans-51" d="M 3513 2113 
L 3513 0 
L 2938 0 
L 2938 2094 
Q 2938 2591 2744 2837 
Q 2550 3084 2163 3084 
Q 1697 3084 1428 2787 
Q 1159 2491 1159 1978 
L 1159 0 
L 581 0 
L 581 3500 
L 1159 3500 
L 1159 2956 
Q 1366 3272 1645 3428 
Q 1925 3584 2291 3584 
Q 2894 3584 3203 3211 
Q 3513 2838 3513 2113 
z
" transform="scale(0.015625)"/>
       <path id="DejaVuSans-57" d="M 1172 4494 
L 1172 3500 
L 2356 3500 
L 2356 3053 
L 1172 3053 
L 1172 1153 
Q 1172 725 1289 603 
Q 1406 481 1766 481 
L 2356 481 
L 2356 0 
L 1766 0 
Q 1100 0 847 248 
Q 594 497 594 1153 
L 594 3053 
L 172 3053 
L 172 3500 
L 594 3500 
L 594 4494 
L 1172 4494 
z
" transform="scale(0.015625)"/>
       <path id="DejaVuSans-48" d="M 3597 1894 
L 3597 1613 
L 953 1613 
Q 991 1019 1311 708 
Q 1631 397 2203 397 
Q 2534 397 2845 478 
Q 3156 559 3463 722 
L 3463 178 
Q 3153 47 2828 -22 
Q 2503 -91 2169 -91 
Q 1331 -91 842 396 
Q 353 884 353 1716 
Q 353 2575 817 3079 
Q 1281 3584 2069 3584 
Q 2775 3584 3186 3129 
Q 3597 2675 3597 1894 
z
M 3022 2063 
Q 3016 2534 2758 2815 
Q 2500 3097 2075 3097 
Q 1594 3097 1305 2825 
Q 1016 2553 972 2059 
L 3022 2063 
z
" transform="scale(0.015625)"/>
       <path id="DejaVuSans-55" d="M 2631 2963 
Q 2534 3019 2420 3045 
Q 2306 3072 2169 3072 
Q 1681 3072 1420 2755 
Q 1159 2438 1159 1844 
L 1159 0 
L 581 0 
L 581 3500 
L 1159 3500 
L 1159 2956 
Q 1341 3275 1631 3429 
Q 1922 3584 2338 3584 
Q 2397 3584 2469 3576 
Q 2541 3569 2628 3553 
L 2631 2963 
z
" transform="scale(0.015625)"/>
       <path id="DejaVuSans-59" d="M 191 3500 
L 800 3500 
L 1894 563 
L 2988 3500 
L 3597 3500 
L 2284 0 
L 1503 0 
L 191 3500 
z
" transform="scale(0.015625)"/>
       <path id="DejaVuSans-4c" d="M 603 3500 
L 1178 3500 
L 1178 0 
L 603 0 
L 603 3500 
z
M 603 4863 
L 1178 4863 
L 1178 4134 
L 603 4134 
L 603 4863 
z
" transform="scale(0.015625)"/>
       <path id="DejaVuSans-52" d="M 1959 3097 
Q 1497 3097 1228 2736 
Q 959 2375 959 1747 
Q 959 1119 1226 758 
Q 1494 397 1959 397 
Q 2419 397 2687 759 
Q 2956 1122 2956 1747 
Q 2956 2369 2687 2733 
Q 2419 3097 1959 3097 
z
M 1959 3584 
Q 2709 3584 3137 3096 
Q 3566 2609 3566 1747 
Q 3566 888 3137 398 
Q 2709 -91 1959 -91 
Q 1206 -91 779 398 
Q 353 888 353 1747 
Q 353 2609 779 3096 
Q 1206 3584 1959 3584 
z
" transform="scale(0.015625)"/>
       <path id="DejaVuSans-3" transform="scale(0.015625)"/>
       <path id="DejaVuSans-37" d="M -19 4666 
L 3928 4666 
L 3928 4134 
L 2272 4134 
L 2272 0 
L 1638 0 
L 1638 4134 
L -19 4134 
L -19 4666 
z
" transform="scale(0.015625)"/>
       <path id="DejaVuSans-4b" d="M 3513 2113 
L 3513 0 
L 2938 0 
L 2938 2094 
Q 2938 2591 2744 2837 
Q 2550 3084 2163 3084 
Q 1697 3084 1428 2787 
Q 1159 2491 1159 1978 
L 1159 0 
L 581 0 
L 581 4863 
L 1159 4863 
L 1159 2956 
Q 1366 3272 1645 3428 
Q 1925 3584 2291 3584 
Q 2894 3584 3203 3211 
Q 3513 2838 3513 2113 
z
" transform="scale(0.015625)"/>
       <path id="DejaVuSans-56" d="M 2834 3397 
L 2834 2853 
Q 2591 2978 2328 3040 
Q 2066 3103 1784 3103 
Q 1356 3103 1142 2972 
Q 928 2841 928 2578 
Q 928 2378 1081 2264 
Q 1234 2150 1697 2047 
L 1894 2003 
Q 2506 1872 2764 1633 
Q 3022 1394 3022 966 
Q 3022 478 2636 193 
Q 2250 -91 1575 -91 
Q 1294 -91 989 -36 
Q 684 19 347 128 
L 347 722 
Q 666 556 975 473 
Q 1284 391 1588 391 
Q 1994 391 2212 530 
Q 2431 669 2431 922 
Q 2431 1156 2273 1281 
Q 2116 1406 1581 1522 
L 1381 1569 
Q 847 1681 609 1914 
Q 372 2147 372 2553 
Q 372 3047 722 3315 
Q 1072 3584 1716 3584 
Q 2034 3584 2315 3537 
Q 2597 3491 2834 3397 
z
" transform="scale(0.015625)"/>
       <path id="DejaVuSans-4f" d="M 603 4863 
L 1178 4863 
L 1178 0 
L 603 0 
L 603 4863 
z
" transform="scale(0.015625)"/>
       <path id="DejaVuSans-47" d="M 2906 2969 
L 2906 4863 
L 3481 4863 
L 3481 0 
L 2906 0 
L 2906 525 
Q 2725 213 2448 61 
Q 2172 -91 1784 -91 
Q 1150 -91 751 415 
Q 353 922 353 1747 
Q 353 2572 751 3078 
Q 1150 3584 1784 3584 
Q 2172 3584 2448 3432 
Q 2725 3281 2906 2969 
z
M 947 1747 
Q 947 1113 1208 752 
Q 1469 391 1925 391 
Q 2381 391 2643 752 
Q 2906 1113 2906 1747 
Q 2906 2381 2643 2742 
Q 2381 3103 1925 3103 
Q 1469 3103 1208 2742 
Q 947 2381 947 1747 
z
" transform="scale(0.015625)"/>
       <path id="DejaVuSans-b" d="M 1984 4856 
Q 1566 4138 1362 3434 
Q 1159 2731 1159 2009 
Q 1159 1288 1364 580 
Q 1569 -128 1984 -844 
L 1484 -844 
Q 1016 -109 783 600 
Q 550 1309 550 2009 
Q 550 2706 781 3412 
Q 1013 4119 1484 4856 
L 1984 4856 
z
" transform="scale(0.015625)"/>
       <path id="DejaVuSans-44" d="M 2194 1759 
Q 1497 1759 1228 1600 
Q 959 1441 959 1056 
Q 959 750 1161 570 
Q 1363 391 1709 391 
Q 2188 391 2477 730 
Q 2766 1069 2766 1631 
L 2766 1759 
L 2194 1759 
z
M 3341 1997 
L 3341 0 
L 2766 0 
L 2766 531 
Q 2569 213 2275 61 
Q 1981 -91 1556 -91 
Q 1019 -91 701 211 
Q 384 513 384 1019 
Q 384 1609 779 1909 
Q 1175 2209 1959 2209 
L 2766 2209 
L 2766 2266 
Q 2766 2663 2505 2880 
Q 2244 3097 1772 3097 
Q 1472 3097 1187 3025 
Q 903 2953 641 2809 
L 641 3341 
Q 956 3463 1253 3523 
Q 1550 3584 1831 3584 
Q 2591 3584 2966 3190 
Q 3341 2797 3341 1997 
z
" transform="scale(0.015625)"/>
       <path id="DejaVuSans-58" d="M 544 1381 
L 544 3500 
L 1119 3500 
L 1119 1403 
Q 1119 906 1312 657 
Q 1506 409 1894 409 
Q 2359 409 2629 706 
Q 2900 1003 2900 1516 
L 2900 3500 
L 3475 3500 
L 3475 0 
L 2900 0 
L 2900 538 
Q 2691 219 2414 64 
Q 2138 -91 1772 -91 
Q 1169 -91 856 284 
Q 544 659 544 1381 
z
M 1991 3584 
L 1991 3584 
z
" transform="scale(0.015625)"/>
       <path id="DejaVuSans-c" d="M 513 4856 
L 1013 4856 
Q 1481 4119 1714 3412 
Q 1947 2706 1947 2009 
Q 1947 1309 1714 600 
Q 1481 -109 1013 -844 
L 513 -844 
Q 928 -128 1133 580 
Q 1338 1288 1338 2009 
Q 1338 2731 1133 3434 
Q 928 4138 513 4856 
z
" transform="scale(0.015625)"/>
      </defs>
      <use xlink:href="#DejaVuSans-2c"/>
      <use xlink:href="#DejaVuSans-51" transform="translate(29.5 0)"/>
      <use xlink:href="#DejaVuSans-57" transform="translate(92.875 0)"/>
      <use xlink:href="#DejaVuSans-48" transform="translate(132.078125 0)"/>
      <use xlink:href="#DejaVuSans-55" transform="translate(193.609375 0)"/>
      <use xlink:href="#DejaVuSans-59" transform="translate(234.71875 0)"/>
      <use xlink:href="#DejaVuSans-48" transform="translate(293.90625 0)"/>
      <use xlink:href="#DejaVuSans-51" transform="translate(355.4375 0)"/>
      <use xlink:href="#DejaVuSans-57" transform="translate(418.8125 0)"/>
      <use xlink:href="#DejaVuSans-4c" transform="translate(458.015625 0)"/>
      <use xlink:href="#DejaVuSans-52" transform="translate(485.796875 0)"/>
      <use xlink:href="#DejaVuSans-51" transform="translate(546.984375 0)"/>
      <use xlink:href="#DejaVuSans-3" transform="translate(610.359375 0)"/>
      <use xlink:href="#DejaVuSans-37" transform="translate(642.140625 0)"/>
      <use xlink:href="#DejaVuSans-4b" transform="translate(703.21875 0)"/>
      <use xlink:href="#DejaVuSans-55" transform="translate(766.59375 0)"/>
      <use xlink:href="#DejaVuSans-48" transform="translate(805.5 0)"/>
      <use xlink:href="#DejaVuSans-56" transform="translate(867.03125 0)"/>
      <use xlink:href="#DejaVuSans-4b" transform="translate(919.125 0)"/>
      <use xlink:href="#DejaVuSans-52" transform="translate(982.5 0)"/>
      <use xlink:href="#DejaVuSans-4f" transform="translate(1043.6875 0)"/>
      <use xlink:href="#DejaVuSans-47" transform="translate(1071.46875 0)"/>
      <use xlink:href="#DejaVuSans-3" transform="translate(1134.953125 0)"/>
      <use xlink:href="#DejaVuSans-b" transform="translate(1166.734375 0)"/>
      <use xlink:href="#DejaVuSans-57" transform="translate(1205.75 0)"/>
      <use xlink:href="#DejaVuSans-44" transform="translate(1244.953125 0)"/>
      <use xlink:href="#DejaVuSans-58" transform="translate(1306.234375 0)"/>
      <use xlink:href="#DejaVuSans-c" transform="translate(1369.609375 0)"/>
     </g>
    </g>
   </g>
   <g id="matplotlib.axis_2">
    <g id="ytick_1">
     <g id="line2d_7">
      <defs>
       <path id="m299d49036a" d="M 0 0 
L -3.5 0 
" style="stroke: #000000; stroke-width: 0.8"/>
      </defs>
      <g>
       <use xlink:href="#m299d49036a" x="68.392969" y="313.565746" style="stroke: #000000; stroke-width: 0.8"/>
      </g>
     </g>
     <g id="text_8">
      <!-- −15000 -->
      <g transform="translate(21.200781 317.364574) scale(0.1 -0.1)">
       <defs>
        <path id="DejaVuSans-c9c" d="M 678 2272 
L 4684 2272 
L 4684 1741 
L 678 1741 
L 678 2272 
z
" transform="scale(0.015625)"/>
       </defs>
       <use xlink:href="#DejaVuSans-c9c"/>
       <use xlink:href="#DejaVuSans-14" transform="translate(83.796875 0)"/>
       <use xlink:href="#DejaVuSans-18" transform="translate(147.421875 0)"/>
       <use xlink:href="#DejaVuSans-13" transform="translate(211.046875 0)"/>
       <use xlink:href="#DejaVuSans-13" transform="translate(274.671875 0)"/>
       <use xlink:href="#DejaVuSans-13" transform="translate(338.296875 0)"/>
      </g>
     </g>
    </g>
    <g id="ytick_2">
     <g id="line2d_8">
      <g>
       <use xlink:href="#m299d49036a" x="68.392969" y="240.737831" style="stroke: #000000; stroke-width: 0.8"/>
      </g>
     </g>
     <g id="text_9">
      <!-- −10000 -->
      <g transform="translate(21.200781 244.53666) scale(0.1 -0.1)">
       <use xlink:href="#DejaVuSans-c9c"/>
       <use xlink:href="#DejaVuSans-14" transform="translate(83.796875 0)"/>
       <use xlink:href="#DejaVuSans-13" transform="translate(147.421875 0)"/>
       <use xlink:href="#DejaVuSans-13" transform="translate(211.046875 0)"/>
       <use xlink:href="#DejaVuSans-13" transform="translate(274.671875 0)"/>
       <use xlink:href="#DejaVuSans-13" transform="translate(338.296875 0)"/>
      </g>
     </g>
    </g>
    <g id="ytick_3">
     <g id="line2d_9">
      <g>
       <use xlink:href="#m299d49036a" x="68.392969" y="167.909917" style="stroke: #000000; stroke-width: 0.8"/>
      </g>
     </g>
     <g id="text_10">
      <!-- −5000 -->
      <g transform="translate(27.563281 171.708745) scale(0.1 -0.1)">
       <use xlink:href="#DejaVuSans-c9c"/>
       <use xlink:href="#DejaVuSans-18" transform="translate(83.796875 0)"/>
       <use xlink:href="#DejaVuSans-13" transform="translate(147.421875 0)"/>
       <use xlink:href="#DejaVuSans-13" transform="translate(211.046875 0)"/>
       <use xlink:href="#DejaVuSans-13" transform="translate(274.671875 0)"/>
      </g>
     </g>
    </g>
    <g id="ytick_4">
     <g id="line2d_10">
      <g>
       <use xlink:href="#m299d49036a" x="68.392969" y="95.082002" style="stroke: #000000; stroke-width: 0.8"/>
      </g>
     </g>
     <g id="text_11">
      <!-- 0 -->
      <g transform="translate(55.030469 98.88083) scale(0.1 -0.1)">
       <use xlink:href="#DejaVuSans-13"/>
      </g>
     </g>
    </g>
    <g id="text_12">
     <!-- Expected Net Benefit ($) -->
     <g style="fill: #0000ff" transform="translate(14.798438 250.456875) rotate(-90) scale(0.1 -0.1)">
      <defs>
       <path id="DejaVuSans-28" d="M 628 4666 
L 3578 4666 
L 3578 4134 
L 1259 4134 
L 1259 2753 
L 3481 2753 
L 3481 2222 
L 1259 2222 
L 1259 531 
L 3634 531 
L 3634 0 
L 628 0 
L 628 4666 
z
" transform="scale(0.015625)"/>
       <path id="DejaVuSans-5b" d="M 3513 3500 
L 2247 1797 
L 3578 0 
L 2900 0 
L 1881 1375 
L 863 0 
L 184 0 
L 1544 1831 
L 300 3500 
L 978 3500 
L 1906 2253 
L 2834 3500 
L 3513 3500 
z
" transform="scale(0.015625)"/>
       <path id="DejaVuSans-53" d="M 1159 525 
L 1159 -1331 
L 581 -1331 
L 581 3500 
L 1159 3500 
L 1159 2969 
Q 1341 3281 1617 3432 
Q 1894 3584 2278 3584 
Q 2916 3584 3314 3078 
Q 3713 2572 3713 1747 
Q 3713 922 3314 415 
Q 2916 -91 2278 -91 
Q 1894 -91 1617 61 
Q 1341 213 1159 525 
z
M 3116 1747 
Q 3116 2381 2855 2742 
Q 2594 3103 2138 3103 
Q 1681 3103 1420 2742 
Q 1159 2381 1159 1747 
Q 1159 1113 1420 752 
Q 1681 391 2138 391 
Q 2594 391 2855 752 
Q 3116 1113 3116 1747 
z
" transform="scale(0.015625)"/>
       <path id="DejaVuSans-46" d="M 3122 3366 
L 3122 2828 
Q 2878 2963 2633 3030 
Q 2388 3097 2138 3097 
Q 1578 3097 1268 2742 
Q 959 2388 959 1747 
Q 959 1106 1268 751 
Q 1578 397 2138 397 
Q 2388 397 2633 464 
Q 2878 531 3122 666 
L 3122 134 
Q 2881 22 2623 -34 
Q 2366 -91 2075 -91 
Q 1284 -91 818 406 
Q 353 903 353 1747 
Q 353 2603 823 3093 
Q 1294 3584 2113 3584 
Q 2378 3584 2631 3529 
Q 2884 3475 3122 3366 
z
" transform="scale(0.015625)"/>
       <path id="DejaVuSans-31" d="M 628 4666 
L 1478 4666 
L 3547 763 
L 3547 4666 
L 4159 4666 
L 4159 0 
L 3309 0 
L 1241 3903 
L 1241 0 
L 628 0 
L 628 4666 
z
" transform="scale(0.015625)"/>
       <path id="DejaVuSans-25" d="M 1259 2228 
L 1259 519 
L 2272 519 
Q 2781 519 3026 730 
Q 3272 941 3272 1375 
Q 3272 1813 3026 2020 
Q 2781 2228 2272 2228 
L 1259 2228 
z
M 1259 4147 
L 1259 2741 
L 2194 2741 
Q 2656 2741 2882 2914 
Q 3109 3088 3109 3444 
Q 3109 3797 2882 3972 
Q 2656 4147 2194 4147 
L 1259 4147 
z
M 628 4666 
L 2241 4666 
Q 2963 4666 3353 4366 
Q 3744 4066 3744 3513 
Q 3744 3084 3544 2831 
Q 3344 2578 2956 2516 
Q 3422 2416 3680 2098 
Q 3938 1781 3938 1306 
Q 3938 681 3513 340 
Q 3088 0 2303 0 
L 628 0 
L 628 4666 
z
" transform="scale(0.015625)"/>
       <path id="DejaVuSans-13af" d="M 3431 3500 
L 3431 0 
L 2853 0 
L 2853 3053 
L 1275 3053 
L 1275 0 
L 697 0 
L 697 3053 
L 147 3053 
L 147 3500 
L 697 3500 
L 697 3744 
Q 697 4316 967 4589 
Q 1238 4863 1797 4863 
L 2375 4863 
L 2375 4384 
L 1825 4384 
Q 1516 4384 1395 4259 
Q 1275 4134 1275 3809 
L 1275 3500 
L 3431 3500 
z
M 2853 4856 
L 3431 4856 
L 3431 4128 
L 2853 4128 
L 2853 4856 
z
" transform="scale(0.015625)"/>
       <path id="DejaVuSans-7" d="M 2163 -941 
L 1850 -941 
L 1847 0 
Q 1519 6 1191 76 
Q 863 147 531 288 
L 531 850 
Q 850 650 1176 548 
Q 1503 447 1850 444 
L 1850 1869 
Q 1159 1981 845 2250 
Q 531 2519 531 2988 
Q 531 3497 872 3790 
Q 1213 4084 1850 4128 
L 1850 4863 
L 2163 4863 
L 2163 4138 
Q 2453 4125 2725 4076 
Q 2997 4028 3256 3944 
L 3256 3397 
Q 2997 3528 2723 3600 
Q 2450 3672 2163 3684 
L 2163 2350 
Q 2872 2241 3206 1959 
Q 3541 1678 3541 1191 
Q 3541 663 3186 358 
Q 2831 53 2163 6 
L 2163 -941 
z
M 1850 2406 
L 1850 3688 
Q 1488 3647 1297 3481 
Q 1106 3316 1106 3041 
Q 1106 2772 1282 2622 
Q 1459 2472 1850 2406 
z
M 2163 1806 
L 2163 453 
Q 2559 506 2761 678 
Q 2963 850 2963 1131 
Q 2963 1406 2770 1568 
Q 2578 1731 2163 1806 
z
" transform="scale(0.015625)"/>
      </defs>
      <use xlink:href="#DejaVuSans-28"/>
      <use xlink:href="#DejaVuSans-5b" transform="translate(63.1875 0)"/>
      <use xlink:href="#DejaVuSans-53" transform="translate(122.375 0)"/>
      <use xlink:href="#DejaVuSans-48" transform="translate(185.859375 0)"/>
      <use xlink:href="#DejaVuSans-46" transform="translate(247.390625 0)"/>
      <use xlink:href="#DejaVuSans-57" transform="translate(302.375 0)"/>
      <use xlink:href="#DejaVuSans-48" transform="translate(341.578125 0)"/>
      <use xlink:href="#DejaVuSans-47" transform="translate(403.109375 0)"/>
      <use xlink:href="#DejaVuSans-3" transform="translate(466.59375 0)"/>
      <use xlink:href="#DejaVuSans-31" transform="translate(498.375 0)"/>
      <use xlink:href="#DejaVuSans-48" transform="translate(573.1875 0)"/>
      <use xlink:href="#DejaVuSans-57" transform="translate(634.71875 0)"/>
      <use xlink:href="#DejaVuSans-3" transform="translate(673.921875 0)"/>
      <use xlink:href="#DejaVuSans-25" transform="translate(705.703125 0)"/>
      <use xlink:href="#DejaVuSans-48" transform="translate(774.3125 0)"/>
      <use xlink:href="#DejaVuSans-51" transform="translate(835.84375 0)"/>
      <use xlink:href="#DejaVuSans-48" transform="translate(899.21875 0)"/>
      <use xlink:href="#DejaVuSans-13af" transform="translate(960.75 0)"/>
      <use xlink:href="#DejaVuSans-57" transform="translate(1023.734375 0)"/>
      <use xlink:href="#DejaVuSans-3" transform="translate(1062.9375 0)"/>
      <use xlink:href="#DejaVuSans-b" transform="translate(1094.71875 0)"/>
      <use xlink:href="#DejaVuSans-7" transform="translate(1133.734375 0)"/>
      <use xlink:href="#DejaVuSans-c" transform="translate(1197.359375 0)"/>
     </g>
    </g>
   </g>
   <g id="line2d_11">
    <path d="M 93.756605 339.838125 
L 94.964952 333.765733 
L 96.073263 327.71621 
L 96.940895 321.687369 
L 98.489955 315.685912 
L 99.367492 309.710673 
L 100.877925 303.759176 
L 101.801023 297.831566 
L 104.035473 291.933962 
L 105.572648 286.076995 
L 107.30296 280.252219 
L 109.899915 274.4691 
L 112.430509 268.737543 
L 114.694673 262.657432 
L 116.260571 257.022881 
L 118.022578 251.420376 
L 120.547229 245.858071 
L 124.063319 240.358835 
L 127.021787 234.940147 
L 129.936675 229.571127 
L 132.188953 224.255272 
L 134.905752 218.987629 
L 137.161992 213.776646 
L 140.204648 208.613438 
L 142.608465 203.509658 
L 145.629331 198.101166 
L 147.532972 193.105171 
L 150.292359 188.14792 
L 153.247856 183.258982 
L 156.280607 178.426268 
L 158.797335 173.654874 
L 162.610559 168.948297 
L 165.749289 164.317607 
L 170.037928 159.763386 
L 171.719708 155.263641 
L 173.582741 150.802348 
L 175.788468 146.375722 
L 177.836714 141.99891 
L 179.669043 137.353654 
L 182.175866 133.065401 
L 184.774801 128.823029 
L 188.693013 124.651592 
L 192.344794 120.552546 
L 194.898169 116.522977 
L 199.063002 112.567547 
L 202.406754 108.693539 
L 206.608234 104.888863 
L 211.017708 101.160802 
L 216.268072 97.533972 
L 222.539588 94.029784 
L 228.915101 90.438931 
L 234.028783 87.187019 
L 239.298956 84.066343 
L 244.631527 81.036556 
L 248.451685 78.098678 
L 252.491722 75.232171 
L 256.388143 72.45568 
L 260.443037 69.760027 
L 264.18693 67.14099 
L 269.310517 64.629592 
L 272.59187 62.192333 
L 276.631907 59.84072 
L 280.898757 57.561934 
L 286.583927 55.238578 
L 291.38859 53.176529 
L 299.213128 51.236539 
L 306.84651 49.460557 
L 311.904727 47.823386 
L 319.503443 46.302593 
L 326.59604 44.936633 
L 333.616334 43.709919 
L 339.340132 42.619249 
L 341.275468 41.602716 
L 348.122434 40.672121 
L 352.786453 39.841883 
L 357.771377 39.078064 
L 364.626266 38.505637 
L 369.258591 38.053521 
L 374.930886 37.694188 
L 382.248315 37.489105 
L 390.415548 37.438125 
L 396.561277 37.527266 
L 404.101556 37.768472 
L 411.637874 38.137564 
L 418.679958 38.660614 
L 424.571142 39.31694 
L 432.844353 40.131156 
L 438.678091 41.081851 
L 444.032452 42.24768 
L 453.1624 43.49231 
L 460.21736 44.887547 
L 471.018194 46.435868 
L 476.633043 48.185049 
L 485.042936 50.090373 
L 494.236273 52.160871 
L 502.650128 54.403096 
L 520.323679 56.928623 
L 535.170493 59.800082 
L 564.736352 63.135892 
L 601.029332 67.050829 
" clip-path="url(#p46dfd070d4)" style="fill: none; stroke: #0000ff; stroke-width: 2; stroke-linecap: square"/>
   </g>
   <g id="line2d_12">
    <path d="M 68.392969 95.082002 
L 626.392969 95.082002 
" clip-path="url(#p46dfd070d4)" style="fill: none; stroke-dasharray: 1.5,2.475; stroke-dashoffset: 0; stroke: #808080; stroke-width: 1.5"/>
   </g>
   <g id="line2d_13">
    <path d="M 390.415548 354.958125 
L 390.415548 22.318125 
" clip-path="url(#p46dfd070d4)" style="fill: none; stroke-dasharray: 7.4,3.2; stroke-dashoffset: 0; stroke: #008000; stroke-width: 2"/>
   </g>
   <g id="patch_3">
    <path d="M 68.392969 354.958125 
L 68.392969 22.318125 
" style="fill: none; stroke: #000000; stroke-width: 0.8; stroke-linejoin: miter; stroke-linecap: square"/>
   </g>
   <g id="patch_4">
    <path d="M 626.392969 354.958125 
L 626.392969 22.318125 
" style="fill: none; stroke: #000000; stroke-width: 0.8; stroke-linejoin: miter; stroke-linecap: square"/>
   </g>
   <g id="patch_5">
    <path d="M 68.392969 354.958125 
L 626.392969 354.958125 
" style="fill: none; stroke: #000000; stroke-width: 0.8; stroke-linejoin: miter; stroke-linecap: square"/>
   </g>
   <g id="patch_6">
    <path d="M 68.392969 22.318125 
L 626.392969 22.318125 
" style="fill: none; stroke: #000000; stroke-width: 0.8; stroke-linejoin: miter; stroke-linecap: square"/>
   </g>
   <g id="text_13">
    <!-- Adaptive Intervention Optimization: Expected Profit vs Threshold -->
    <g transform="translate(152.480156 16.318125) scale(0.12 -0.12)">
     <defs>
      <path id="DejaVuSans-24" d="M 2188 4044 
L 1331 1722 
L 3047 1722 
L 2188 4044 
z
M 1831 4666 
L 2547 4666 
L 4325 0 
L 3669 0 
L 3244 1197 
L 1141 1197 
L 716 0 
L 50 0 
L 1831 4666 
z
" transform="scale(0.015625)"/>
      <path id="DejaVuSans-32" d="M 2522 4238 
Q 1834 4238 1429 3725 
Q 1025 3213 1025 2328 
Q 1025 1447 1429 934 
Q 1834 422 2522 422 
Q 3209 422 3611 934 
Q 4013 1447 4013 2328 
Q 4013 3213 3611 3725 
Q 3209 4238 2522 4238 
z
M 2522 4750 
Q 3503 4750 4090 4092 
Q 4678 3434 4678 2328 
Q 4678 1225 4090 567 
Q 3503 -91 2522 -91 
Q 1538 -91 948 565 
Q 359 1222 359 2328 
Q 359 3434 948 4092 
Q 1538 4750 2522 4750 
z
" transform="scale(0.015625)"/>
      <path id="DejaVuSans-50" d="M 3328 2828 
Q 3544 3216 3844 3400 
Q 4144 3584 4550 3584 
Q 5097 3584 5394 3201 
Q 5691 2819 5691 2113 
L 5691 0 
L 5113 0 
L 5113 2094 
Q 5113 2597 4934 2840 
Q 4756 3084 4391 3084 
Q 3944 3084 3684 2787 
Q 3425 2491 3425 1978 
L 3425 0 
L 2847 0 
L 2847 2094 
Q 2847 2600 2669 2842 
Q 2491 3084 2119 3084 
Q 1678 3084 1418 2786 
Q 1159 2488 1159 1978 
L 1159 0 
L 581 0 
L 581 3500 
L 1159 3500 
L 1159 2956 
Q 1356 3278 1631 3431 
Q 1906 3584 2284 3584 
Q 2666 3584 2933 3390 
Q 3200 3197 3328 2828 
z
" transform="scale(0.015625)"/>
      <path id="DejaVuSans-5d" d="M 353 3500 
L 3084 3500 
L 3084 2975 
L 922 459 
L 3084 459 
L 3084 0 
L 275 0 
L 275 525 
L 2438 3041 
L 353 3041 
L 353 3500 
z
" transform="scale(0.015625)"/>
      <path id="DejaVuSans-1d" d="M 750 794 
L 1409 794 
L 1409 0 
L 750 0 
L 750 794 
z
M 750 3309 
L 1409 3309 
L 1409 2516 
L 750 2516 
L 750 3309 
z
" transform="scale(0.015625)"/>
      <path id="DejaVuSans-33" d="M 1259 4147 
L 1259 2394 
L 2053 2394 
Q 2494 2394 2734 2622 
Q 2975 2850 2975 3272 
Q 2975 3691 2734 3919 
Q 2494 4147 2053 4147 
L 1259 4147 
z
M 628 4666 
L 2053 4666 
Q 2838 4666 3239 4311 
Q 3641 3956 3641 3272 
Q 3641 2581 3239 2228 
Q 2838 1875 2053 1875 
L 1259 1875 
L 1259 0 
L 628 0 
L 628 4666 
z
" transform="scale(0.015625)"/>
     </defs>
     <use xlink:href="#DejaVuSans-24"/>
     <use xlink:href="#DejaVuSans-47" transform="translate(66.65625 0)"/>
     <use xlink:href="#DejaVuSans-44" transform="translate(130.140625 0)"/>
     <use xlink:href="#DejaVuSans-53" transform="translate(191.421875 0)"/>
     <use xlink:href="#DejaVuSans-57" transform="translate(254.90625 0)"/>
     <use xlink:href="#DejaVuSans-4c" transform="translate(294.109375 0)"/>
     <use xlink:href="#DejaVuSans-59" transform="translate(321.890625 0)"/>
     <use xlink:href="#DejaVuSans-48" transform="translate(381.078125 0)"/>
     <use xlink:href="#DejaVuSans-3" transform="translate(442.609375 0)"/>
     <use xlink:href="#DejaVuSans-2c" transform="translate(474.390625 0)"/>
     <use xlink:href="#DejaVuSans-51" transform="translate(503.890625 0)"/>
     <use xlink:href="#DejaVuSans-57" transform="translate(567.265625 0)"/>
     <use xlink:href="#DejaVuSans-48" transform="translate(606.46875 0)"/>
     <use xlink:href="#DejaVuSans-55" transform="translate(668 0)"/>
     <use xlink:href="#DejaVuSans-59" transform="translate(709.109375 0)"/>
     <use xlink:href="#DejaVuSans-48" transform="translate(768.296875 0)"/>
     <use xlink:href="#DejaVuSans-51" transform="translate(829.828125 0)"/>
     <use xlink:href="#DejaVuSans-57" transform="translate(893.203125 0)"/>
     <use xlink:href="#DejaVuSans-4c" transform="translate(932.40625 0)"/>
     <use xlink:href="#DejaVuSans-52" transform="translate(960.1875 0)"/>
     <use xlink:href="#DejaVuSans-51" transform="translate(1021.375 0)"/>
     <use xlink:href="#DejaVuSans-3" transform="translate(1084.75 0)"/>
     <use xlink:href="#DejaVuSans-32" transform="translate(1116.53125 0)"/>
     <use xlink:href="#DejaVuSans-53" transform="translate(1195.25 0)"/>
     <use xlink:href="#DejaVuSans-57" transform="translate(1258.734375 0)"/>
     <use xlink:href="#DejaVuSans-4c" transform="translate(1297.9375 0)"/>
     <use xlink:href="#DejaVuSans-50" transform="translate(1325.71875 0)"/>
     <use xlink:href="#DejaVuSans-4c" transform="translate(1423.125 0)"/>
     <use xlink:href="#DejaVuSans-5d" transform="translate(1450.90625 0)"/>
     <use xlink:href="#DejaVuSans-44" transform="translate(1503.390625 0)"/>
     <use xlink:href="#DejaVuSans-57" transform="translate(1564.671875 0)"/>
     <use xlink:href="#DejaVuSans-4c" transform="translate(1603.875 0)"/>
     <use xlink:href="#DejaVuSans-52" transform="translate(1631.65625 0)"/>
     <use xlink:href="#DejaVuSans-51" transform="translate(1692.84375 0)"/>
     <use xlink:href="#DejaVuSans-1d" transform="translate(1756.21875 0)"/>
     <use xlink:href="#DejaVuSans-3" transform="translate(1789.90625 0)"/>
     <use xlink:href="#DejaVuSans-28" transform="translate(1821.6875 0)"/>
     <use xlink:href="#DejaVuSans-5b" transform="translate(1884.875 0)"/>
     <use xlink:href="#DejaVuSans-53" transform="translate(1944.0625 0)"/>
     <use xlink:href="#DejaVuSans-48" transform="translate(2007.546875 0)"/>
     <use xlink:href="#DejaVuSans-46" transform="translate(2069.078125 0)"/>
     <use xlink:href="#DejaVuSans-57" transform="translate(2124.0625 0)"/>
     <use xlink:href="#DejaVuSans-48" transform="translate(2163.265625 0)"/>
     <use xlink:href="#DejaVuSans-47" transform="translate(2224.796875 0)"/>
     <use xlink:href="#DejaVuSans-3" transform="translate(2288.28125 0)"/>
     <use xlink:href="#DejaVuSans-33" transform="translate(2320.0625 0)"/>
     <use xlink:href="#DejaVuSans-55" transform="translate(2378.609375 0)"/>
     <use xlink:href="#DejaVuSans-52" transform="translate(2417.515625 0)"/>
     <use xlink:href="#DejaVuSans-13af" transform="translate(2478.703125 0)"/>
     <use xlink:href="#DejaVuSans-57" transform="translate(2541.6875 0)"/>
     <use xlink:href="#DejaVuSans-3" transform="translate(2580.890625 0)"/>
     <use xlink:href="#DejaVuSans-59" transform="translate(2612.671875 0)"/>
     <use xlink:href="#DejaVuSans-56" transform="translate(2671.859375 0)"/>
     <use xlink:href="#DejaVuSans-3" transform="translate(2723.953125 0)"/>
     <use xlink:href="#DejaVuSans-37" transform="translate(2755.734375 0)"/>
     <use xlink:href="#DejaVuSans-4b" transform="translate(2816.8125 0)"/>
     <use xlink:href="#DejaVuSans-55" transform="translate(2880.1875 0)"/>
     <use xlink:href="#DejaVuSans-48" transform="translate(2919.09375 0)"/>
     <use xlink:href="#DejaVuSans-56" transform="translate(2980.625 0)"/>
     <use xlink:href="#DejaVuSans-4b" transform="translate(3032.71875 0)"/>
     <use xlink:href="#DejaVuSans-52" transform="translate(3096.09375 0)"/>
     <use xlink:href="#DejaVuSans-4f" transform="translate(3157.28125 0)"/>
     <use xlink:href="#DejaVuSans-47" transform="translate(3185.0625 0)"/>
    </g>
   </g>
   <g id="legend_1">
    <g id="patch_7">
     <path d="M 75.392969 60.319687 
L 213.686719 60.319687 
Q 215.686719 60.319687 215.686719 58.319687 
L 215.686719 29.318125 
Q 215.686719 27.318125 213.686719 27.318125 
L 75.392969 27.318125 
Q 73.392969 27.318125 73.392969 29.318125 
L 73.392969 58.319687 
Q 73.392969 60.319687 75.392969 60.319687 
z
" style="fill: #ffffff; opacity: 0.8; stroke: #cccccc; stroke-linejoin: miter"/>
    </g>
    <g id="line2d_14">
     <path d="M 77.392969 35.416562 
L 87.392969 35.416562 
L 97.392969 35.416562 
" style="fill: none; stroke: #0000ff; stroke-width: 2; stroke-linecap: square"/>
    </g>
    <g id="text_14">
     <!-- Expected Net Benefit -->
     <g transform="translate(105.392969 38.916562) scale(0.1 -0.1)">
      <use xlink:href="#DejaVuSans-28"/>
      <use xlink:href="#DejaVuSans-5b" transform="translate(63.1875 0)"/>
      <use xlink:href="#DejaVuSans-53" transform="translate(122.375 0)"/>
      <use xlink:href="#DejaVuSans-48" transform="translate(185.859375 0)"/>
      <use xlink:href="#DejaVuSans-46" transform="translate(247.390625 0)"/>
      <use xlink:href="#DejaVuSans-57" transform="translate(302.375 0)"/>
      <use xlink:href="#DejaVuSans-48" transform="translate(341.578125 0)"/>
      <use xlink:href="#DejaVuSans-47" transform="translate(403.109375 0)"/>
      <use xlink:href="#DejaVuSans-3" transform="translate(466.59375 0)"/>
      <use xlink:href="#DejaVuSans-31" transform="translate(498.375 0)"/>
      <use xlink:href="#DejaVuSans-48" transform="translate(573.1875 0)"/>
      <use xlink:href="#DejaVuSans-57" transform="translate(634.71875 0)"/>
      <use xlink:href="#DejaVuSans-3" transform="translate(673.921875 0)"/>
      <use xlink:href="#DejaVuSans-25" transform="translate(705.703125 0)"/>
      <use xlink:href="#DejaVuSans-48" transform="translate(774.3125 0)"/>
      <use xlink:href="#DejaVuSans-51" transform="translate(835.84375 0)"/>
      <use xlink:href="#DejaVuSans-48" transform="translate(899.21875 0)"/>
      <use xlink:href="#DejaVuSans-13af" transform="translate(960.75 0)"/>
      <use xlink:href="#DejaVuSans-57" transform="translate(1023.734375 0)"/>
     </g>
    </g>
    <g id="line2d_15">
     <path d="M 77.392969 50.417344 
L 87.392969 50.417344 
L 97.392969 50.417344 
" style="fill: none; stroke-dasharray: 7.4,3.2; stroke-dashoffset: 0; stroke: #008000; stroke-width: 2"/>
    </g>
    <g id="text_15">
     <!-- tau*=30.1126 -->
     <g transform="translate(105.392969 53.917344) scale(0.1 -0.1)">
      <defs>
       <path id="DejaVuSans-d" d="M 3009 3897 
L 1888 3291 
L 3009 2681 
L 2828 2375 
L 1778 3009 
L 1778 1831 
L 1422 1831 
L 1422 3009 
L 372 2375 
L 191 2681 
L 1313 3291 
L 191 3897 
L 372 4206 
L 1422 3572 
L 1422 4750 
L 1778 4750 
L 1778 3572 
L 2828 4206 
L 3009 3897 
z
" transform="scale(0.015625)"/>
       <path id="DejaVuSans-20" d="M 678 2906 
L 4684 2906 
L 4684 2381 
L 678 2381 
L 678 2906 
z
M 678 1631 
L 4684 1631 
L 4684 1100 
L 678 1100 
L 678 1631 
z
" transform="scale(0.015625)"/>
       <path id="DejaVuSans-11" d="M 684 794 
L 1344 794 
L 1344 0 
L 684 0 
L 684 794 
z
" transform="scale(0.015625)"/>
       <path id="DejaVuSans-19" d="M 2113 2584 
Q 1688 2584 1439 2293 
Q 1191 2003 1191 1497 
Q 1191 994 1439 701 
Q 1688 409 2113 409 
Q 2538 409 2786 701 
Q 3034 994 3034 1497 
Q 3034 2003 2786 2293 
Q 2538 2584 2113 2584 
z
M 3366 4563 
L 3366 3988 
Q 3128 4100 2886 4159 
Q 2644 4219 2406 4219 
Q 1781 4219 1451 3797 
Q 1122 3375 1075 2522 
Q 1259 2794 1537 2939 
Q 1816 3084 2150 3084 
Q 2853 3084 3261 2657 
Q 3669 2231 3669 1497 
Q 3669 778 3244 343 
Q 2819 -91 2113 -91 
Q 1303 -91 875 529 
Q 447 1150 447 2328 
Q 447 3434 972 4092 
Q 1497 4750 2381 4750 
Q 2619 4750 2861 4703 
Q 3103 4656 3366 4563 
z
" transform="scale(0.015625)"/>
      </defs>
      <use xlink:href="#DejaVuSans-57"/>
      <use xlink:href="#DejaVuSans-44" transform="translate(39.203125 0)"/>
      <use xlink:href="#DejaVuSans-58" transform="translate(100.484375 0)"/>
      <use xlink:href="#DejaVuSans-d" transform="translate(163.859375 0)"/>
      <use xlink:href="#DejaVuSans-20" transform="translate(213.859375 0)"/>
      <use xlink:href="#DejaVuSans-16" transform="translate(297.65625 0)"/>
      <use xlink:href="#DejaVuSans-13" transform="translate(361.28125 0)"/>
      <use xlink:href="#DejaVuSans-11" transform="translate(424.90625 0)"/>
      <use xlink:href="#DejaVuSans-14" transform="translate(456.6875 0)"/>
      <use xlink:href="#DejaVuSans-14" transform="translate(520.3125 0)"/>
      <use xlink:href="#DejaVuSans-15" transform="translate(583.9375 0)"/>
      <use xlink:href="#DejaVuSans-19" transform="translate(647.5625 0)"/>
     </g>
    </g>
   </g>
  </g>
  <g id="axes_2">
   <g id="matplotlib.axis_3">
    <g id="ytick_5">
     <g id="line2d_16">
      <defs>
       <path id="mdf236491c0" d="M 0 0 
L 3.5 0 
" style="stroke: #000000; stroke-width: 0.8"/>
      </defs>
      <g>
       <use xlink:href="#mdf236491c0" x="626.392969" y="325.476954" style="stroke: #000000; stroke-width: 0.8"/>
      </g>
     </g>
     <g id="text_16">
      <!-- 0 -->
      <g transform="translate(633.392969 329.275782) scale(0.1 -0.1)">
       <use xlink:href="#DejaVuSans-13"/>
      </g>
     </g>
    </g>
    <g id="ytick_6">
     <g id="line2d_17">
      <g>
       <use xlink:href="#mdf236491c0" x="626.392969" y="253.635177" style="stroke: #000000; stroke-width: 0.8"/>
      </g>
     </g>
     <g id="text_17">
      <!-- 200 -->
      <g transform="translate(633.392969 257.434005) scale(0.1 -0.1)">
       <use xlink:href="#DejaVuSans-15"/>
       <use xlink:href="#DejaVuSans-13" transform="translate(63.625 0)"/>
       <use xlink:href="#DejaVuSans-13" transform="translate(127.25 0)"/>
      </g>
     </g>
    </g>
    <g id="ytick_7">
     <g id="line2d_18">
      <g>
       <use xlink:href="#mdf236491c0" x="626.392969" y="181.7934" style="stroke: #000000; stroke-width: 0.8"/>
      </g>
     </g>
     <g id="text_18">
      <!-- 400 -->
      <g transform="translate(633.392969 185.592228) scale(0.1 -0.1)">
       <use xlink:href="#DejaVuSans-17"/>
       <use xlink:href="#DejaVuSans-13" transform="translate(63.625 0)"/>
       <use xlink:href="#DejaVuSans-13" transform="translate(127.25 0)"/>
      </g>
     </g>
    </g>
    <g id="ytick_8">
     <g id="line2d_19">
      <g>
       <use xlink:href="#mdf236491c0" x="626.392969" y="109.951623" style="stroke: #000000; stroke-width: 0.8"/>
      </g>
     </g>
     <g id="text_19">
      <!-- 600 -->
      <g transform="translate(633.392969 113.750451) scale(0.1 -0.1)">
       <use xlink:href="#DejaVuSans-19"/>
       <use xlink:href="#DejaVuSans-13" transform="translate(63.625 0)"/>
       <use xlink:href="#DejaVuSans-13" transform="translate(127.25 0)"/>
      </g>
     </g>
    </g>
    <g id="ytick_9">
     <g id="line2d_20">
      <g>
       <use xlink:href="#mdf236491c0" x="626.392969" y="38.109846" style="stroke: #000000; stroke-width: 0.8"/>
      </g>
     </g>
     <g id="text_20">
      <!-- 800 -->
      <g transform="translate(633.392969 41.908674) scale(0.1 -0.1)">
       <defs>
        <path id="DejaVuSans-1b" d="M 2034 2216 
Q 1584 2216 1326 1975 
Q 1069 1734 1069 1313 
Q 1069 891 1326 650 
Q 1584 409 2034 409 
Q 2484 409 2743 651 
Q 3003 894 3003 1313 
Q 3003 1734 2745 1975 
Q 2488 2216 2034 2216 
z
M 1403 2484 
Q 997 2584 770 2862 
Q 544 3141 544 3541 
Q 544 4100 942 4425 
Q 1341 4750 2034 4750 
Q 2731 4750 3128 4425 
Q 3525 4100 3525 3541 
Q 3525 3141 3298 2862 
Q 3072 2584 2669 2484 
Q 3125 2378 3379 2068 
Q 3634 1759 3634 1313 
Q 3634 634 3220 271 
Q 2806 -91 2034 -91 
Q 1263 -91 848 271 
Q 434 634 434 1313 
Q 434 1759 690 2068 
Q 947 2378 1403 2484 
z
M 1172 3481 
Q 1172 3119 1398 2916 
Q 1625 2713 2034 2713 
Q 2441 2713 2670 2916 
Q 2900 3119 2900 3481 
Q 2900 3844 2670 4047 
Q 2441 4250 2034 4250 
Q 1625 4250 1398 4047 
Q 1172 3844 1172 3481 
z
" transform="scale(0.015625)"/>
       </defs>
       <use xlink:href="#DejaVuSans-1b"/>
       <use xlink:href="#DejaVuSans-13" transform="translate(63.625 0)"/>
       <use xlink:href="#DejaVuSans-13" transform="translate(127.25 0)"/>
      </g>
     </g>
    </g>
    <g id="text_21">
     <!-- ROI % -->
     <g style="fill: #ff0000" transform="translate(664.078125 203.863125) rotate(-90) scale(0.1 -0.1)">
      <defs>
       <path id="DejaVuSans-35" d="M 2841 2188 
Q 3044 2119 3236 1894 
Q 3428 1669 3622 1275 
L 4263 0 
L 3584 0 
L 2988 1197 
Q 2756 1666 2539 1819 
Q 2322 1972 1947 1972 
L 1259 1972 
L 1259 0 
L 628 0 
L 628 4666 
L 2053 4666 
Q 2853 4666 3247 4331 
Q 3641 3997 3641 3322 
Q 3641 2881 3436 2590 
Q 3231 2300 2841 2188 
z
M 1259 4147 
L 1259 2491 
L 2053 2491 
Q 2509 2491 2742 2702 
Q 2975 2913 2975 3322 
Q 2975 3731 2742 3939 
Q 2509 4147 2053 4147 
L 1259 4147 
z
" transform="scale(0.015625)"/>
       <path id="DejaVuSans-8" d="M 4653 2053 
Q 4381 2053 4226 1822 
Q 4072 1591 4072 1178 
Q 4072 772 4226 539 
Q 4381 306 4653 306 
Q 4919 306 5073 539 
Q 5228 772 5228 1178 
Q 5228 1588 5073 1820 
Q 4919 2053 4653 2053 
z
M 4653 2450 
Q 5147 2450 5437 2106 
Q 5728 1763 5728 1178 
Q 5728 594 5436 251 
Q 5144 -91 4653 -91 
Q 4153 -91 3862 251 
Q 3572 594 3572 1178 
Q 3572 1766 3864 2108 
Q 4156 2450 4653 2450 
z
M 1428 4353 
Q 1159 4353 1004 4120 
Q 850 3888 850 3481 
Q 850 3069 1003 2837 
Q 1156 2606 1428 2606 
Q 1700 2606 1854 2837 
Q 2009 3069 2009 3481 
Q 2009 3884 1853 4118 
Q 1697 4353 1428 4353 
z
M 4250 4750 
L 4750 4750 
L 1831 -91 
L 1331 -91 
L 4250 4750 
z
M 1428 4750 
Q 1922 4750 2215 4408 
Q 2509 4066 2509 3481 
Q 2509 2891 2217 2550 
Q 1925 2209 1428 2209 
Q 931 2209 642 2551 
Q 353 2894 353 3481 
Q 353 4063 643 4406 
Q 934 4750 1428 4750 
z
" transform="scale(0.015625)"/>
      </defs>
      <use xlink:href="#DejaVuSans-35"/>
      <use xlink:href="#DejaVuSans-32" transform="translate(69.484375 0)"/>
      <use xlink:href="#DejaVuSans-2c" transform="translate(148.203125 0)"/>
      <use xlink:href="#DejaVuSans-3" transform="translate(177.703125 0)"/>
      <use xlink:href="#DejaVuSans-8" transform="translate(209.484375 0)"/>
     </g>
    </g>
   </g>
   <g id="line2d_21">
    <path d="M 93.756605 339.838125 
L 94.964952 339.6226 
L 96.073263 339.407074 
L 96.940895 339.184365 
L 98.489955 338.961655 
L 99.367492 338.731762 
L 100.877925 338.501868 
L 101.801023 338.268382 
L 104.035473 338.031304 
L 105.572648 337.790634 
L 107.30296 337.549964 
L 109.899915 337.30211 
L 112.430509 337.054256 
L 114.694673 336.788442 
L 116.260571 336.533403 
L 118.022578 336.278365 
L 120.547229 336.016142 
L 124.063319 335.75392 
L 127.021787 335.491697 
L 129.936675 335.225883 
L 132.188953 334.956476 
L 134.905752 334.68707 
L 137.161992 334.410479 
L 140.204648 334.133888 
L 142.608465 333.853705 
L 145.629331 333.548377 
L 147.532972 333.26101 
L 150.292359 332.970051 
L 153.247856 332.6755 
L 156.280607 332.377356 
L 158.797335 332.075621 
L 162.610559 331.770293 
L 165.749289 331.461374 
L 170.037928 331.152454 
L 171.719708 330.83635 
L 173.582741 330.516654 
L 175.788468 330.189774 
L 177.836714 329.85571 
L 179.669043 329.489317 
L 182.175866 329.140884 
L 184.774801 328.785268 
L 188.693013 328.426059 
L 192.344794 328.063258 
L 194.898169 327.689681 
L 199.063002 327.316103 
L 202.406754 326.935342 
L 206.608234 326.547396 
L 211.017708 326.152266 
L 216.268072 325.753545 
L 222.539588 325.354823 
L 228.915101 324.930956 
L 234.028783 324.52505 
L 239.298956 324.122736 
L 244.631527 323.713238 
L 248.451685 323.300148 
L 252.491722 322.872689 
L 256.388143 322.441639 
L 260.443037 322.003404 
L 264.18693 321.550801 
L 269.310517 321.094605 
L 272.59187 320.624042 
L 276.631907 320.142702 
L 280.898757 319.646994 
L 286.583927 319.104588 
L 291.38859 318.587327 
L 299.213128 318.05929 
L 306.84651 317.531253 
L 311.904727 316.996032 
L 319.503443 316.446442 
L 326.59604 315.889669 
L 333.616334 315.325711 
L 339.340132 314.747384 
L 341.275468 314.147506 
L 348.122434 313.51889 
L 352.786453 312.861538 
L 357.771377 312.132344 
L 364.626266 311.424702 
L 369.258591 310.688324 
L 374.930886 309.908841 
L 382.248315 309.093437 
L 390.415548 308.245704 
L 396.561277 307.347681 
L 404.101556 306.402962 
L 411.637874 305.386401 
L 418.679958 304.297998 
L 424.571142 303.116201 
L 432.844353 301.826641 
L 438.678091 300.396989 
L 444.032452 298.665603 
L 453.1624 296.822861 
L 460.21736 294.685568 
L 471.018194 292.153145 
L 476.633043 289.107054 
L 485.042936 285.274295 
L 494.236273 280.241779 
L 502.650128 273.226429 
L 520.323679 262.748306 
L 535.170493 244.909993 
L 564.736352 206.108249 
L 601.029332 37.438125 
" clip-path="url(#p46dfd070d4)" style="fill: none; stroke-dasharray: 7.4,3.2; stroke-dashoffset: 0; stroke: #ff0000; stroke-width: 2"/>
   </g>
   <g id="patch_8">
    <path d="M 68.392969 354.958125 
L 68.392969 22.318125 
" style="fill: none; stroke: #000000; stroke-width: 0.8; stroke-linejoin: miter; stroke-linecap: square"/>
   </g>
   <g id="patch_9">
    <path d="M 626.392969 354.958125 
L 626.392969 22.318125 
" style="fill: none; stroke: #000000; stroke-width: 0.8; stroke-linejoin: miter; stroke-linecap: square"/>
   </g>
   <g id="patch_10">
    <path d="M 68.392969 354.958125 
L 626.392969 354.958125 
" style="fill: none; stroke: #000000; stroke-width: 0.8; stroke-linejoin: miter; stroke-linecap: square"/>
   </g>
   <g id="patch_11">
    <path d="M 68.392969 22.318125 
L 626.392969 22.318125 
" style="fill: none; stroke: #000000; stroke-width: 0.8; stroke-linejoin: miter; stroke-linecap: square"/>
   </g>
  </g>
 </g>
 <defs>
  <clipPath id="p46dfd070d4">
   <rect x="68.392969" y="22.318125" width="558" height="332.64"/>
  </clipPath>
 </defs>
</svg>
